<mxfile host="app.diagrams.net" agent="Mozilla/5.0 (X11; Linux x86_64; rv:133.0) Gecko/20100101 Firefox/133.0" version="26.2.14">
  <diagram name="第 1 页" id="rBeA2SIfSLQyyooRoIgD">
    <mxGraphModel dx="1797" dy="2358" grid="1" gridSize="10" guides="1" tooltips="1" connect="1" arrows="1" fold="1" page="1" pageScale="1" pageWidth="827" pageHeight="1169" math="0" shadow="0">
      <root>
        <mxCell id="0" />
        <mxCell id="1" parent="0" />
        <mxCell id="TXJgeYW-8o42WZuSJXYs-4" value="" style="html=1;shadow=0;dashed=0;align=center;verticalAlign=middle;shape=mxgraph.arrows2.arrow;dy=0;dx=30;notch=30;fillColor=#10739E;direction=south;textDirection=vertical-lr;labelPosition=center;verticalLabelPosition=middle;" parent="1" vertex="1">
          <mxGeometry x="270" y="1510" width="60" height="1180" as="geometry" />
        </mxCell>
        <mxCell id="tnBwIVZtzYkU1ia1Uwx9-1" value="&lt;font style=&quot;font-size: 18px;&quot;&gt;&lt;b&gt;BIM 元数据合规性自动化验证&lt;/b&gt;&lt;/font&gt;" style="text;html=1;align=center;verticalAlign=middle;whiteSpace=wrap;rounded=0;" parent="1" vertex="1">
          <mxGeometry x="520" y="20" width="300" height="30" as="geometry" />
        </mxCell>
        <mxCell id="tnBwIVZtzYkU1ia1Uwx9-22" value="&lt;b style=&quot;font-size: 7px&quot;&gt;LABEL&lt;/b&gt;&lt;br style=&quot;font-size: 7px&quot;&gt;Lorem ipsum dolor sit amet, consectetur adipisicing elit, sed do eiusmod tempor incididunt ut labore et dolore magna aliqua." style="rounded=0;whiteSpace=wrap;shadow=0;strokeColor=none;strokeWidth=6;fillColor=none;fontSize=7;fontColor=#FFFFFF;align=left;html=1;spacingLeft=5;" parent="1" vertex="1">
          <mxGeometry x="210" y="100" width="150" height="40" as="geometry" />
        </mxCell>
        <mxCell id="tnBwIVZtzYkU1ia1Uwx9-27" value="" style="html=1;shadow=0;dashed=0;align=center;verticalAlign=middle;shape=mxgraph.arrows2.arrow;dy=0;dx=30;notch=30;fillColor=#12AAB5;direction=south;textDirection=vertical-lr;labelPosition=center;verticalLabelPosition=middle;" parent="1" vertex="1">
          <mxGeometry x="180" y="710" width="60" height="390" as="geometry" />
        </mxCell>
        <mxCell id="tnBwIVZtzYkU1ia1Uwx9-66" value="Assets" style="childLayout=tableLayout;recursiveResize=0;strokeColor=#808080;fillColor=#A7C942;shadow=0;align=left;verticalAlign=middle;spacingLeft=4;fontFamily=Courier New;" parent="1" vertex="1">
          <mxGeometry x="14" y="70" width="806" height="580" as="geometry" />
        </mxCell>
        <mxCell id="tnBwIVZtzYkU1ia1Uwx9-67" style="shape=tableRow;horizontal=0;startSize=0;swimlaneHead=0;swimlaneBody=0;top=0;left=0;bottom=0;right=0;dropTarget=0;collapsible=0;recursiveResize=0;expand=0;fontStyle=1;strokeColor=inherit;fillColor=#FFFFFF;align=left;spacingLeft=4;fontFamily=Courier New;" parent="tnBwIVZtzYkU1ia1Uwx9-66" vertex="1">
          <mxGeometry width="806" height="27" as="geometry" />
        </mxCell>
        <mxCell id="tnBwIVZtzYkU1ia1Uwx9-68" value="&lt;b&gt;全写&lt;/b&gt;" style="connectable=0;recursiveResize=0;strokeColor=inherit;fillColor=inherit;whiteSpace=wrap;html=1;align=left;spacingLeft=4;fontFamily=Courier New;" parent="tnBwIVZtzYkU1ia1Uwx9-67" vertex="1">
          <mxGeometry width="240" height="27" as="geometry">
            <mxRectangle width="240" height="27" as="alternateBounds" />
          </mxGeometry>
        </mxCell>
        <mxCell id="tnBwIVZtzYkU1ia1Uwx9-69" value="&lt;b&gt;缩名&lt;/b&gt;" style="connectable=0;recursiveResize=0;strokeColor=inherit;fillColor=inherit;whiteSpace=wrap;html=1;align=left;spacingLeft=4;fontFamily=Courier New;" parent="tnBwIVZtzYkU1ia1Uwx9-67" vertex="1">
          <mxGeometry x="240" width="287" height="27" as="geometry">
            <mxRectangle width="287" height="27" as="alternateBounds" />
          </mxGeometry>
        </mxCell>
        <mxCell id="tnBwIVZtzYkU1ia1Uwx9-70" value="&lt;b&gt;备注&lt;/b&gt;" style="connectable=0;recursiveResize=0;strokeColor=inherit;fillColor=inherit;whiteSpace=wrap;html=1;align=left;spacingLeft=4;fontFamily=Courier New;" parent="tnBwIVZtzYkU1ia1Uwx9-67" vertex="1">
          <mxGeometry x="527" width="279" height="27" as="geometry">
            <mxRectangle width="279" height="27" as="alternateBounds" />
          </mxGeometry>
        </mxCell>
        <mxCell id="tnBwIVZtzYkU1ia1Uwx9-71" style="shape=tableRow;horizontal=0;startSize=0;swimlaneHead=0;swimlaneBody=0;top=0;left=0;bottom=0;right=0;dropTarget=0;collapsible=0;recursiveResize=0;expand=0;fontStyle=1;strokeColor=inherit;fillColor=#FFFFFF;align=left;spacingLeft=4;fontFamily=Courier New;" parent="tnBwIVZtzYkU1ia1Uwx9-66" vertex="1">
          <mxGeometry y="27" width="806" height="30" as="geometry" />
        </mxCell>
        <mxCell id="tnBwIVZtzYkU1ia1Uwx9-72" value="&lt;span style=&quot;font-size: 7.9701pt; font-family: CharisSIL; color: rgb(0, 0, 0);&quot;&gt;Building Information Modeling &lt;/span&gt;" style="connectable=0;recursiveResize=0;strokeColor=inherit;fillColor=inherit;whiteSpace=wrap;html=1;align=left;spacingLeft=4;fontFamily=Courier New;" parent="tnBwIVZtzYkU1ia1Uwx9-71" vertex="1">
          <mxGeometry width="240" height="30" as="geometry">
            <mxRectangle width="240" height="30" as="alternateBounds" />
          </mxGeometry>
        </mxCell>
        <mxCell id="tnBwIVZtzYkU1ia1Uwx9-73" value="BIM" style="connectable=0;recursiveResize=0;strokeColor=inherit;fillColor=inherit;whiteSpace=wrap;html=1;align=left;spacingLeft=4;fontFamily=Courier New;" parent="tnBwIVZtzYkU1ia1Uwx9-71" vertex="1">
          <mxGeometry x="240" width="287" height="30" as="geometry">
            <mxRectangle width="287" height="30" as="alternateBounds" />
          </mxGeometry>
        </mxCell>
        <mxCell id="tnBwIVZtzYkU1ia1Uwx9-74" value="" style="connectable=0;recursiveResize=0;strokeColor=inherit;fillColor=inherit;whiteSpace=wrap;html=1;align=left;spacingLeft=4;fontFamily=Courier New;" parent="tnBwIVZtzYkU1ia1Uwx9-71" vertex="1">
          <mxGeometry x="527" width="279" height="30" as="geometry">
            <mxRectangle width="279" height="30" as="alternateBounds" />
          </mxGeometry>
        </mxCell>
        <mxCell id="tnBwIVZtzYkU1ia1Uwx9-75" style="shape=tableRow;horizontal=0;startSize=0;swimlaneHead=0;swimlaneBody=0;top=0;left=0;bottom=0;right=0;dropTarget=0;collapsible=0;recursiveResize=0;expand=0;fontStyle=1;strokeColor=inherit;fillColor=#FFFFFF;align=left;spacingLeft=4;fontFamily=Courier New;" parent="tnBwIVZtzYkU1ia1Uwx9-66" vertex="1">
          <mxGeometry y="57" width="806" height="31" as="geometry" />
        </mxCell>
        <mxCell id="tnBwIVZtzYkU1ia1Uwx9-76" value="&lt;span style=&quot;font-size: 7.9701pt; font-family: CharisSIL; color: rgb(0, 0, 0);&quot;&gt;Common Data Environment &lt;/span&gt;" style="connectable=0;recursiveResize=0;strokeColor=inherit;fillColor=inherit;whiteSpace=wrap;html=1;align=left;spacingLeft=4;fontFamily=Courier New;" parent="tnBwIVZtzYkU1ia1Uwx9-75" vertex="1">
          <mxGeometry width="240" height="31" as="geometry">
            <mxRectangle width="240" height="31" as="alternateBounds" />
          </mxGeometry>
        </mxCell>
        <mxCell id="tnBwIVZtzYkU1ia1Uwx9-77" value="CDE" style="connectable=0;recursiveResize=0;strokeColor=inherit;fillColor=inherit;whiteSpace=wrap;html=1;align=left;spacingLeft=4;fontFamily=Courier New;" parent="tnBwIVZtzYkU1ia1Uwx9-75" vertex="1">
          <mxGeometry x="240" width="287" height="31" as="geometry">
            <mxRectangle width="287" height="31" as="alternateBounds" />
          </mxGeometry>
        </mxCell>
        <mxCell id="tnBwIVZtzYkU1ia1Uwx9-78" value="公共数据环境" style="connectable=0;recursiveResize=0;strokeColor=inherit;fillColor=inherit;whiteSpace=wrap;html=1;align=left;spacingLeft=4;fontFamily=Courier New;" parent="tnBwIVZtzYkU1ia1Uwx9-75" vertex="1">
          <mxGeometry x="527" width="279" height="31" as="geometry">
            <mxRectangle width="279" height="31" as="alternateBounds" />
          </mxGeometry>
        </mxCell>
        <mxCell id="tnBwIVZtzYkU1ia1Uwx9-79" style="shape=tableRow;horizontal=0;startSize=0;swimlaneHead=0;swimlaneBody=0;top=0;left=0;bottom=0;right=0;dropTarget=0;collapsible=0;recursiveResize=0;expand=0;fontStyle=1;strokeColor=inherit;fillColor=#FFFFFF;align=left;spacingLeft=4;fontFamily=Courier New;" parent="tnBwIVZtzYkU1ia1Uwx9-66" vertex="1">
          <mxGeometry y="88" width="806" height="32" as="geometry" />
        </mxCell>
        <mxCell id="tnBwIVZtzYkU1ia1Uwx9-80" value="&lt;span style=&quot;font-size: 7.9701pt; font-family: CharisSIL; color: rgb(0, 0, 0);&quot;&gt;Smarter Smart Contract &lt;/span&gt;" style="connectable=0;recursiveResize=0;strokeColor=inherit;fillColor=inherit;whiteSpace=wrap;html=1;align=left;spacingLeft=4;fontFamily=Courier New;" parent="tnBwIVZtzYkU1ia1Uwx9-79" vertex="1">
          <mxGeometry width="240" height="32" as="geometry">
            <mxRectangle width="240" height="32" as="alternateBounds" />
          </mxGeometry>
        </mxCell>
        <mxCell id="tnBwIVZtzYkU1ia1Uwx9-81" value="SSC" style="connectable=0;recursiveResize=0;strokeColor=inherit;fillColor=inherit;whiteSpace=wrap;html=1;align=left;spacingLeft=4;fontFamily=Courier New;" parent="tnBwIVZtzYkU1ia1Uwx9-79" vertex="1">
          <mxGeometry x="240" width="287" height="32" as="geometry">
            <mxRectangle width="287" height="32" as="alternateBounds" />
          </mxGeometry>
        </mxCell>
        <mxCell id="tnBwIVZtzYkU1ia1Uwx9-82" value="更智能合约" style="connectable=0;recursiveResize=0;strokeColor=inherit;fillColor=inherit;whiteSpace=wrap;html=1;align=left;spacingLeft=4;fontFamily=Courier New;" parent="tnBwIVZtzYkU1ia1Uwx9-79" vertex="1">
          <mxGeometry x="527" width="279" height="32" as="geometry">
            <mxRectangle width="279" height="32" as="alternateBounds" />
          </mxGeometry>
        </mxCell>
        <mxCell id="tnBwIVZtzYkU1ia1Uwx9-83" style="shape=tableRow;horizontal=0;startSize=0;swimlaneHead=0;swimlaneBody=0;top=0;left=0;bottom=0;right=0;dropTarget=0;collapsible=0;recursiveResize=0;expand=0;fontStyle=1;strokeColor=inherit;fillColor=#FFFFFF;align=left;spacingLeft=4;fontFamily=Courier New;" parent="tnBwIVZtzYkU1ia1Uwx9-66" vertex="1">
          <mxGeometry y="120" width="806" height="31" as="geometry" />
        </mxCell>
        <mxCell id="tnBwIVZtzYkU1ia1Uwx9-84" value="&lt;div&gt;&lt;span style=&quot;font-size: 7.9701pt; font-family: CharisSIL; color: rgb(0, 0, 0);&quot;&gt;Compliance Checking Rule &lt;br&gt;&lt;/span&gt;&lt;/div&gt;" style="connectable=0;recursiveResize=0;strokeColor=inherit;fillColor=inherit;whiteSpace=wrap;html=1;align=left;spacingLeft=4;fontFamily=Courier New;" parent="tnBwIVZtzYkU1ia1Uwx9-83" vertex="1">
          <mxGeometry width="240" height="31" as="geometry">
            <mxRectangle width="240" height="31" as="alternateBounds" />
          </mxGeometry>
        </mxCell>
        <mxCell id="tnBwIVZtzYkU1ia1Uwx9-85" value="CCR" style="connectable=0;recursiveResize=0;strokeColor=inherit;fillColor=inherit;whiteSpace=wrap;html=1;align=left;spacingLeft=4;fontFamily=Courier New;" parent="tnBwIVZtzYkU1ia1Uwx9-83" vertex="1">
          <mxGeometry x="240" width="287" height="31" as="geometry">
            <mxRectangle width="287" height="31" as="alternateBounds" />
          </mxGeometry>
        </mxCell>
        <mxCell id="tnBwIVZtzYkU1ia1Uwx9-86" value="合规性规则检测" style="connectable=0;recursiveResize=0;strokeColor=inherit;fillColor=inherit;whiteSpace=wrap;html=1;align=left;spacingLeft=4;fontFamily=Courier New;" parent="tnBwIVZtzYkU1ia1Uwx9-83" vertex="1">
          <mxGeometry x="527" width="279" height="31" as="geometry">
            <mxRectangle width="279" height="31" as="alternateBounds" />
          </mxGeometry>
        </mxCell>
        <mxCell id="tnBwIVZtzYkU1ia1Uwx9-87" style="shape=tableRow;horizontal=0;startSize=0;swimlaneHead=0;swimlaneBody=0;top=0;left=0;bottom=0;right=0;dropTarget=0;collapsible=0;recursiveResize=0;expand=0;fontStyle=1;strokeColor=inherit;fillColor=#FFFFFF;align=left;spacingLeft=4;fontFamily=Courier New;" parent="tnBwIVZtzYkU1ia1Uwx9-66" vertex="1">
          <mxGeometry y="151" width="806" height="30" as="geometry" />
        </mxCell>
        <mxCell id="tnBwIVZtzYkU1ia1Uwx9-88" value="&lt;span style=&quot;font-size: 7.9701pt; font-family: CharisSIL; color: rgb(0, 0, 0);&quot;&gt;Knowledge Graph &lt;/span&gt;" style="connectable=0;recursiveResize=0;strokeColor=inherit;fillColor=inherit;whiteSpace=wrap;html=1;align=left;spacingLeft=4;fontFamily=Courier New;" parent="tnBwIVZtzYkU1ia1Uwx9-87" vertex="1">
          <mxGeometry width="240" height="30" as="geometry">
            <mxRectangle width="240" height="30" as="alternateBounds" />
          </mxGeometry>
        </mxCell>
        <mxCell id="tnBwIVZtzYkU1ia1Uwx9-89" value="KG" style="connectable=0;recursiveResize=0;strokeColor=inherit;fillColor=inherit;whiteSpace=wrap;html=1;align=left;spacingLeft=4;fontFamily=Courier New;" parent="tnBwIVZtzYkU1ia1Uwx9-87" vertex="1">
          <mxGeometry x="240" width="287" height="30" as="geometry">
            <mxRectangle width="287" height="30" as="alternateBounds" />
          </mxGeometry>
        </mxCell>
        <mxCell id="tnBwIVZtzYkU1ia1Uwx9-90" value="知识图谱" style="connectable=0;recursiveResize=0;strokeColor=inherit;fillColor=inherit;whiteSpace=wrap;html=1;align=left;spacingLeft=4;fontFamily=Courier New;" parent="tnBwIVZtzYkU1ia1Uwx9-87" vertex="1">
          <mxGeometry x="527" width="279" height="30" as="geometry">
            <mxRectangle width="279" height="30" as="alternateBounds" />
          </mxGeometry>
        </mxCell>
        <mxCell id="tnBwIVZtzYkU1ia1Uwx9-91" style="shape=tableRow;horizontal=0;startSize=0;swimlaneHead=0;swimlaneBody=0;top=0;left=0;bottom=0;right=0;dropTarget=0;collapsible=0;recursiveResize=0;expand=0;fontStyle=1;strokeColor=inherit;fillColor=#FFFFFF;align=left;spacingLeft=4;fontFamily=Courier New;" parent="tnBwIVZtzYkU1ia1Uwx9-66" vertex="1">
          <mxGeometry y="181" width="806" height="31" as="geometry" />
        </mxCell>
        <mxCell id="tnBwIVZtzYkU1ia1Uwx9-92" value="&lt;span style=&quot;font-size: 7.9701pt; font-family: CharisSIL; color: rgb(0, 0, 0);&quot;&gt;Semantic Web Rule Language &lt;/span&gt;" style="connectable=0;recursiveResize=0;strokeColor=inherit;fillColor=inherit;whiteSpace=wrap;html=1;align=left;spacingLeft=4;fontFamily=Courier New;" parent="tnBwIVZtzYkU1ia1Uwx9-91" vertex="1">
          <mxGeometry width="240" height="31" as="geometry">
            <mxRectangle width="240" height="31" as="alternateBounds" />
          </mxGeometry>
        </mxCell>
        <mxCell id="tnBwIVZtzYkU1ia1Uwx9-93" value="SWRL" style="connectable=0;recursiveResize=0;strokeColor=inherit;fillColor=inherit;whiteSpace=wrap;html=1;align=left;spacingLeft=4;fontFamily=Courier New;" parent="tnBwIVZtzYkU1ia1Uwx9-91" vertex="1">
          <mxGeometry x="240" width="287" height="31" as="geometry">
            <mxRectangle width="287" height="31" as="alternateBounds" />
          </mxGeometry>
        </mxCell>
        <mxCell id="tnBwIVZtzYkU1ia1Uwx9-94" value="语义网规则语言" style="connectable=0;recursiveResize=0;strokeColor=inherit;fillColor=inherit;whiteSpace=wrap;html=1;align=left;spacingLeft=4;fontFamily=Courier New;" parent="tnBwIVZtzYkU1ia1Uwx9-91" vertex="1">
          <mxGeometry x="527" width="279" height="31" as="geometry">
            <mxRectangle width="279" height="31" as="alternateBounds" />
          </mxGeometry>
        </mxCell>
        <mxCell id="tnBwIVZtzYkU1ia1Uwx9-95" style="shape=tableRow;horizontal=0;startSize=0;swimlaneHead=0;swimlaneBody=0;top=0;left=0;bottom=0;right=0;dropTarget=0;collapsible=0;recursiveResize=0;expand=0;fontStyle=1;strokeColor=inherit;fillColor=#FFFFFF;align=left;spacingLeft=4;fontFamily=Courier New;" parent="tnBwIVZtzYkU1ia1Uwx9-66" vertex="1">
          <mxGeometry y="212" width="806" height="32" as="geometry" />
        </mxCell>
        <mxCell id="tnBwIVZtzYkU1ia1Uwx9-96" value="&lt;div&gt;&lt;span style=&quot;font-size: 7.9701pt; font-family: CharisSIL; color: rgb(0, 0, 0);&quot;&gt;Information Container &lt;br&gt;&lt;/span&gt;&lt;/div&gt;" style="connectable=0;recursiveResize=0;strokeColor=inherit;fillColor=inherit;whiteSpace=wrap;html=1;align=left;spacingLeft=4;fontFamily=Courier New;" parent="tnBwIVZtzYkU1ia1Uwx9-95" vertex="1">
          <mxGeometry width="240" height="32" as="geometry">
            <mxRectangle width="240" height="32" as="alternateBounds" />
          </mxGeometry>
        </mxCell>
        <mxCell id="tnBwIVZtzYkU1ia1Uwx9-97" value="IC" style="connectable=0;recursiveResize=0;strokeColor=inherit;fillColor=inherit;whiteSpace=wrap;html=1;align=left;spacingLeft=4;fontFamily=Courier New;" parent="tnBwIVZtzYkU1ia1Uwx9-95" vertex="1">
          <mxGeometry x="240" width="287" height="32" as="geometry">
            <mxRectangle width="287" height="32" as="alternateBounds" />
          </mxGeometry>
        </mxCell>
        <mxCell id="tnBwIVZtzYkU1ia1Uwx9-98" value="信息容器" style="connectable=0;recursiveResize=0;strokeColor=inherit;fillColor=inherit;whiteSpace=wrap;html=1;align=left;spacingLeft=4;fontFamily=Courier New;" parent="tnBwIVZtzYkU1ia1Uwx9-95" vertex="1">
          <mxGeometry x="527" width="279" height="32" as="geometry">
            <mxRectangle width="279" height="32" as="alternateBounds" />
          </mxGeometry>
        </mxCell>
        <mxCell id="tnBwIVZtzYkU1ia1Uwx9-114" style="shape=tableRow;horizontal=0;startSize=0;swimlaneHead=0;swimlaneBody=0;top=0;left=0;bottom=0;right=0;dropTarget=0;collapsible=0;recursiveResize=0;expand=0;fontStyle=1;strokeColor=inherit;fillColor=#FFFFFF;align=left;spacingLeft=4;fontFamily=Courier New;" parent="tnBwIVZtzYkU1ia1Uwx9-66" vertex="1">
          <mxGeometry y="244" width="806" height="31" as="geometry" />
        </mxCell>
        <mxCell id="tnBwIVZtzYkU1ia1Uwx9-115" value="&lt;span style=&quot;font-size: 7.9701pt; font-family: CharisSIL; color: rgb(0, 0, 0);&quot;&gt;Ownership and Participant &lt;/span&gt;" style="connectable=0;recursiveResize=0;strokeColor=inherit;fillColor=inherit;whiteSpace=wrap;html=1;align=left;spacingLeft=4;fontFamily=Courier New;" parent="tnBwIVZtzYkU1ia1Uwx9-114" vertex="1">
          <mxGeometry width="240" height="31" as="geometry">
            <mxRectangle width="240" height="31" as="alternateBounds" />
          </mxGeometry>
        </mxCell>
        <mxCell id="tnBwIVZtzYkU1ia1Uwx9-116" value="OP" style="connectable=0;recursiveResize=0;strokeColor=inherit;fillColor=inherit;whiteSpace=wrap;html=1;align=left;spacingLeft=4;fontFamily=Courier New;" parent="tnBwIVZtzYkU1ia1Uwx9-114" vertex="1">
          <mxGeometry x="240" width="287" height="31" as="geometry">
            <mxRectangle width="287" height="31" as="alternateBounds" />
          </mxGeometry>
        </mxCell>
        <mxCell id="tnBwIVZtzYkU1ia1Uwx9-117" value="" style="connectable=0;recursiveResize=0;strokeColor=inherit;fillColor=inherit;whiteSpace=wrap;html=1;align=left;spacingLeft=4;fontFamily=Courier New;" parent="tnBwIVZtzYkU1ia1Uwx9-114" vertex="1">
          <mxGeometry x="527" width="279" height="31" as="geometry">
            <mxRectangle width="279" height="31" as="alternateBounds" />
          </mxGeometry>
        </mxCell>
        <mxCell id="tnBwIVZtzYkU1ia1Uwx9-118" style="shape=tableRow;horizontal=0;startSize=0;swimlaneHead=0;swimlaneBody=0;top=0;left=0;bottom=0;right=0;dropTarget=0;collapsible=0;recursiveResize=0;expand=0;fontStyle=1;strokeColor=inherit;fillColor=#FFFFFF;align=left;spacingLeft=4;fontFamily=Courier New;" parent="tnBwIVZtzYkU1ia1Uwx9-66" vertex="1">
          <mxGeometry y="275" width="806" height="30" as="geometry" />
        </mxCell>
        <mxCell id="tnBwIVZtzYkU1ia1Uwx9-119" value="&lt;span style=&quot;font-size: 7.9701pt; font-family: CharisSIL; color: rgb(0, 0, 0);&quot;&gt;Collaboration Process &lt;/span&gt;" style="connectable=0;recursiveResize=0;strokeColor=inherit;fillColor=inherit;whiteSpace=wrap;html=1;align=left;spacingLeft=4;fontFamily=Courier New;" parent="tnBwIVZtzYkU1ia1Uwx9-118" vertex="1">
          <mxGeometry width="240" height="30" as="geometry">
            <mxRectangle width="240" height="30" as="alternateBounds" />
          </mxGeometry>
        </mxCell>
        <mxCell id="tnBwIVZtzYkU1ia1Uwx9-120" value="CP" style="connectable=0;recursiveResize=0;strokeColor=inherit;fillColor=inherit;whiteSpace=wrap;html=1;align=left;spacingLeft=4;fontFamily=Courier New;" parent="tnBwIVZtzYkU1ia1Uwx9-118" vertex="1">
          <mxGeometry x="240" width="287" height="30" as="geometry">
            <mxRectangle width="287" height="30" as="alternateBounds" />
          </mxGeometry>
        </mxCell>
        <mxCell id="tnBwIVZtzYkU1ia1Uwx9-121" value="" style="connectable=0;recursiveResize=0;strokeColor=inherit;fillColor=inherit;whiteSpace=wrap;html=1;align=left;spacingLeft=4;fontFamily=Courier New;" parent="tnBwIVZtzYkU1ia1Uwx9-118" vertex="1">
          <mxGeometry x="527" width="279" height="30" as="geometry">
            <mxRectangle width="279" height="30" as="alternateBounds" />
          </mxGeometry>
        </mxCell>
        <mxCell id="tnBwIVZtzYkU1ia1Uwx9-122" style="shape=tableRow;horizontal=0;startSize=0;swimlaneHead=0;swimlaneBody=0;top=0;left=0;bottom=0;right=0;dropTarget=0;collapsible=0;recursiveResize=0;expand=0;fontStyle=1;strokeColor=inherit;fillColor=#FFFFFF;align=left;spacingLeft=4;fontFamily=Courier New;" parent="tnBwIVZtzYkU1ia1Uwx9-66" vertex="1">
          <mxGeometry y="305" width="806" height="31" as="geometry" />
        </mxCell>
        <mxCell id="tnBwIVZtzYkU1ia1Uwx9-123" value="&lt;span style=&quot;font-size: 7.9701pt; font-family: CharisSIL; color: rgb(0, 0, 0);&quot;&gt;Security Checking &lt;/span&gt;" style="connectable=0;recursiveResize=0;strokeColor=inherit;fillColor=inherit;whiteSpace=wrap;html=1;align=left;spacingLeft=4;fontFamily=Courier New;" parent="tnBwIVZtzYkU1ia1Uwx9-122" vertex="1">
          <mxGeometry width="240" height="31" as="geometry">
            <mxRectangle width="240" height="31" as="alternateBounds" />
          </mxGeometry>
        </mxCell>
        <mxCell id="tnBwIVZtzYkU1ia1Uwx9-124" value="SC" style="connectable=0;recursiveResize=0;strokeColor=inherit;fillColor=inherit;whiteSpace=wrap;html=1;align=left;spacingLeft=4;fontFamily=Courier New;" parent="tnBwIVZtzYkU1ia1Uwx9-122" vertex="1">
          <mxGeometry x="240" width="287" height="31" as="geometry">
            <mxRectangle width="287" height="31" as="alternateBounds" />
          </mxGeometry>
        </mxCell>
        <mxCell id="tnBwIVZtzYkU1ia1Uwx9-125" value="" style="connectable=0;recursiveResize=0;strokeColor=inherit;fillColor=inherit;whiteSpace=wrap;html=1;align=left;spacingLeft=4;fontFamily=Courier New;" parent="tnBwIVZtzYkU1ia1Uwx9-122" vertex="1">
          <mxGeometry x="527" width="279" height="31" as="geometry">
            <mxRectangle width="279" height="31" as="alternateBounds" />
          </mxGeometry>
        </mxCell>
        <mxCell id="tnBwIVZtzYkU1ia1Uwx9-126" style="shape=tableRow;horizontal=0;startSize=0;swimlaneHead=0;swimlaneBody=0;top=0;left=0;bottom=0;right=0;dropTarget=0;collapsible=0;recursiveResize=0;expand=0;fontStyle=1;strokeColor=inherit;fillColor=#FFFFFF;align=left;spacingLeft=4;fontFamily=Courier New;" parent="tnBwIVZtzYkU1ia1Uwx9-66" vertex="1">
          <mxGeometry y="336" width="806" height="32" as="geometry" />
        </mxCell>
        <mxCell id="tnBwIVZtzYkU1ia1Uwx9-127" value="&lt;span style=&quot;font-size: 7.9701pt; font-family: CharisSIL; color: rgb(0, 0, 0);&quot;&gt;Information Container Exchange &lt;/span&gt;" style="connectable=0;recursiveResize=0;strokeColor=inherit;fillColor=inherit;whiteSpace=wrap;html=1;align=left;spacingLeft=4;fontFamily=Courier New;" parent="tnBwIVZtzYkU1ia1Uwx9-126" vertex="1">
          <mxGeometry width="240" height="32" as="geometry">
            <mxRectangle width="240" height="32" as="alternateBounds" />
          </mxGeometry>
        </mxCell>
        <mxCell id="tnBwIVZtzYkU1ia1Uwx9-128" value="ICE" style="connectable=0;recursiveResize=0;strokeColor=inherit;fillColor=inherit;whiteSpace=wrap;html=1;align=left;spacingLeft=4;fontFamily=Courier New;" parent="tnBwIVZtzYkU1ia1Uwx9-126" vertex="1">
          <mxGeometry x="240" width="287" height="32" as="geometry">
            <mxRectangle width="287" height="32" as="alternateBounds" />
          </mxGeometry>
        </mxCell>
        <mxCell id="tnBwIVZtzYkU1ia1Uwx9-129" value="信息容器交换机" style="connectable=0;recursiveResize=0;strokeColor=inherit;fillColor=inherit;whiteSpace=wrap;html=1;align=left;spacingLeft=4;fontFamily=Courier New;" parent="tnBwIVZtzYkU1ia1Uwx9-126" vertex="1">
          <mxGeometry x="527" width="279" height="32" as="geometry">
            <mxRectangle width="279" height="32" as="alternateBounds" />
          </mxGeometry>
        </mxCell>
        <mxCell id="tnBwIVZtzYkU1ia1Uwx9-130" style="shape=tableRow;horizontal=0;startSize=0;swimlaneHead=0;swimlaneBody=0;top=0;left=0;bottom=0;right=0;dropTarget=0;collapsible=0;recursiveResize=0;expand=0;fontStyle=1;strokeColor=inherit;fillColor=#FFFFFF;align=left;spacingLeft=4;fontFamily=Courier New;" parent="tnBwIVZtzYkU1ia1Uwx9-66" vertex="1">
          <mxGeometry y="368" width="806" height="31" as="geometry" />
        </mxCell>
        <mxCell id="tnBwIVZtzYkU1ia1Uwx9-131" value="&lt;span style=&quot;font-size: 7.9701pt; font-family: CharisSIL; color: rgb(0, 0, 0);&quot;&gt;Issue Exchange &lt;/span&gt;" style="connectable=0;recursiveResize=0;strokeColor=inherit;fillColor=inherit;whiteSpace=wrap;html=1;align=left;spacingLeft=4;fontFamily=Courier New;" parent="tnBwIVZtzYkU1ia1Uwx9-130" vertex="1">
          <mxGeometry width="240" height="31" as="geometry">
            <mxRectangle width="240" height="31" as="alternateBounds" />
          </mxGeometry>
        </mxCell>
        <mxCell id="tnBwIVZtzYkU1ia1Uwx9-132" value="IE" style="connectable=0;recursiveResize=0;strokeColor=inherit;fillColor=inherit;whiteSpace=wrap;html=1;align=left;spacingLeft=4;fontFamily=Courier New;" parent="tnBwIVZtzYkU1ia1Uwx9-130" vertex="1">
          <mxGeometry x="240" width="287" height="31" as="geometry">
            <mxRectangle width="287" height="31" as="alternateBounds" />
          </mxGeometry>
        </mxCell>
        <mxCell id="tnBwIVZtzYkU1ia1Uwx9-133" value="" style="connectable=0;recursiveResize=0;strokeColor=inherit;fillColor=inherit;whiteSpace=wrap;html=1;align=left;spacingLeft=4;fontFamily=Courier New;" parent="tnBwIVZtzYkU1ia1Uwx9-130" vertex="1">
          <mxGeometry x="527" width="279" height="31" as="geometry">
            <mxRectangle width="279" height="31" as="alternateBounds" />
          </mxGeometry>
        </mxCell>
        <mxCell id="tnBwIVZtzYkU1ia1Uwx9-134" style="shape=tableRow;horizontal=0;startSize=0;swimlaneHead=0;swimlaneBody=0;top=0;left=0;bottom=0;right=0;dropTarget=0;collapsible=0;recursiveResize=0;expand=0;fontStyle=1;strokeColor=inherit;fillColor=#FFFFFF;align=left;spacingLeft=4;fontFamily=Courier New;" parent="tnBwIVZtzYkU1ia1Uwx9-66" vertex="1">
          <mxGeometry y="399" width="806" height="30" as="geometry" />
        </mxCell>
        <mxCell id="tnBwIVZtzYkU1ia1Uwx9-135" value="&lt;div&gt;&lt;span style=&quot;font-size: 7.9701pt; font-family: CharisSIL; color: rgb(0, 0, 0);&quot;&gt;I&lt;/span&gt;&lt;span style=&quot;font-size: 7.9701pt; font-family: CharisSIL; color: rgb(0, 0, 0);&quot;&gt;&lt;/span&gt;&lt;span style=&quot;font-size: 7.9701pt; font-family: CharisSIL; color: rgb(0, 0, 0);&quot;&gt;nformation Container Federation &lt;/span&gt;&lt;span style=&quot;font-size: 7.9701pt; font-family: Times New Roman; color: rgb(0, 0, 0);&quot;&gt;&amp;amp; &lt;/span&gt;&lt;span style=&quot;font-size: 7.9701pt; font-family: CharisSIL; color: rgb(0, 0, 0);&quot;&gt;Delivery&lt;/span&gt;&lt;/div&gt;" style="connectable=0;recursiveResize=0;strokeColor=inherit;fillColor=inherit;whiteSpace=wrap;html=1;align=left;spacingLeft=4;fontFamily=Courier New;" parent="tnBwIVZtzYkU1ia1Uwx9-134" vertex="1">
          <mxGeometry width="240" height="30" as="geometry">
            <mxRectangle width="240" height="30" as="alternateBounds" />
          </mxGeometry>
        </mxCell>
        <mxCell id="tnBwIVZtzYkU1ia1Uwx9-136" value="ICFD" style="connectable=0;recursiveResize=0;strokeColor=inherit;fillColor=inherit;whiteSpace=wrap;html=1;align=left;spacingLeft=4;fontFamily=Courier New;" parent="tnBwIVZtzYkU1ia1Uwx9-134" vertex="1">
          <mxGeometry x="240" width="287" height="30" as="geometry">
            <mxRectangle width="287" height="30" as="alternateBounds" />
          </mxGeometry>
        </mxCell>
        <mxCell id="tnBwIVZtzYkU1ia1Uwx9-137" value="" style="connectable=0;recursiveResize=0;strokeColor=inherit;fillColor=inherit;whiteSpace=wrap;html=1;align=left;spacingLeft=4;fontFamily=Courier New;" parent="tnBwIVZtzYkU1ia1Uwx9-134" vertex="1">
          <mxGeometry x="527" width="279" height="30" as="geometry">
            <mxRectangle width="279" height="30" as="alternateBounds" />
          </mxGeometry>
        </mxCell>
        <mxCell id="tnBwIVZtzYkU1ia1Uwx9-138" style="shape=tableRow;horizontal=0;startSize=0;swimlaneHead=0;swimlaneBody=0;top=0;left=0;bottom=0;right=0;dropTarget=0;collapsible=0;recursiveResize=0;expand=0;fontStyle=1;strokeColor=inherit;fillColor=#FFFFFF;align=left;spacingLeft=4;fontFamily=Courier New;" parent="tnBwIVZtzYkU1ia1Uwx9-66" vertex="1">
          <mxGeometry y="429" width="806" height="31" as="geometry" />
        </mxCell>
        <mxCell id="tnBwIVZtzYkU1ia1Uwx9-139" value="&lt;span style=&quot;font-size: 7.9701pt; font-family: CharisSIL; color: rgb(0, 0, 0);&quot;&gt;Hyperledger Fabric &lt;/span&gt;" style="connectable=0;recursiveResize=0;strokeColor=inherit;fillColor=inherit;whiteSpace=wrap;html=1;align=left;spacingLeft=4;fontFamily=Courier New;" parent="tnBwIVZtzYkU1ia1Uwx9-138" vertex="1">
          <mxGeometry width="240" height="31" as="geometry">
            <mxRectangle width="240" height="31" as="alternateBounds" />
          </mxGeometry>
        </mxCell>
        <mxCell id="tnBwIVZtzYkU1ia1Uwx9-140" value="HF" style="connectable=0;recursiveResize=0;strokeColor=inherit;fillColor=inherit;whiteSpace=wrap;html=1;align=left;spacingLeft=4;fontFamily=Courier New;" parent="tnBwIVZtzYkU1ia1Uwx9-138" vertex="1">
          <mxGeometry x="240" width="287" height="31" as="geometry">
            <mxRectangle width="287" height="31" as="alternateBounds" />
          </mxGeometry>
        </mxCell>
        <mxCell id="tnBwIVZtzYkU1ia1Uwx9-141" value="" style="connectable=0;recursiveResize=0;strokeColor=inherit;fillColor=inherit;whiteSpace=wrap;html=1;align=left;spacingLeft=4;fontFamily=Courier New;" parent="tnBwIVZtzYkU1ia1Uwx9-138" vertex="1">
          <mxGeometry x="527" width="279" height="31" as="geometry">
            <mxRectangle width="279" height="31" as="alternateBounds" />
          </mxGeometry>
        </mxCell>
        <mxCell id="tnBwIVZtzYkU1ia1Uwx9-142" style="shape=tableRow;horizontal=0;startSize=0;swimlaneHead=0;swimlaneBody=0;top=0;left=0;bottom=0;right=0;dropTarget=0;collapsible=0;recursiveResize=0;expand=0;fontStyle=1;strokeColor=inherit;fillColor=#FFFFFF;align=left;spacingLeft=4;fontFamily=Courier New;" parent="tnBwIVZtzYkU1ia1Uwx9-66" vertex="1">
          <mxGeometry y="460" width="806" height="27" as="geometry" />
        </mxCell>
        <mxCell id="tnBwIVZtzYkU1ia1Uwx9-143" value="&lt;span style=&quot;font-size: 7.9701pt; font-family: CharisSIL; color: rgb(0, 0, 0);&quot;&gt;BIM Collaboration Format&lt;/span&gt;" style="connectable=0;recursiveResize=0;strokeColor=inherit;fillColor=inherit;whiteSpace=wrap;html=1;align=left;spacingLeft=4;fontFamily=Courier New;" parent="tnBwIVZtzYkU1ia1Uwx9-142" vertex="1">
          <mxGeometry width="240" height="27" as="geometry">
            <mxRectangle width="240" height="27" as="alternateBounds" />
          </mxGeometry>
        </mxCell>
        <mxCell id="tnBwIVZtzYkU1ia1Uwx9-144" value="BCF" style="connectable=0;recursiveResize=0;strokeColor=inherit;fillColor=inherit;whiteSpace=wrap;html=1;align=left;spacingLeft=4;fontFamily=Courier New;" parent="tnBwIVZtzYkU1ia1Uwx9-142" vertex="1">
          <mxGeometry x="240" width="287" height="27" as="geometry">
            <mxRectangle width="287" height="27" as="alternateBounds" />
          </mxGeometry>
        </mxCell>
        <mxCell id="tnBwIVZtzYkU1ia1Uwx9-145" value="" style="connectable=0;recursiveResize=0;strokeColor=inherit;fillColor=inherit;whiteSpace=wrap;html=1;align=left;spacingLeft=4;fontFamily=Courier New;" parent="tnBwIVZtzYkU1ia1Uwx9-142" vertex="1">
          <mxGeometry x="527" width="279" height="27" as="geometry">
            <mxRectangle width="279" height="27" as="alternateBounds" />
          </mxGeometry>
        </mxCell>
        <mxCell id="tnBwIVZtzYkU1ia1Uwx9-146" style="shape=tableRow;horizontal=0;startSize=0;swimlaneHead=0;swimlaneBody=0;top=0;left=0;bottom=0;right=0;dropTarget=0;collapsible=0;recursiveResize=0;expand=0;fontStyle=1;strokeColor=inherit;fillColor=#FFFFFF;align=left;spacingLeft=4;fontFamily=Courier New;" parent="tnBwIVZtzYkU1ia1Uwx9-66" vertex="1">
          <mxGeometry y="487" width="806" height="31" as="geometry" />
        </mxCell>
        <mxCell id="tnBwIVZtzYkU1ia1Uwx9-147" value="" style="connectable=0;recursiveResize=0;strokeColor=inherit;fillColor=inherit;whiteSpace=wrap;html=1;align=left;spacingLeft=4;fontFamily=Courier New;" parent="tnBwIVZtzYkU1ia1Uwx9-146" vertex="1">
          <mxGeometry width="240" height="31" as="geometry">
            <mxRectangle width="240" height="31" as="alternateBounds" />
          </mxGeometry>
        </mxCell>
        <mxCell id="tnBwIVZtzYkU1ia1Uwx9-148" value="" style="connectable=0;recursiveResize=0;strokeColor=inherit;fillColor=inherit;whiteSpace=wrap;html=1;align=left;spacingLeft=4;fontFamily=Courier New;" parent="tnBwIVZtzYkU1ia1Uwx9-146" vertex="1">
          <mxGeometry x="240" width="287" height="31" as="geometry">
            <mxRectangle width="287" height="31" as="alternateBounds" />
          </mxGeometry>
        </mxCell>
        <mxCell id="tnBwIVZtzYkU1ia1Uwx9-149" value="" style="connectable=0;recursiveResize=0;strokeColor=inherit;fillColor=inherit;whiteSpace=wrap;html=1;align=left;spacingLeft=4;fontFamily=Courier New;" parent="tnBwIVZtzYkU1ia1Uwx9-146" vertex="1">
          <mxGeometry x="527" width="279" height="31" as="geometry">
            <mxRectangle width="279" height="31" as="alternateBounds" />
          </mxGeometry>
        </mxCell>
        <mxCell id="tnBwIVZtzYkU1ia1Uwx9-110" style="shape=tableRow;horizontal=0;startSize=0;swimlaneHead=0;swimlaneBody=0;top=0;left=0;bottom=0;right=0;dropTarget=0;collapsible=0;recursiveResize=0;expand=0;fontStyle=1;strokeColor=inherit;fillColor=#FFFFFF;align=left;spacingLeft=4;fontFamily=Courier New;" parent="tnBwIVZtzYkU1ia1Uwx9-66" vertex="1">
          <mxGeometry y="518" width="806" height="31" as="geometry" />
        </mxCell>
        <mxCell id="tnBwIVZtzYkU1ia1Uwx9-111" value="" style="connectable=0;recursiveResize=0;strokeColor=inherit;fillColor=inherit;whiteSpace=wrap;html=1;align=left;spacingLeft=4;fontFamily=Courier New;" parent="tnBwIVZtzYkU1ia1Uwx9-110" vertex="1">
          <mxGeometry width="240" height="31" as="geometry">
            <mxRectangle width="240" height="31" as="alternateBounds" />
          </mxGeometry>
        </mxCell>
        <mxCell id="tnBwIVZtzYkU1ia1Uwx9-112" value="" style="connectable=0;recursiveResize=0;strokeColor=inherit;fillColor=inherit;whiteSpace=wrap;html=1;align=left;spacingLeft=4;fontFamily=Courier New;" parent="tnBwIVZtzYkU1ia1Uwx9-110" vertex="1">
          <mxGeometry x="240" width="287" height="31" as="geometry">
            <mxRectangle width="287" height="31" as="alternateBounds" />
          </mxGeometry>
        </mxCell>
        <mxCell id="tnBwIVZtzYkU1ia1Uwx9-113" value="" style="connectable=0;recursiveResize=0;strokeColor=inherit;fillColor=inherit;whiteSpace=wrap;html=1;align=left;spacingLeft=4;fontFamily=Courier New;" parent="tnBwIVZtzYkU1ia1Uwx9-110" vertex="1">
          <mxGeometry x="527" width="279" height="31" as="geometry">
            <mxRectangle width="279" height="31" as="alternateBounds" />
          </mxGeometry>
        </mxCell>
        <mxCell id="tnBwIVZtzYkU1ia1Uwx9-106" style="shape=tableRow;horizontal=0;startSize=0;swimlaneHead=0;swimlaneBody=0;top=0;left=0;bottom=0;right=0;dropTarget=0;collapsible=0;recursiveResize=0;expand=0;fontStyle=1;strokeColor=inherit;fillColor=#FFFFFF;align=left;spacingLeft=4;fontFamily=Courier New;" parent="tnBwIVZtzYkU1ia1Uwx9-66" vertex="1">
          <mxGeometry y="549" width="806" height="31" as="geometry" />
        </mxCell>
        <mxCell id="tnBwIVZtzYkU1ia1Uwx9-107" value="" style="connectable=0;recursiveResize=0;strokeColor=inherit;fillColor=inherit;whiteSpace=wrap;html=1;align=left;spacingLeft=4;fontFamily=Courier New;" parent="tnBwIVZtzYkU1ia1Uwx9-106" vertex="1">
          <mxGeometry width="240" height="31" as="geometry">
            <mxRectangle width="240" height="31" as="alternateBounds" />
          </mxGeometry>
        </mxCell>
        <mxCell id="tnBwIVZtzYkU1ia1Uwx9-108" value="" style="connectable=0;recursiveResize=0;strokeColor=inherit;fillColor=inherit;whiteSpace=wrap;html=1;align=left;spacingLeft=4;fontFamily=Courier New;" parent="tnBwIVZtzYkU1ia1Uwx9-106" vertex="1">
          <mxGeometry x="240" width="287" height="31" as="geometry">
            <mxRectangle width="287" height="31" as="alternateBounds" />
          </mxGeometry>
        </mxCell>
        <mxCell id="tnBwIVZtzYkU1ia1Uwx9-109" value="" style="connectable=0;recursiveResize=0;strokeColor=inherit;fillColor=inherit;whiteSpace=wrap;html=1;align=left;spacingLeft=4;fontFamily=Courier New;" parent="tnBwIVZtzYkU1ia1Uwx9-106" vertex="1">
          <mxGeometry x="527" width="279" height="31" as="geometry">
            <mxRectangle width="279" height="31" as="alternateBounds" />
          </mxGeometry>
        </mxCell>
        <mxCell id="tnBwIVZtzYkU1ia1Uwx9-150" value="&lt;p class=&quot;MsoNormal&quot;&gt;&lt;span style=&quot;mso-spacerun:&#39;yes&#39;;font-family:宋体;mso-ascii-font-family:Calibri;&lt;br/&gt;mso-hansi-font-family:Calibri;mso-bidi-font-family:&#39;Times New Roman&#39;;font-size:10.5000pt;&lt;br/&gt;mso-font-kerning:1.0000pt;&quot;&gt;&lt;font face=&quot;宋体&quot;&gt;潜在问题:&lt;br&gt;&lt;/font&gt;&lt;/span&gt;&lt;/p&gt;&lt;p class=&quot;MsoNormal&quot;&gt;&lt;span style=&quot;mso-spacerun:&#39;yes&#39;;font-family:宋体;mso-ascii-font-family:Calibri;&lt;br/&gt;mso-hansi-font-family:Calibri;mso-bidi-font-family:&#39;Times New Roman&#39;;font-size:10.5000pt;&lt;br/&gt;mso-font-kerning:1.0000pt;&quot;&gt;&lt;font face=&quot;宋体&quot;&gt;1) 数据易被内部人员篡改，从而导致数据丢失、效率降低和纠纷&lt;/font&gt;&lt;font face=&quot;宋体&quot;&gt;。&lt;/font&gt;&lt;/span&gt;&lt;/p&gt;&lt;p class=&quot;MsoNormal&quot;&gt;&lt;span style=&quot;mso-spacerun:&#39;yes&#39;;font-family:宋体;mso-ascii-font-family:Calibri;&lt;br/&gt;mso-hansi-font-family:Calibri;mso-bidi-font-family:&#39;Times New Roman&#39;;font-size:10.5000pt;&lt;br/&gt;mso-font-kerning:1.0000pt;&quot;&gt;&lt;font face=&quot;宋体&quot;&gt;2) &lt;/font&gt;&lt;font face=&quot;宋体&quot;&gt;被供应商或黑客单方面控制的风险，他们可能因单点故障或为勒索目的而使系统无被访问&lt;/font&gt;&lt;/span&gt;&lt;span style=&quot;mso-spacerun:&#39;yes&#39;;font-family:宋体;mso-ascii-font-family:Calibri;&lt;br/&gt;mso-hansi-font-family:Calibri;mso-bidi-font-family:&#39;Times New Roman&#39;;font-size:10.5000pt;&lt;br/&gt;mso-font-kerning:1.0000pt;&quot;&gt;&lt;font face=&quot;宋体&quot;&gt;。&lt;/font&gt;&lt;/span&gt;&lt;/p&gt;" style="whiteSpace=wrap;html=1;align=left;verticalAlign=top;" parent="1" vertex="1">
          <mxGeometry x="270" y="730" width="650" height="360" as="geometry" />
        </mxCell>
        <mxCell id="tnBwIVZtzYkU1ia1Uwx9-152" value="&lt;div&gt;&lt;span style=&quot;mso-spacerun:&#39;yes&#39;;font-family:宋体;mso-ascii-font-family:Calibri;&lt;br/&gt;mso-hansi-font-family:Calibri;mso-bidi-font-family:&#39;Times New Roman&#39;;font-size:10.5000pt;&lt;br/&gt;mso-font-kerning:1.0000pt;&quot;&gt;&lt;font face=&quot;宋体&quot;&gt;&amp;nbsp;&amp;nbsp; 集中式&lt;/font&gt;&lt;font face=&quot;Calibri&quot;&gt;BIM&lt;/font&gt;&lt;font face=&quot;宋体&quot;&gt;平台或&lt;/font&gt;&lt;font face=&quot;Calibri&quot;&gt;CDE&amp;nbsp;&amp;nbsp;&amp;nbsp;&amp;nbsp;&amp;nbsp;&amp;nbsp;&amp;nbsp;&amp;nbsp; &lt;br&gt;&lt;/font&gt;&lt;/span&gt;&lt;/div&gt;" style="rounded=0;whiteSpace=wrap;html=1;textDirection=vertical-lr;labelPosition=center;verticalLabelPosition=middle;align=center;verticalAlign=middle;" parent="1" vertex="1">
          <mxGeometry x="195" y="800" width="30" height="220" as="geometry" />
        </mxCell>
        <mxCell id="tnBwIVZtzYkU1ia1Uwx9-153" value="" style="html=1;shadow=0;dashed=0;align=center;verticalAlign=middle;shape=mxgraph.arrows2.arrow;dy=0;dx=30;notch=30;fillColor=#10739E;direction=south;textDirection=vertical-lr;labelPosition=center;verticalLabelPosition=middle;" parent="1" vertex="1">
          <mxGeometry x="180" y="1100" width="60" height="440" as="geometry" />
        </mxCell>
        <mxCell id="tnBwIVZtzYkU1ia1Uwx9-154" value="&lt;p class=&quot;MsoNormal&quot;&gt;&lt;span style=&quot;font-family: 宋体; font-size: 10.5pt; background-color: light-dark(#ffffff, var(--ge-dark-color, #121212));&quot;&gt;&lt;font face=&quot;宋体&quot;&gt;1) 由于区块链&lt;/font&gt;&lt;/span&gt;&lt;span style=&quot;font-family: 宋体; font-size: 10.5pt; background-position: 0% 0%; background-repeat: repeat; background-attachment: scroll; background-image: none; background-size: auto; background-origin: padding-box; background-clip: border-box; background-color: light-dark(#ffffff, var(--ge-dark-color, #121212));&quot;&gt;&lt;font face=&quot;宋体&quot;&gt;区块链具有透明性、可追溯性和不可篡改性，&lt;/font&gt;&lt;/span&gt;&lt;span style=&quot;font-family: 宋体; font-size: 10.5pt; background-color: light-dark(#ffffff, var(--ge-dark-color, #121212));&quot;&gt;&lt;font face=&quot;宋体&quot;&gt;为基于&lt;/font&gt;&lt;font face=&quot;Calibri&quot;&gt;BIM&lt;/font&gt;&lt;font face=&quot;宋体&quot;&gt;的协作提供了一种安全的数据存储范式。&lt;/font&gt;&lt;/span&gt;&lt;/p&gt;&lt;p class=&quot;MsoNormal&quot;&gt;&lt;span style=&quot;font-family: 宋体; font-size: 10.5pt; background-color: light-dark(#ffffff, var(--ge-dark-color, #121212));&quot;&gt;&lt;font face=&quot;宋体&quot;&gt;2) &lt;/font&gt;&lt;/span&gt;&lt;font face=&quot;Calibri&quot;&gt;在 &lt;/font&gt;&lt;span style=&quot;font-family: 宋体; font-size: 10.5pt; background-position: 0% 0%; background-repeat: repeat; background-attachment: scroll; background-image: none; background-size: auto; background-origin: padding-box; background-clip: border-box; background-color: light-dark(#ffffff, var(--ge-dark-color, #121212));&quot;&gt;&lt;font face=&quot;Calibri&quot;&gt;BIM&lt;/font&gt;&lt;font face=&quot;宋体&quot;&gt; 协同设计方面已有应用&lt;/font&gt;&lt;/span&gt;&lt;font face=&quot;宋体&quot;&gt;, &lt;/font&gt;&lt;span style=&quot;font-family: 宋体; font-size: 10.5pt; background-position: 0% 0%; background-repeat: repeat; background-attachment: scroll; background-image: none; background-size: auto; background-origin: padding-box; background-clip: border-box; background-color: light-dark(#ffffff, var(--ge-dark-color, #121212));&quot;&gt;&lt;font face=&quot;宋体&quot;&gt;当前的做法通常是将&lt;/font&gt;&lt;font face=&quot;Calibri&quot;&gt;BIM&lt;/font&gt;&lt;font face=&quot;宋体&quot;&gt;元数据或属性（如模型&lt;/font&gt;&lt;font face=&quot;Calibri&quot;&gt;ID&lt;/font&gt;&lt;font face=&quot;宋体&quot;&gt;、版本、作者和哈希指纹）记录在区块链上，以进行信息广播和验证，因为像&lt;/font&gt;&lt;font face=&quot;Calibri&quot;&gt;BIM&lt;/font&gt;&lt;font face=&quot;宋体&quot;&gt;模型这样的大型数据集由于区块大小限制而无法直接存储在区块链上&lt;/font&gt;&lt;/span&gt;&lt;span style=&quot;font-family: 宋体; font-size: 10.5pt; background-color: light-dark(#ffffff, var(--ge-dark-color, #121212));&quot;&gt;&lt;font face=&quot;宋体&quot;&gt;。&lt;/font&gt;&lt;/span&gt;&lt;/p&gt;&lt;p class=&quot;MsoNormal&quot;&gt;&lt;span style=&quot;font-family: 宋体; font-size: 10.5pt; background-color: light-dark(#ffffff, var(--ge-dark-color, #121212));&quot;&gt;&lt;font face=&quot;宋体&quot;&gt;&lt;br&gt;&lt;/font&gt;&lt;/span&gt;&lt;/p&gt;&lt;p class=&quot;MsoNormal&quot;&gt;&lt;span style=&quot;mso-spacerun:&#39;yes&#39;;font-family:宋体;mso-ascii-font-family:Calibri;&lt;br/&gt;mso-hansi-font-family:Calibri;mso-bidi-font-family:&#39;Times New Roman&#39;;font-size:10.5000pt;&lt;br/&gt;mso-font-kerning:1.0000pt;&quot;&gt;&lt;font face=&quot;宋体&quot;&gt;潜在问题:&lt;/font&gt;&lt;/span&gt;&lt;/p&gt;&lt;p class=&quot;MsoNormal&quot;&gt;&lt;span style=&quot;font-family: 宋体; font-size: 10.5pt; background: rgb(255, 255, 0);&quot;&gt;&lt;font face=&quot;宋体&quot;&gt;在建筑领域，很少有智能合约能够检查和验证输入元数据是否符合特定标准或项目要求。交易准备是一个复杂且易出错的过程&lt;/font&gt;&lt;font face=&quot;宋体&quot;&gt;。尽管智能合约可以“安全”地在区块链上链接交易，但它们并不足够“智能”以检查区块链上共享数据的合规性。&lt;/font&gt;&lt;/span&gt;&lt;/p&gt;&lt;p class=&quot;MsoNormal&quot;&gt;&lt;span style=&quot;font-family: 宋体; font-size: 10.5pt; background: rgb(255, 255, 0);&quot;&gt;&lt;font face=&quot;宋体&quot;&gt;&lt;br&gt;&lt;/font&gt;&lt;/span&gt;&lt;/p&gt;&lt;p class=&quot;MsoNormal&quot;&gt;&lt;span style=&quot;mso-spacerun:&#39;yes&#39;;font-family:宋体;mso-ascii-font-family:Calibri;&lt;br/&gt;mso-hansi-font-family:Calibri;mso-bidi-font-family:&#39;Times New Roman&#39;;font-size:10.5000pt;&lt;br/&gt;mso-font-kerning:1.0000pt;background:rgb(255,255,0);mso-highlight:rgb(255,255,0);&quot;&gt;&lt;font face=&quot;宋体&quot;&gt;阻碍开发更&lt;/font&gt;&lt;font face=&quot;宋体&quot;&gt;“智能”的智能合约的两个挑战包括：&lt;/font&gt;&lt;/span&gt;&lt;/p&gt;&lt;p class=&quot;MsoNormal&quot;&gt;&lt;span style=&quot;mso-spacerun:&#39;yes&#39;;font-family:宋体;mso-ascii-font-family:Calibri;&lt;br/&gt;mso-hansi-font-family:Calibri;mso-bidi-font-family:&#39;Times New Roman&#39;;font-size:10.5000pt;&lt;br/&gt;mso-font-kerning:1.0000pt;background:rgb(255,255,0);mso-highlight:rgb(255,255,0);&quot;&gt;&lt;font face=&quot;宋体&quot;&gt;（&lt;/font&gt;&lt;font face=&quot;Calibri&quot;&gt;1&lt;/font&gt;&lt;font face=&quot;宋体&quot;&gt;）缺乏用于&lt;/font&gt;&lt;font face=&quot;Calibri&quot;&gt;BIM&lt;/font&gt;&lt;font face=&quot;宋体&quot;&gt;信息交换合规性检查的领域知识；&lt;/font&gt;&lt;/span&gt;&lt;/p&gt;&lt;p class=&quot;MsoNormal&quot;&gt;&lt;span style=&quot;mso-spacerun:&#39;yes&#39;;font-family:宋体;mso-ascii-font-family:Calibri;&lt;br/&gt;mso-hansi-font-family:Calibri;mso-bidi-font-family:&#39;Times New Roman&#39;;font-size:10.5000pt;&lt;br/&gt;mso-font-kerning:1.0000pt;background:rgb(255,255,0);mso-highlight:rgb(255,255,0);&quot;&gt;&lt;font face=&quot;宋体&quot;&gt;（&lt;/font&gt;&lt;font face=&quot;Calibri&quot;&gt;2&lt;/font&gt;&lt;font face=&quot;宋体&quot;&gt;）缺少一种在基于&lt;/font&gt;&lt;font face=&quot;Calibri&quot;&gt;BIM&lt;/font&gt;&lt;font face=&quot;宋体&quot;&gt;的设计协作中整合检查规则的智能合约算法。&lt;/font&gt;&lt;/span&gt;&lt;span style=&quot;mso-spacerun:&#39;yes&#39;;font-family:宋体;mso-ascii-font-family:Calibri;&lt;br/&gt;mso-hansi-font-family:Calibri;mso-bidi-font-family:&#39;Times New Roman&#39;;font-size:10.5000pt;&lt;br/&gt;mso-font-kerning:1.0000pt;background:rgb(255,255,0);mso-highlight:rgb(255,255,0);&quot;&gt;&lt;/span&gt;&lt;/p&gt;&lt;p class=&quot;MsoNormal&quot;&gt;&lt;style&gt;@font-face{&lt;br/&gt;font-family:&quot;Times New Roman&quot;;&lt;br/&gt;}@font-face{&lt;br/&gt;font-family:&quot;宋体&quot;;&lt;br/&gt;}@font-face{&lt;br/&gt;font-family:&quot;Calibri&quot;;&lt;br/&gt;}p.MsoNormal{&lt;br/&gt;mso-style-name:正文;&lt;br/&gt;mso-style-parent:&quot;&quot;;&lt;br/&gt;margin:0pt;&lt;br/&gt;margin-bottom:.0001pt;&lt;br/&gt;mso-pagination:none;&lt;br/&gt;text-align:justify;&lt;br/&gt;text-justify:inter-ideograph;&lt;br/&gt;font-family:Calibri;&lt;br/&gt;mso-fareast-font-family:宋体;&lt;br/&gt;mso-bidi-font-family:&#39;Times New Roman&#39;;&lt;br/&gt;font-size:10.5000pt;&lt;br/&gt;mso-font-kerning:1.0000pt;&lt;br/&gt;}span.msoIns{&lt;br/&gt;mso-style-type:export-only;&lt;br/&gt;mso-style-name:&quot;&quot;;&lt;br/&gt;text-decoration:underline;&lt;br/&gt;text-underline:single;&lt;br/&gt;color:blue;&lt;br/&gt;}span.msoDel{&lt;br/&gt;mso-style-type:export-only;&lt;br/&gt;mso-style-name:&quot;&quot;;&lt;br/&gt;text-decoration:line-through;&lt;br/&gt;color:red;&lt;br/&gt;}div.Section0{page:Section0;}&lt;/style&gt;&lt;/p&gt;&lt;p class=&quot;MsoNormal&quot;&gt;&lt;/p&gt;" style="whiteSpace=wrap;html=1;align=left;verticalAlign=top;" parent="1" vertex="1">
          <mxGeometry x="250" y="1080" width="650" height="360" as="geometry" />
        </mxCell>
        <mxCell id="tnBwIVZtzYkU1ia1Uwx9-155" value="&lt;div&gt;&lt;span style=&quot;mso-spacerun:&#39;yes&#39;;font-family:宋体;mso-ascii-font-family:Calibri;&lt;br/&gt;mso-hansi-font-family:Calibri;mso-bidi-font-family:&#39;Times New Roman&#39;;font-size:10.5000pt;&lt;br/&gt;mso-font-kerning:1.0000pt;&quot;&gt;&lt;font face=&quot;宋体&quot;&gt;&amp;nbsp;&amp;nbsp; &lt;/font&gt;&lt;/span&gt;&lt;font face=&quot;Calibri&quot;&gt;区块链与智能合约&lt;/font&gt;&lt;span style=&quot;mso-spacerun:&#39;yes&#39;;font-family:宋体;mso-ascii-font-family:Calibri;&lt;br/&gt;mso-hansi-font-family:Calibri;mso-bidi-font-family:&#39;Times New Roman&#39;;font-size:10.5000pt;&lt;br/&gt;mso-font-kerning:1.0000pt;&quot;&gt;&lt;font face=&quot;Calibri&quot;&gt; &amp;nbsp;&amp;nbsp;&amp;nbsp;&amp;nbsp;&amp;nbsp;&amp;nbsp; &lt;br&gt;&lt;/font&gt;&lt;/span&gt;&lt;/div&gt;" style="rounded=0;whiteSpace=wrap;html=1;textDirection=vertical-lr;labelPosition=center;verticalLabelPosition=middle;align=center;verticalAlign=middle;" parent="1" vertex="1">
          <mxGeometry x="195" y="1190" width="30" height="220" as="geometry" />
        </mxCell>
        <mxCell id="TXJgeYW-8o42WZuSJXYs-1" value="" style="html=1;shadow=0;dashed=0;align=center;verticalAlign=middle;shape=mxgraph.arrows2.arrow;dy=0;dx=30;notch=30;fillColor=#10739E;direction=east;textDirection=vertical-lr;labelPosition=center;verticalLabelPosition=middle;" parent="1" vertex="1">
          <mxGeometry x="179" y="1509" width="1471" height="60" as="geometry" />
        </mxCell>
        <mxCell id="TXJgeYW-8o42WZuSJXYs-2" value="&lt;p class=&quot;MsoNormal&quot;&gt;&lt;span style=&quot;font-family: 宋体; font-size: 10.5pt; background: rgb(255, 255, 0);&quot;&gt;&lt;font face=&quot;宋体&quot;&gt;1) 通过集成合规性检查规则（&lt;/font&gt;&lt;font face=&quot;Calibri&quot;&gt;CCRs&lt;/font&gt;&lt;font face=&quot;宋体&quot;&gt;）来提升传统智能合约，从而在数据记录到区块链之前自动验证和执行&lt;/font&gt;&lt;font face=&quot;Calibri&quot;&gt;BIM&lt;/font&gt;&lt;font face=&quot;宋体&quot;&gt;元数据的合规性。&lt;/font&gt;&lt;/span&gt;&lt;/p&gt;&lt;p class=&quot;MsoNormal&quot;&gt;&lt;span style=&quot;font-family: 宋体; font-size: 10.5pt; background: rgb(255, 255, 0);&quot;&gt;&lt;font face=&quot;宋体&quot;&gt;&lt;br&gt;&lt;/font&gt;&lt;/span&gt;&lt;/p&gt;&lt;p class=&quot;MsoNormal&quot;&gt;&lt;span style=&quot;font-family: 宋体; font-size: 10.5pt; background: rgb(255, 255, 0);&quot;&gt;&lt;font face=&quot;宋体&quot;&gt;难点:&lt;/font&gt;&lt;/span&gt;&lt;/p&gt;&lt;p class=&quot;MsoNormal&quot;&gt;&lt;span style=&quot;mso-spacerun:&#39;yes&#39;;font-family:宋体;mso-ascii-font-family:Calibri;&lt;br/&gt;mso-hansi-font-family:Calibri;mso-bidi-font-family:&#39;Times New Roman&#39;;font-size:10.5000pt;&lt;br/&gt;mso-font-kerning:1.0000pt;&quot;&gt;&lt;font face=&quot;Calibri&quot;&gt;1&lt;/font&gt;&lt;font face=&quot;宋体&quot;&gt;) 在通过区块链协作时，&lt;/font&gt;&lt;font face=&quot;Calibri&quot;&gt;BIM&lt;/font&gt;&lt;font face=&quot;宋体&quot;&gt;元数据的基本&lt;/font&gt;&lt;font face=&quot;Calibri&quot;&gt;CCRs&lt;/font&gt;&lt;font face=&quot;宋体&quot;&gt;是什么？&lt;/font&gt;&lt;/span&gt;&lt;/p&gt;&lt;p class=&quot;MsoNormal&quot;&gt;&lt;span style=&quot;mso-spacerun:&#39;yes&#39;;font-family:宋体;mso-ascii-font-family:Calibri;&lt;br/&gt;mso-hansi-font-family:Calibri;mso-bidi-font-family:&#39;Times New Roman&#39;;font-size:10.5000pt;&lt;br/&gt;mso-font-kerning:1.0000pt;&quot;&gt;&lt;font face=&quot;Calibri&quot;&gt;2&lt;/font&gt;&lt;font face=&quot;宋体&quot;&gt;) 如何将&lt;/font&gt;&lt;font face=&quot;Calibri&quot;&gt;CCRs&lt;/font&gt;&lt;font face=&quot;宋体&quot;&gt;集成到区块链智能合约中，使其变得更智能？&lt;/font&gt;&lt;/span&gt;&lt;/p&gt;&lt;p class=&quot;MsoNormal&quot;&gt;&lt;span style=&quot;mso-spacerun:&#39;yes&#39;;font-family:宋体;mso-ascii-font-family:Calibri;&lt;br/&gt;mso-hansi-font-family:Calibri;mso-bidi-font-family:&#39;Times New Roman&#39;;font-size:10.5000pt;&lt;br/&gt;mso-font-kerning:1.0000pt;&quot;&gt;&lt;font face=&quot;宋体&quot;&gt;&lt;br&gt;&lt;/font&gt;&lt;/span&gt;&lt;/p&gt;&lt;p class=&quot;MsoNormal&quot;&gt;&lt;span style=&quot;mso-spacerun:&#39;yes&#39;;font-family:宋体;mso-ascii-font-family:Calibri;&lt;br/&gt;mso-hansi-font-family:Calibri;mso-bidi-font-family:&#39;Times New Roman&#39;;font-size:10.5000pt;&lt;br/&gt;mso-font-kerning:1.0000pt;&quot;&gt;&lt;font face=&quot;宋体&quot;&gt;为此，本文提出了三个研究目标，以展示知识贡献：&lt;/font&gt;&lt;/span&gt;&lt;span style=&quot;mso-spacerun:&#39;yes&#39;;font-family:宋体;mso-ascii-font-family:Calibri;&lt;br/&gt;mso-hansi-font-family:Calibri;mso-bidi-font-family:&#39;Times New Roman&#39;;font-size:10.5000pt;&lt;br/&gt;mso-font-kerning:1.0000pt;&quot;&gt;&lt;/span&gt;&lt;/p&gt;&lt;p class=&quot;MsoNormal&quot;&gt;&lt;span style=&quot;mso-spacerun:&#39;yes&#39;;font-family:宋体;mso-ascii-font-family:Calibri;&lt;br/&gt;mso-hansi-font-family:Calibri;mso-bidi-font-family:&#39;Times New Roman&#39;;font-size:10.5000pt;&lt;br/&gt;mso-font-kerning:1.0000pt;&quot;&gt;&lt;font face=&quot;宋体&quot;&gt;•提出一个区块链支持的通用数据环境（&lt;/font&gt;&lt;font face=&quot;Calibri&quot;&gt;BECDE&lt;/font&gt;&lt;font face=&quot;宋体&quot;&gt;）框架。&lt;/font&gt;&lt;font face=&quot;Calibri&quot;&gt;CDE&lt;/font&gt;&lt;font face=&quot;宋体&quot;&gt;由&lt;/font&gt;&lt;font face=&quot;Calibri&quot;&gt;ISO 19650&lt;/font&gt;&lt;font face=&quot;宋体&quot;&gt;标准推荐，为&lt;/font&gt;&lt;font face=&quot;Calibri&quot;&gt;BIM&lt;/font&gt;&lt;font face=&quot;宋体&quot;&gt;数据的存储和管理提供了一个标准化和通用的工作流程。随着&lt;/font&gt;&lt;font face=&quot;Calibri&quot;&gt;CDE&lt;/font&gt;&lt;font face=&quot;宋体&quot;&gt;在&lt;/font&gt;&lt;font face=&quot;Calibri&quot;&gt;BIM&lt;/font&gt;&lt;font face=&quot;宋体&quot;&gt;设计协作中的日益普及，本文将提出一个&lt;/font&gt;&lt;font face=&quot;Calibri&quot;&gt;BECDE&lt;/font&gt;&lt;font face=&quot;宋体&quot;&gt;框架，以在&lt;/font&gt;&lt;font face=&quot;Calibri&quot;&gt;CDE&lt;/font&gt;&lt;font face=&quot;宋体&quot;&gt;内集成区块链、智能合约和知识图谱（&lt;/font&gt;&lt;font face=&quot;Calibri&quot;&gt;KG&lt;/font&gt;&lt;font face=&quot;宋体&quot;&gt;）。此集成的目的是（&lt;/font&gt;&lt;font face=&quot;Calibri&quot;&gt;1&lt;/font&gt;&lt;font face=&quot;宋体&quot;&gt;）说明&lt;/font&gt;&lt;font face=&quot;Calibri&quot;&gt;KG&lt;/font&gt;&lt;font face=&quot;宋体&quot;&gt;如何协助生成&lt;/font&gt;&lt;font face=&quot;Calibri&quot;&gt;CCRs&lt;/font&gt;&lt;font face=&quot;宋体&quot;&gt;，（&lt;/font&gt;&lt;font face=&quot;Calibri&quot;&gt;2&lt;/font&gt;&lt;font face=&quot;宋体&quot;&gt;）确定需要进行合规性检查的活动，以及（&lt;/font&gt;&lt;font face=&quot;Calibri&quot;&gt;3&lt;/font&gt;&lt;font face=&quot;宋体&quot;&gt;）确定交易中需要检查的元数据。&lt;/font&gt;&lt;/span&gt;&lt;span style=&quot;mso-spacerun:&#39;yes&#39;;font-family:宋体;mso-ascii-font-family:Calibri;&lt;br/&gt;mso-hansi-font-family:Calibri;mso-bidi-font-family:&#39;Times New Roman&#39;;font-size:10.5000pt;&lt;br/&gt;mso-font-kerning:1.0000pt;&quot;&gt;&lt;/span&gt;&lt;/p&gt;&lt;p class=&quot;MsoNormal&quot;&gt;&lt;span style=&quot;mso-spacerun:&#39;yes&#39;;font-family:宋体;mso-ascii-font-family:Calibri;&lt;br/&gt;mso-hansi-font-family:Calibri;mso-bidi-font-family:&#39;Times New Roman&#39;;font-size:10.5000pt;&lt;br/&gt;mso-font-kerning:1.0000pt;&quot;&gt;&lt;font face=&quot;宋体&quot;&gt;•基于&lt;/font&gt;&lt;font face=&quot;Calibri&quot;&gt;ISO 19650 KG&lt;/font&gt;&lt;font face=&quot;宋体&quot;&gt;生成&lt;/font&gt;&lt;font face=&quot;Calibri&quot;&gt;CCRs&lt;/font&gt;&lt;font face=&quot;宋体&quot;&gt;。&lt;/font&gt;&lt;font face=&quot;Calibri&quot;&gt;ISO 19650&lt;/font&gt;&lt;font face=&quot;宋体&quot;&gt;标准为&lt;/font&gt;&lt;font face=&quot;Calibri&quot;&gt;BIM&lt;/font&gt;&lt;font face=&quot;宋体&quot;&gt;元数据交换提供了全面的规定、惯例和指南。然而，将这些标准转换为机器可读的&lt;/font&gt;&lt;font face=&quot;Calibri&quot;&gt;CCRs&lt;/font&gt;&lt;font face=&quot;宋体&quot;&gt;仍然是一个挑战。利用第一个目标中确定的活动，将在&lt;/font&gt;&lt;font face=&quot;Calibri&quot;&gt;ISO 19650&lt;/font&gt;&lt;font face=&quot;宋体&quot;&gt;标准的基础上开发&lt;/font&gt;&lt;font face=&quot;Calibri&quot;&gt;KG&lt;/font&gt;&lt;font face=&quot;宋体&quot;&gt;，以生成和推理&lt;/font&gt;&lt;font face=&quot;Calibri&quot;&gt;CCRs&lt;/font&gt;&lt;font face=&quot;宋体&quot;&gt;。&lt;/font&gt;&lt;/span&gt;&lt;span style=&quot;mso-spacerun:&#39;yes&#39;;font-family:宋体;mso-ascii-font-family:Calibri;&lt;br/&gt;mso-hansi-font-family:Calibri;mso-bidi-font-family:&#39;Times New Roman&#39;;font-size:10.5000pt;&lt;br/&gt;mso-font-kerning:1.0000pt;&quot;&gt;&lt;/span&gt;&lt;/p&gt;&lt;p class=&quot;MsoNormal&quot;&gt;&lt;span style=&quot;mso-spacerun:&#39;yes&#39;;font-family:宋体;mso-ascii-font-family:Calibri;&lt;br/&gt;mso-hansi-font-family:Calibri;mso-bidi-font-family:&#39;Times New Roman&#39;;font-size:10.5000pt;&lt;br/&gt;mso-font-kerning:1.0000pt;&quot;&gt;&lt;font face=&quot;宋体&quot;&gt;•开发和评估更智能的智能合约（&lt;/font&gt;&lt;font face=&quot;Calibri&quot;&gt;SSC&lt;/font&gt;&lt;font face=&quot;宋体&quot;&gt;）。通过纳入&lt;/font&gt;&lt;font face=&quot;Calibri&quot;&gt;CCRs&lt;/font&gt;&lt;font face=&quot;宋体&quot;&gt;，将创建新的&lt;/font&gt;&lt;font face=&quot;Calibri&quot;&gt;SSC&lt;/font&gt;&lt;font face=&quot;宋体&quot;&gt;算法。然后，将在&lt;/font&gt;&lt;font face=&quot;Calibri&quot;&gt;BIM&lt;/font&gt;&lt;font face=&quot;宋体&quot;&gt;设计场景中验证&lt;/font&gt;&lt;font face=&quot;Calibri&quot;&gt;SSC&lt;/font&gt;&lt;font face=&quot;宋体&quot;&gt;，以评估其性能与现有&lt;/font&gt;&lt;font face=&quot;Calibri&quot;&gt;BIM&lt;/font&gt;&lt;font face=&quot;宋体&quot;&gt;智能合约相比如何。&lt;/font&gt;&lt;/span&gt;&lt;span style=&quot;mso-spacerun:&#39;yes&#39;;font-family:宋体;mso-ascii-font-family:Calibri;&lt;br/&gt;mso-hansi-font-family:Calibri;mso-bidi-font-family:&#39;Times New Roman&#39;;font-size:10.5000pt;&lt;br/&gt;mso-font-kerning:1.0000pt;&quot;&gt;&lt;/span&gt;&lt;/p&gt;&lt;p class=&quot;MsoNormal&quot;&gt;&lt;style&gt;@font-face{&lt;br/&gt;font-family:&quot;Times New Roman&quot;;&lt;br/&gt;}@font-face{&lt;br/&gt;font-family:&quot;宋体&quot;;&lt;br/&gt;}@font-face{&lt;br/&gt;font-family:&quot;Calibri&quot;;&lt;br/&gt;}p.MsoNormal{&lt;br/&gt;mso-style-name:正文;&lt;br/&gt;mso-style-parent:&quot;&quot;;&lt;br/&gt;margin:0pt;&lt;br/&gt;margin-bottom:.0001pt;&lt;br/&gt;mso-pagination:none;&lt;br/&gt;text-align:justify;&lt;br/&gt;text-justify:inter-ideograph;&lt;br/&gt;font-family:Calibri;&lt;br/&gt;mso-fareast-font-family:宋体;&lt;br/&gt;mso-bidi-font-family:&#39;Times New Roman&#39;;&lt;br/&gt;font-size:10.5000pt;&lt;br/&gt;mso-font-kerning:1.0000pt;&lt;br/&gt;}span.msoIns{&lt;br/&gt;mso-style-type:export-only;&lt;br/&gt;mso-style-name:&quot;&quot;;&lt;br/&gt;text-decoration:underline;&lt;br/&gt;text-underline:single;&lt;br/&gt;color:blue;&lt;br/&gt;}span.msoDel{&lt;br/&gt;mso-style-type:export-only;&lt;br/&gt;mso-style-name:&quot;&quot;;&lt;br/&gt;text-decoration:line-through;&lt;br/&gt;color:red;&lt;br/&gt;}div.Section0{page:Section0;}&lt;/style&gt;&lt;span style=&quot;mso-spacerun:&#39;yes&#39;;font-family:宋体;mso-ascii-font-family:Calibri;&lt;br/&gt;mso-hansi-font-family:Calibri;mso-bidi-font-family:&#39;Times New Roman&#39;;font-size:10.5000pt;&lt;br/&gt;mso-font-kerning:1.0000pt;&quot;&gt;&lt;/span&gt;&lt;/p&gt;&lt;p class=&quot;MsoNormal&quot;&gt;&lt;/p&gt;&lt;p class=&quot;MsoNormal&quot;&gt;&lt;span style=&quot;font-family: 宋体; font-size: 10.5pt; background: rgb(255, 255, 0);&quot;&gt;&lt;font face=&quot;宋体&quot;&gt;&lt;br&gt;&lt;/font&gt;&lt;/span&gt;&lt;/p&gt;" style="whiteSpace=wrap;html=1;align=left;verticalAlign=top;" parent="1" vertex="1">
          <mxGeometry x="970" y="1020" width="650" height="470" as="geometry" />
        </mxCell>
        <UserObject label="&lt;div&gt;&lt;span style=&quot;mso-spacerun:&#39;yes&#39;;font-family:宋体;mso-ascii-font-family:Calibri;&lt;br/&gt;mso-hansi-font-family:Calibri;mso-bidi-font-family:&#39;Times New Roman&#39;;font-size:10.5000pt;&lt;br/&gt;mso-font-kerning:1.0000pt;&quot;&gt;&lt;font face=&quot;宋体&quot;&gt;&amp;nbsp;&amp;nbsp; &lt;/font&gt;&lt;/span&gt;&lt;font face=&quot;Calibri&quot;&gt;CCR&amp;nbsp; &lt;/font&gt;&lt;span style=&quot;mso-spacerun:&#39;yes&#39;;font-family:宋体;mso-ascii-font-family:Calibri;&lt;br/&gt;mso-hansi-font-family:Calibri;mso-bidi-font-family:&#39;Times New Roman&#39;;font-size:10.5000pt;&lt;br/&gt;mso-font-kerning:1.0000pt;&quot;&gt;&lt;font face=&quot;Calibri&quot;&gt;&lt;br&gt;&lt;/font&gt;&lt;/span&gt;&lt;/div&gt;" tooltip="Compliance Checking Rule &#xa;合规性检测" id="TXJgeYW-8o42WZuSJXYs-3">
          <mxCell style="rounded=0;whiteSpace=wrap;html=1;labelPosition=center;verticalLabelPosition=middle;align=center;verticalAlign=middle;direction=north;" parent="1" vertex="1">
            <mxGeometry x="420" y="1524" width="330" height="30" as="geometry" />
          </mxCell>
        </UserObject>
        <UserObject label="&lt;div&gt;&lt;span style=&quot;mso-spacerun:&#39;yes&#39;;font-family:宋体;mso-ascii-font-family:Calibri;&lt;br/&gt;mso-hansi-font-family:Calibri;mso-bidi-font-family:&#39;Times New Roman&#39;;font-size:10.5000pt;&lt;br/&gt;mso-font-kerning:1.0000pt;&quot;&gt;&lt;font face=&quot;宋体&quot;&gt;&amp;nbsp;&amp;nbsp; &lt;/font&gt;&lt;/span&gt;&lt;font face=&quot;Calibri&quot;&gt;KG&lt;/font&gt;&lt;span style=&quot;mso-spacerun:&#39;yes&#39;;font-family:宋体;mso-ascii-font-family:Calibri;&lt;br/&gt;mso-hansi-font-family:Calibri;mso-bidi-font-family:&#39;Times New Roman&#39;;font-size:10.5000pt;&lt;br/&gt;mso-font-kerning:1.0000pt;&quot;&gt;&lt;font face=&quot;Calibri&quot;&gt; &amp;nbsp;&amp;nbsp;&amp;nbsp;&amp;nbsp; &lt;br&gt;&lt;/font&gt;&lt;/span&gt;&lt;/div&gt;" tooltip="知识图谱 " id="TXJgeYW-8o42WZuSJXYs-5">
          <mxCell style="rounded=0;whiteSpace=wrap;html=1;textDirection=vertical-lr;labelPosition=center;verticalLabelPosition=middle;align=center;verticalAlign=middle;" parent="1" vertex="1">
            <mxGeometry x="285" y="1600" width="30" height="220" as="geometry" />
          </mxCell>
        </UserObject>
        <mxCell id="TXJgeYW-8o42WZuSJXYs-6" value="&lt;font style=&quot;font-size: 14px;&quot;&gt;步骤1&lt;/font&gt;" style="rounded=1;whiteSpace=wrap;html=1;labelPosition=center;verticalLabelPosition=middle;align=center;verticalAlign=middle;fillColor=#FF8000;strokeColor=none;fontColor=#FFFFFF;fontSize=12;fontStyle=1;horizontal=0;" parent="1" vertex="1">
          <mxGeometry x="380" y="1660" width="30" height="230" as="geometry" />
        </mxCell>
        <mxCell id="TXJgeYW-8o42WZuSJXYs-13" value="" style="rounded=1;whiteSpace=wrap;html=1;arcSize=7;fillColor=#f5f5f5;fontColor=#333333;strokeColor=none;" parent="1" vertex="1">
          <mxGeometry x="525" y="1670" width="495" height="210" as="geometry" />
        </mxCell>
        <mxCell id="TXJgeYW-8o42WZuSJXYs-15" value="" style="whiteSpace=wrap;html=1;aspect=fixed;rounded=1;fillColor=#fff2cc;strokeColor=#d6b656;" parent="1" vertex="1">
          <mxGeometry x="560" y="1698" width="30" height="30" as="geometry" />
        </mxCell>
        <mxCell id="TXJgeYW-8o42WZuSJXYs-19" style="edgeStyle=orthogonalEdgeStyle;rounded=0;orthogonalLoop=1;jettySize=auto;html=1;exitX=0;exitY=0.5;exitDx=0;exitDy=0;entryX=1;entryY=0.5;entryDx=0;entryDy=0;fillColor=#fff2cc;strokeColor=#d6b656;" parent="1" source="TXJgeYW-8o42WZuSJXYs-16" target="TXJgeYW-8o42WZuSJXYs-15" edge="1">
          <mxGeometry relative="1" as="geometry" />
        </mxCell>
        <mxCell id="TXJgeYW-8o42WZuSJXYs-16" value="" style="whiteSpace=wrap;html=1;aspect=fixed;rounded=1;fillColor=#f5f5f5;strokeColor=#666666;fontColor=#333333;" parent="1" vertex="1">
          <mxGeometry x="620" y="1698" width="30" height="30" as="geometry" />
        </mxCell>
        <mxCell id="TXJgeYW-8o42WZuSJXYs-17" value="" style="whiteSpace=wrap;html=1;aspect=fixed;rounded=1;fillColor=#ffe6cc;strokeColor=#d79b00;" parent="1" vertex="1">
          <mxGeometry x="560" y="1751" width="30" height="30" as="geometry" />
        </mxCell>
        <mxCell id="TXJgeYW-8o42WZuSJXYs-18" value="" style="whiteSpace=wrap;html=1;aspect=fixed;rounded=1;fillColor=#dae8fc;strokeColor=#6c8ebf;" parent="1" vertex="1">
          <mxGeometry x="620" y="1751" width="30" height="30" as="geometry" />
        </mxCell>
        <mxCell id="TXJgeYW-8o42WZuSJXYs-20" value="" style="endArrow=classic;html=1;rounded=0;exitX=0.5;exitY=1;exitDx=0;exitDy=0;entryX=0.5;entryY=0;entryDx=0;entryDy=0;fillColor=#ffe6cc;strokeColor=#d79b00;" parent="1" source="TXJgeYW-8o42WZuSJXYs-15" target="TXJgeYW-8o42WZuSJXYs-17" edge="1">
          <mxGeometry width="50" height="50" relative="1" as="geometry">
            <mxPoint x="690" y="1808" as="sourcePoint" />
            <mxPoint x="740" y="1758" as="targetPoint" />
          </mxGeometry>
        </mxCell>
        <mxCell id="TXJgeYW-8o42WZuSJXYs-21" value="" style="endArrow=classic;html=1;rounded=0;exitX=1;exitY=0.5;exitDx=0;exitDy=0;entryX=0;entryY=0.5;entryDx=0;entryDy=0;fillColor=#dae8fc;strokeColor=#6c8ebf;" parent="1" source="TXJgeYW-8o42WZuSJXYs-17" target="TXJgeYW-8o42WZuSJXYs-18" edge="1">
          <mxGeometry width="50" height="50" relative="1" as="geometry">
            <mxPoint x="585" y="1738" as="sourcePoint" />
            <mxPoint x="585" y="1761" as="targetPoint" />
          </mxGeometry>
        </mxCell>
        <UserObject label="CDE" tooltip="Common Data Environment " id="TXJgeYW-8o42WZuSJXYs-22">
          <mxCell style="text;html=1;align=center;verticalAlign=middle;whiteSpace=wrap;rounded=0;fontStyle=3;labelBorderColor=none;" parent="1" vertex="1">
            <mxGeometry x="577" y="1725" width="60" height="30" as="geometry" />
          </mxCell>
        </UserObject>
        <mxCell id="TXJgeYW-8o42WZuSJXYs-37" value="" style="image;aspect=fixed;html=1;points=[];align=center;fontSize=12;image=img/lib/azure2/internet_of_things/Time_Series_Insights_Access_Policies.svg;" parent="1" vertex="1">
          <mxGeometry x="1560" y="2850" width="16.06" height="26" as="geometry" />
        </mxCell>
        <mxCell id="TXJgeYW-8o42WZuSJXYs-38" value="" style="sketch=0;html=1;aspect=fixed;strokeColor=none;shadow=0;fillColor=#FF8000;verticalAlign=top;labelPosition=center;verticalLabelPosition=bottom;shape=mxgraph.gcp2.arrow_cycle" parent="1" vertex="1">
          <mxGeometry x="1550" y="2930" width="25" height="23.75" as="geometry" />
        </mxCell>
        <mxCell id="TXJgeYW-8o42WZuSJXYs-103" value="" style="group;aspect=fixed;" parent="1" vertex="1" connectable="0">
          <mxGeometry x="700" y="1689" width="138" height="94.53" as="geometry" />
        </mxCell>
        <mxCell id="TXJgeYW-8o42WZuSJXYs-102" value="" style="rounded=1;whiteSpace=wrap;html=1;fillColor=#dae8fc;strokeColor=none;" parent="TXJgeYW-8o42WZuSJXYs-103" vertex="1">
          <mxGeometry width="138" height="94.53" as="geometry" />
        </mxCell>
        <mxCell id="TXJgeYW-8o42WZuSJXYs-47" value="" style="group" parent="TXJgeYW-8o42WZuSJXYs-103" vertex="1" connectable="0">
          <mxGeometry x="49.780821917808225" y="49.7858" width="63.01369863013695" height="37.812000000000005" as="geometry" />
        </mxCell>
        <UserObject label="" tooltip="" id="TXJgeYW-8o42WZuSJXYs-48">
          <mxCell style="rounded=1;whiteSpace=wrap;html=1;fillColor=#dae8fc;strokeColor=#6c8ebf;" parent="TXJgeYW-8o42WZuSJXYs-47" vertex="1">
            <mxGeometry width="63.01369863013695" height="37.812000000000005" as="geometry" />
          </mxCell>
        </UserObject>
        <UserObject label="&lt;i style=&quot;color: rgb(16, 115, 158);&quot;&gt;&lt;b&gt;KG&lt;/b&gt;&lt;/i&gt;" tooltip="Knowledge Gragh&#xa;知识图谱" id="TXJgeYW-8o42WZuSJXYs-49">
          <mxCell style="text;html=1;align=center;verticalAlign=middle;whiteSpace=wrap;rounded=0;" parent="TXJgeYW-8o42WZuSJXYs-47" vertex="1">
            <mxGeometry x="5.04109589041096" y="8.192600000000004" width="24.575342465753458" height="18.906000000000002" as="geometry" />
          </mxCell>
        </UserObject>
        <mxCell id="TXJgeYW-8o42WZuSJXYs-79" value="" style="group;aspect=fixed;" parent="TXJgeYW-8o42WZuSJXYs-103" vertex="1" connectable="0">
          <mxGeometry x="80.02739726027387" y="57.97840000000005" width="20.131439971255517" height="21.43998356938712" as="geometry" />
        </mxCell>
        <mxCell id="TXJgeYW-8o42WZuSJXYs-52" value="" style="ellipse;whiteSpace=wrap;html=1;aspect=fixed;fillColor=#f0a30a;strokeColor=#BD7000;fontColor=#000000;" parent="TXJgeYW-8o42WZuSJXYs-79" vertex="1">
          <mxGeometry x="3.774644994610408" width="3.77266895935533" height="3.77266895935533" as="geometry" />
        </mxCell>
        <mxCell id="TXJgeYW-8o42WZuSJXYs-63" value="" style="ellipse;whiteSpace=wrap;html=1;aspect=fixed;fillColor=#0050ef;strokeColor=#001DBC;fontColor=#ffffff;" parent="TXJgeYW-8o42WZuSJXYs-79" vertex="1">
          <mxGeometry x="16.356794976645112" y="8.828228528571175" width="3.77266895935533" height="3.77266895935533" as="geometry" />
        </mxCell>
        <mxCell id="TXJgeYW-8o42WZuSJXYs-64" value="" style="ellipse;whiteSpace=wrap;html=1;aspect=fixed;fillColor=#d80073;strokeColor=#A50040;fontColor=#ffffff;" parent="TXJgeYW-8o42WZuSJXYs-79" vertex="1">
          <mxGeometry x="12.5821499820347" width="3.77266895935533" height="3.77266895935533" as="geometry" />
        </mxCell>
        <mxCell id="TXJgeYW-8o42WZuSJXYs-65" value="" style="ellipse;whiteSpace=wrap;html=1;aspect=fixed;fillColor=#0050ef;strokeColor=#001DBC;fontColor=#ffffff;" parent="TXJgeYW-8o42WZuSJXYs-79" vertex="1">
          <mxGeometry y="8.828228528571175" width="3.77266895935533" height="3.77266895935533" as="geometry" />
        </mxCell>
        <mxCell id="TXJgeYW-8o42WZuSJXYs-66" value="" style="ellipse;whiteSpace=wrap;html=1;aspect=fixed;fillColor=#d80073;strokeColor=#A50040;fontColor=#ffffff;" parent="TXJgeYW-8o42WZuSJXYs-79" vertex="1">
          <mxGeometry x="3.774644994610408" y="17.65645705714235" width="3.77266895935533" height="3.77266895935533" as="geometry" />
        </mxCell>
        <mxCell id="TXJgeYW-8o42WZuSJXYs-67" value="" style="ellipse;whiteSpace=wrap;html=1;aspect=fixed;fillColor=#f0a30a;strokeColor=#BD7000;fontColor=#000000;" parent="TXJgeYW-8o42WZuSJXYs-79" vertex="1">
          <mxGeometry x="12.5821499820347" y="17.65645705714235" width="3.77266895935533" height="3.77266895935533" as="geometry" />
        </mxCell>
        <mxCell id="TXJgeYW-8o42WZuSJXYs-71" value="" style="endArrow=none;html=1;rounded=0;entryX=0;entryY=1;entryDx=0;entryDy=0;exitX=0.5;exitY=0;exitDx=0;exitDy=0;strokeWidth=1;fillColor=#dae8fc;strokeColor=#6c8ebf;" parent="TXJgeYW-8o42WZuSJXYs-79" source="TXJgeYW-8o42WZuSJXYs-65" target="TXJgeYW-8o42WZuSJXYs-52" edge="1">
          <mxGeometry width="50" height="50" relative="1" as="geometry">
            <mxPoint x="46.55395493352835" y="-8.828228528571175" as="sourcePoint" />
            <mxPoint x="59.13610491556312" y="-21.43998356938712" as="targetPoint" />
          </mxGeometry>
        </mxCell>
        <mxCell id="TXJgeYW-8o42WZuSJXYs-72" value="" style="endArrow=none;html=1;rounded=0;entryX=0;entryY=1;entryDx=0;entryDy=0;exitX=1;exitY=0;exitDx=0;exitDy=0;strokeWidth=1;fillColor=#dae8fc;strokeColor=#6c8ebf;" parent="TXJgeYW-8o42WZuSJXYs-79" source="TXJgeYW-8o42WZuSJXYs-65" target="TXJgeYW-8o42WZuSJXYs-64" edge="1">
          <mxGeometry width="50" height="50" relative="1" as="geometry">
            <mxPoint x="4.529573993532498" y="11.350579536734358" as="sourcePoint" />
            <mxPoint x="6.79436099029874" y="5.80140731877534" as="targetPoint" />
          </mxGeometry>
        </mxCell>
        <mxCell id="TXJgeYW-8o42WZuSJXYs-73" value="" style="endArrow=none;html=1;rounded=0;exitX=1;exitY=1;exitDx=0;exitDy=0;strokeWidth=1;fillColor=#dae8fc;strokeColor=#6c8ebf;entryX=0;entryY=0.5;entryDx=0;entryDy=0;" parent="TXJgeYW-8o42WZuSJXYs-79" source="TXJgeYW-8o42WZuSJXYs-65" target="TXJgeYW-8o42WZuSJXYs-67" edge="1">
          <mxGeometry width="50" height="50" relative="1" as="geometry">
            <mxPoint x="5.787788991735964" y="11.855049738367006" as="sourcePoint" />
            <mxPoint x="11.323934983831222" y="18.91763256122395" as="targetPoint" />
          </mxGeometry>
        </mxCell>
        <mxCell id="TXJgeYW-8o42WZuSJXYs-74" value="" style="endArrow=none;html=1;rounded=0;entryX=0;entryY=0;entryDx=0;entryDy=0;exitX=0.5;exitY=1;exitDx=0;exitDy=0;fillColor=#dae8fc;strokeColor=#6c8ebf;strokeWidth=1;" parent="TXJgeYW-8o42WZuSJXYs-79" source="TXJgeYW-8o42WZuSJXYs-65" target="TXJgeYW-8o42WZuSJXYs-66" edge="1">
          <mxGeometry width="50" height="50" relative="1" as="geometry">
            <mxPoint x="5.787788991735964" y="14.629635847346517" as="sourcePoint" />
            <mxPoint x="15.601865977723017" y="20.683278266938164" as="targetPoint" />
          </mxGeometry>
        </mxCell>
        <mxCell id="TXJgeYW-8o42WZuSJXYs-75" value="" style="endArrow=none;html=1;rounded=0;entryX=0;entryY=0;entryDx=0;entryDy=0;exitX=1;exitY=1;exitDx=0;exitDy=0;strokeWidth=1;fillColor=#dae8fc;strokeColor=#6c8ebf;" parent="TXJgeYW-8o42WZuSJXYs-79" source="TXJgeYW-8o42WZuSJXYs-52" target="TXJgeYW-8o42WZuSJXYs-63" edge="1">
          <mxGeometry width="50" height="50" relative="1" as="geometry">
            <mxPoint x="4.529573993532498" y="11.350579536734358" as="sourcePoint" />
            <mxPoint x="6.79436099029874" y="5.80140731877534" as="targetPoint" />
          </mxGeometry>
        </mxCell>
        <mxCell id="TXJgeYW-8o42WZuSJXYs-76" value="" style="endArrow=none;html=1;rounded=0;entryX=0.5;entryY=1;entryDx=0;entryDy=0;exitX=1;exitY=0;exitDx=0;exitDy=0;strokeWidth=1;fillColor=#dae8fc;strokeColor=#6c8ebf;" parent="TXJgeYW-8o42WZuSJXYs-79" source="TXJgeYW-8o42WZuSJXYs-67" target="TXJgeYW-8o42WZuSJXYs-63" edge="1">
          <mxGeometry width="50" height="50" relative="1" as="geometry">
            <mxPoint x="7.046003989939426" y="13.872930544897558" as="sourcePoint" />
            <mxPoint x="9.310790986705682" y="8.323758326938535" as="targetPoint" />
          </mxGeometry>
        </mxCell>
        <mxCell id="TXJgeYW-8o42WZuSJXYs-77" value="" style="endArrow=none;html=1;rounded=0;entryX=0.5;entryY=0;entryDx=0;entryDy=0;exitX=1;exitY=1;exitDx=0;exitDy=0;strokeWidth=1;fillColor=#dae8fc;strokeColor=#6c8ebf;" parent="TXJgeYW-8o42WZuSJXYs-79" source="TXJgeYW-8o42WZuSJXYs-64" target="TXJgeYW-8o42WZuSJXYs-63" edge="1">
          <mxGeometry width="50" height="50" relative="1" as="geometry">
            <mxPoint x="9.562433986346356" y="16.395281553060762" as="sourcePoint" />
            <mxPoint x="11.827220983112616" y="10.846109335101733" as="targetPoint" />
          </mxGeometry>
        </mxCell>
        <mxCell id="TXJgeYW-8o42WZuSJXYs-78" value="" style="endArrow=none;html=1;rounded=0;entryX=0;entryY=1;entryDx=0;entryDy=0;exitX=1;exitY=0.5;exitDx=0;exitDy=0;strokeWidth=1;fillColor=#dae8fc;strokeColor=#6c8ebf;" parent="TXJgeYW-8o42WZuSJXYs-79" source="TXJgeYW-8o42WZuSJXYs-66" target="TXJgeYW-8o42WZuSJXYs-63" edge="1">
          <mxGeometry width="50" height="50" relative="1" as="geometry">
            <mxPoint x="12.078863982753312" y="18.91763256122395" as="sourcePoint" />
            <mxPoint x="14.343650979519543" y="13.368460343264925" as="targetPoint" />
          </mxGeometry>
        </mxCell>
        <UserObject label="&lt;font style=&quot;font-size: 14px; color: rgb(16, 115, 158);&quot;&gt;&lt;b&gt;&lt;i&gt;&lt;font&gt;SSC&lt;/font&gt;&lt;/i&gt;&lt;/b&gt;&lt;/font&gt;" tooltip="Smarter Smart Contract " id="TXJgeYW-8o42WZuSJXYs-80">
          <mxCell style="text;html=1;align=center;verticalAlign=middle;whiteSpace=wrap;rounded=0;" parent="TXJgeYW-8o42WZuSJXYs-103" vertex="1">
            <mxGeometry x="7.561643835616424" y="35.78275599999986" width="37.808219178082226" height="18.906000000000002" as="geometry" />
          </mxCell>
        </UserObject>
        <mxCell id="TXJgeYW-8o42WZuSJXYs-94" value="" style="group" parent="TXJgeYW-8o42WZuSJXYs-103" vertex="1" connectable="0">
          <mxGeometry x="49.780821917808225" y="5.671799999999998" width="63.01369863013695" height="37.812000000000005" as="geometry" />
        </mxCell>
        <mxCell id="TXJgeYW-8o42WZuSJXYs-46" value="" style="group" parent="TXJgeYW-8o42WZuSJXYs-94" vertex="1" connectable="0">
          <mxGeometry width="63.01369863013695" height="37.812000000000005" as="geometry" />
        </mxCell>
        <UserObject label="" tooltip="" id="TXJgeYW-8o42WZuSJXYs-43">
          <mxCell style="rounded=1;whiteSpace=wrap;html=1;fillColor=#dae8fc;strokeColor=#6c8ebf;" parent="TXJgeYW-8o42WZuSJXYs-46" vertex="1">
            <mxGeometry width="63.01369863013695" height="37.812000000000005" as="geometry" />
          </mxCell>
        </UserObject>
        <UserObject label="&lt;i style=&quot;color: rgb(16, 115, 158);&quot;&gt;&lt;b&gt;SC&lt;/b&gt;&lt;/i&gt;" tooltip="Smart Contract &#xa;智能合约" id="TXJgeYW-8o42WZuSJXYs-41">
          <mxCell style="text;html=1;align=center;verticalAlign=middle;whiteSpace=wrap;rounded=0;" parent="TXJgeYW-8o42WZuSJXYs-46" vertex="1">
            <mxGeometry x="5.04109589041096" y="8.192600000000004" width="24.575342465753458" height="18.906000000000002" as="geometry" />
          </mxCell>
        </UserObject>
        <mxCell id="TXJgeYW-8o42WZuSJXYs-59" value="" style="group" parent="TXJgeYW-8o42WZuSJXYs-94" vertex="1" connectable="0">
          <mxGeometry x="30.561643835616405" y="5.671800000000001" width="20.79452054794523" height="24.43915599999998" as="geometry" />
        </mxCell>
        <mxCell id="TXJgeYW-8o42WZuSJXYs-39" value="" style="sketch=0;pointerEvents=1;shadow=0;dashed=0;html=1;strokeColor=none;fillColor=#10739E;labelPosition=center;verticalLabelPosition=bottom;verticalAlign=top;outlineConnect=0;align=center;shape=mxgraph.office.concepts.documents;aspect=fixed;" parent="TXJgeYW-8o42WZuSJXYs-59" vertex="1">
          <mxGeometry width="20.760547470357263" height="24.396788815165305" as="geometry" />
        </mxCell>
        <mxCell id="TXJgeYW-8o42WZuSJXYs-58" value="" style="image;html=1;image=img/lib/clip_art/general/Keys_128x128.png" parent="TXJgeYW-8o42WZuSJXYs-59" vertex="1">
          <mxGeometry x="5.986301369863013" y="5.3567000000000045" width="10.082191780821928" height="11.343599999999997" as="geometry" />
        </mxCell>
        <mxCell id="TXJgeYW-8o42WZuSJXYs-104" value="" style="group" parent="1" vertex="1" connectable="0">
          <mxGeometry x="660.74" y="1720.26" width="30" height="35.48000000000002" as="geometry" />
        </mxCell>
        <mxCell id="TXJgeYW-8o42WZuSJXYs-23" value="" style="html=1;shadow=0;dashed=0;align=center;verticalAlign=middle;shape=mxgraph.arrows2.jumpInArrow;dy=1.43;dx=3.43;arrowHead=12.57;direction=east;fillColor=#dae8fc;strokeColor=#6c8ebf;aspect=fixed;" parent="TXJgeYW-8o42WZuSJXYs-104" vertex="1">
          <mxGeometry width="20" height="25.48" as="geometry" />
        </mxCell>
        <mxCell id="TXJgeYW-8o42WZuSJXYs-35" value="" style="html=1;shadow=0;dashed=0;align=center;verticalAlign=middle;shape=mxgraph.arrows2.jumpInArrow;dy=1.43;dx=3.43;arrowHead=12.57;direction=west;fillColor=#dae8fc;strokeColor=#6c8ebf;aspect=fixed;" parent="TXJgeYW-8o42WZuSJXYs-104" vertex="1">
          <mxGeometry x="10" y="10" width="20" height="25.48" as="geometry" />
        </mxCell>
        <mxCell id="TXJgeYW-8o42WZuSJXYs-105" value="" style="group" parent="1" vertex="1" connectable="0">
          <mxGeometry x="850.74" y="1720.26" width="30" height="35.48000000000002" as="geometry" />
        </mxCell>
        <mxCell id="TXJgeYW-8o42WZuSJXYs-106" value="" style="html=1;shadow=0;dashed=0;align=center;verticalAlign=middle;shape=mxgraph.arrows2.jumpInArrow;dy=1.43;dx=3.43;arrowHead=12.57;direction=east;fillColor=#dae8fc;strokeColor=#6c8ebf;aspect=fixed;" parent="TXJgeYW-8o42WZuSJXYs-105" vertex="1">
          <mxGeometry width="20" height="25.48" as="geometry" />
        </mxCell>
        <mxCell id="TXJgeYW-8o42WZuSJXYs-107" value="" style="html=1;shadow=0;dashed=0;align=center;verticalAlign=middle;shape=mxgraph.arrows2.jumpInArrow;dy=1.43;dx=3.43;arrowHead=12.57;direction=west;fillColor=#dae8fc;strokeColor=#6c8ebf;aspect=fixed;" parent="TXJgeYW-8o42WZuSJXYs-105" vertex="1">
          <mxGeometry x="10" y="10" width="20" height="25.48" as="geometry" />
        </mxCell>
        <mxCell id="pC2msYPzM22jotstgkIq-7" value="&lt;font style=&quot;font-size: 13px;&quot;&gt;&lt;b&gt;&lt;i&gt;&lt;font&gt;Blockchain&lt;/font&gt;&lt;/i&gt;&lt;/b&gt;&lt;/font&gt;" style="text;html=1;align=center;verticalAlign=middle;whiteSpace=wrap;rounded=0;" parent="1" vertex="1">
          <mxGeometry x="884.58" y="1713" width="111.42" height="25.16" as="geometry" />
        </mxCell>
        <mxCell id="pC2msYPzM22jotstgkIq-20" value="" style="group;aspect=fixed;" parent="1" vertex="1" connectable="0">
          <mxGeometry x="901" y="1744" width="88" height="24.2" as="geometry" />
        </mxCell>
        <mxCell id="pC2msYPzM22jotstgkIq-10" value="" style="shape=cube;whiteSpace=wrap;html=1;boundedLbl=1;backgroundOutline=1;darkOpacity=0.05;darkOpacity2=0.1;fillColor=#d5e8d4;strokeColor=#82b366;strokeWidth=1;size=9;" parent="pC2msYPzM22jotstgkIq-20" vertex="1">
          <mxGeometry width="23.624161073825523" height="23.609756097560997" as="geometry" />
        </mxCell>
        <mxCell id="pC2msYPzM22jotstgkIq-14" value="" style="shape=cube;whiteSpace=wrap;html=1;boundedLbl=1;backgroundOutline=1;darkOpacity=0.05;darkOpacity2=0.1;fillColor=#d5e8d4;strokeColor=#82b366;strokeWidth=1;size=10;" parent="pC2msYPzM22jotstgkIq-20" vertex="1">
          <mxGeometry x="29.48322147651008" y="0.5902439024390244" width="23.624161073825523" height="23.609756097560997" as="geometry" />
        </mxCell>
        <mxCell id="pC2msYPzM22jotstgkIq-16" value="" style="shape=cube;whiteSpace=wrap;html=1;boundedLbl=1;backgroundOutline=1;darkOpacity=0.05;darkOpacity2=0.1;fillColor=#d5e8d4;strokeColor=#82b366;strokeWidth=1;size=10;" parent="pC2msYPzM22jotstgkIq-20" vertex="1">
          <mxGeometry x="59.37583892617438" y="0.5902439024390244" width="23.624161073825523" height="23.609756097560997" as="geometry" />
        </mxCell>
        <mxCell id="pC2msYPzM22jotstgkIq-13" value="" style="endArrow=none;html=1;rounded=0;strokeWidth=1;fillColor=#d5e8d4;strokeColor=#82b366;entryX=0;entryY=0;entryDx=40;entryDy=25;entryPerimeter=0;" parent="pC2msYPzM22jotstgkIq-20" edge="1">
          <mxGeometry width="50" height="50" relative="1" as="geometry">
            <mxPoint x="35.43624161073828" y="14.575609756097565" as="sourcePoint" />
            <mxPoint x="23.624161073825523" y="15.165853658536587" as="targetPoint" />
          </mxGeometry>
        </mxCell>
        <mxCell id="pC2msYPzM22jotstgkIq-18" value="" style="endArrow=none;html=1;rounded=0;strokeWidth=1;fillColor=#d5e8d4;strokeColor=#82b366;entryX=0;entryY=0;entryDx=40;entryDy=25;entryPerimeter=0;" parent="pC2msYPzM22jotstgkIq-20" edge="1">
          <mxGeometry width="50" height="50" relative="1" as="geometry">
            <mxPoint x="64.91946308724836" y="14.165853658536587" as="sourcePoint" />
            <mxPoint x="53.10738255033561" y="14.756097560975604" as="targetPoint" />
          </mxGeometry>
        </mxCell>
        <mxCell id="pC2msYPzM22jotstgkIq-21" value="&lt;p class=&quot;MsoNormal&quot;&gt;&lt;font face=&quot;Times New Roman&quot;&gt;&lt;span&gt;将区块链、知识图谱和智能合约集成到CDE工作流程中&lt;/span&gt;&lt;span&gt;&lt;/span&gt;&lt;/font&gt;&lt;/p&gt;" style="text;html=1;align=center;verticalAlign=middle;whiteSpace=wrap;rounded=0;fontSize=11;" parent="1" vertex="1">
          <mxGeometry x="581.5" y="1821" width="380" height="30" as="geometry" />
        </mxCell>
        <mxCell id="pC2msYPzM22jotstgkIq-22" value="" style="rounded=1;whiteSpace=wrap;html=1;arcSize=7;fillColor=#f5f5f5;fontColor=#333333;strokeColor=none;" parent="1" vertex="1">
          <mxGeometry x="1085" y="1670" width="495" height="210" as="geometry" />
        </mxCell>
        <mxCell id="pC2msYPzM22jotstgkIq-23" value="" style="whiteSpace=wrap;html=1;aspect=fixed;rounded=1;fillColor=#fff2cc;strokeColor=#d6b656;" parent="1" vertex="1">
          <mxGeometry x="1156" y="1698" width="30" height="30" as="geometry" />
        </mxCell>
        <mxCell id="pC2msYPzM22jotstgkIq-24" style="edgeStyle=orthogonalEdgeStyle;rounded=0;orthogonalLoop=1;jettySize=auto;html=1;exitX=0;exitY=0.5;exitDx=0;exitDy=0;entryX=1;entryY=0.5;entryDx=0;entryDy=0;fillColor=#fff2cc;strokeColor=#d6b656;" parent="1" source="pC2msYPzM22jotstgkIq-25" target="pC2msYPzM22jotstgkIq-23" edge="1">
          <mxGeometry relative="1" as="geometry" />
        </mxCell>
        <mxCell id="pC2msYPzM22jotstgkIq-25" value="" style="whiteSpace=wrap;html=1;aspect=fixed;rounded=1;fillColor=#f5f5f5;strokeColor=#666666;fontColor=#333333;" parent="1" vertex="1">
          <mxGeometry x="1216" y="1698" width="30" height="30" as="geometry" />
        </mxCell>
        <mxCell id="pC2msYPzM22jotstgkIq-26" value="" style="whiteSpace=wrap;html=1;aspect=fixed;rounded=1;fillColor=#ffe6cc;strokeColor=#d79b00;" parent="1" vertex="1">
          <mxGeometry x="1156" y="1751" width="30" height="30" as="geometry" />
        </mxCell>
        <mxCell id="pC2msYPzM22jotstgkIq-27" value="" style="whiteSpace=wrap;html=1;aspect=fixed;rounded=1;fillColor=#dae8fc;strokeColor=#6c8ebf;" parent="1" vertex="1">
          <mxGeometry x="1216" y="1751" width="30" height="30" as="geometry" />
        </mxCell>
        <mxCell id="pC2msYPzM22jotstgkIq-28" value="" style="endArrow=classic;html=1;rounded=0;exitX=0.5;exitY=1;exitDx=0;exitDy=0;entryX=0.5;entryY=0;entryDx=0;entryDy=0;fillColor=#ffe6cc;strokeColor=#d79b00;" parent="1" source="pC2msYPzM22jotstgkIq-23" target="pC2msYPzM22jotstgkIq-26" edge="1">
          <mxGeometry width="50" height="50" relative="1" as="geometry">
            <mxPoint x="1286" y="1808" as="sourcePoint" />
            <mxPoint x="1336" y="1758" as="targetPoint" />
          </mxGeometry>
        </mxCell>
        <mxCell id="pC2msYPzM22jotstgkIq-29" value="" style="endArrow=classic;html=1;rounded=0;exitX=1;exitY=0.5;exitDx=0;exitDy=0;entryX=0;entryY=0.5;entryDx=0;entryDy=0;fillColor=#dae8fc;strokeColor=#6c8ebf;" parent="1" source="pC2msYPzM22jotstgkIq-26" target="pC2msYPzM22jotstgkIq-27" edge="1">
          <mxGeometry width="50" height="50" relative="1" as="geometry">
            <mxPoint x="1181" y="1738" as="sourcePoint" />
            <mxPoint x="1181" y="1761" as="targetPoint" />
          </mxGeometry>
        </mxCell>
        <UserObject label="CDE" tooltip="Common Data Environment " id="pC2msYPzM22jotstgkIq-30">
          <mxCell style="text;html=1;align=center;verticalAlign=middle;whiteSpace=wrap;rounded=0;fontStyle=3;labelBorderColor=none;" parent="1" vertex="1">
            <mxGeometry x="1173" y="1725" width="60" height="30" as="geometry" />
          </mxCell>
        </UserObject>
        <mxCell id="pC2msYPzM22jotstgkIq-72" value="&lt;div style=&quot;line-height: 70%;&quot;&gt;&lt;div&gt;&lt;p class=&quot;MsoNormal&quot;&gt;&lt;span style=&quot;line-height: 70%;&quot;&gt;&lt;font&gt;确定需要进行合规性&lt;/font&gt;&lt;/span&gt;&lt;/p&gt;&lt;p class=&quot;MsoNormal&quot;&gt;&lt;span style=&quot;line-height: 70%;&quot;&gt;&lt;font&gt;检查的活动&lt;/font&gt;&lt;/span&gt;&lt;span&gt;&lt;/span&gt;&lt;/p&gt;&lt;/div&gt;&lt;/div&gt;" style="text;html=1;align=center;verticalAlign=middle;whiteSpace=wrap;rounded=0;spacing=2;horizontal=1;fontFamily=Times New Roman;fontSize=11;" parent="1" vertex="1">
          <mxGeometry x="1120.5" y="1806" width="168.5" height="49" as="geometry" />
        </mxCell>
        <mxCell id="xoPCMP8puYDpdrjku2z3-29" value="" style="group" vertex="1" connectable="0" parent="1">
          <mxGeometry x="1233" y="1693" width="20" height="20" as="geometry" />
        </mxCell>
        <mxCell id="xoPCMP8puYDpdrjku2z3-19" value="" style="group;aspect=fixed;" vertex="1" connectable="0" parent="xoPCMP8puYDpdrjku2z3-29">
          <mxGeometry width="20" height="20" as="geometry" />
        </mxCell>
        <mxCell id="xoPCMP8puYDpdrjku2z3-6" value="" style="ellipse;whiteSpace=wrap;html=1;aspect=fixed;fillColor=#008a00;strokeColor=#005700;fontColor=#ffffff;container=0;" vertex="1" parent="xoPCMP8puYDpdrjku2z3-19">
          <mxGeometry width="20" height="20" as="geometry" />
        </mxCell>
        <mxCell id="xoPCMP8puYDpdrjku2z3-22" value="" style="verticalLabelPosition=bottom;verticalAlign=top;html=1;shape=mxgraph.basic.tick;strokeColor=none;" vertex="1" parent="xoPCMP8puYDpdrjku2z3-29">
          <mxGeometry x="5" y="2.6923076923076925" width="10.5" height="14.615384615384617" as="geometry" />
        </mxCell>
        <mxCell id="xoPCMP8puYDpdrjku2z3-30" value="" style="group" vertex="1" connectable="0" parent="1">
          <mxGeometry x="1514.5" y="2902" width="20" height="20" as="geometry" />
        </mxCell>
        <mxCell id="xoPCMP8puYDpdrjku2z3-24" value="" style="ellipse;whiteSpace=wrap;html=1;aspect=fixed;fillColor=#a20025;strokeColor=#6F0000;fontColor=#ffffff;container=0;" vertex="1" parent="xoPCMP8puYDpdrjku2z3-30">
          <mxGeometry width="20" height="20" as="geometry" />
        </mxCell>
        <mxCell id="xoPCMP8puYDpdrjku2z3-26" value="" style="verticalLabelPosition=bottom;verticalAlign=top;html=1;shape=mxgraph.basic.x;strokeColor=none;aspect=fixed;" vertex="1" parent="xoPCMP8puYDpdrjku2z3-30">
          <mxGeometry x="5.038461538461538" y="5" width="10" height="10" as="geometry" />
        </mxCell>
        <mxCell id="xoPCMP8puYDpdrjku2z3-31" value="" style="group" vertex="1" connectable="0" parent="1">
          <mxGeometry x="1143" y="1693" width="20" height="20" as="geometry" />
        </mxCell>
        <mxCell id="xoPCMP8puYDpdrjku2z3-32" value="" style="group;aspect=fixed;" vertex="1" connectable="0" parent="xoPCMP8puYDpdrjku2z3-31">
          <mxGeometry width="20" height="20" as="geometry" />
        </mxCell>
        <mxCell id="xoPCMP8puYDpdrjku2z3-33" value="" style="ellipse;whiteSpace=wrap;html=1;aspect=fixed;fillColor=#008a00;strokeColor=#005700;fontColor=#ffffff;container=0;" vertex="1" parent="xoPCMP8puYDpdrjku2z3-32">
          <mxGeometry width="20" height="20" as="geometry" />
        </mxCell>
        <mxCell id="xoPCMP8puYDpdrjku2z3-34" value="" style="verticalLabelPosition=bottom;verticalAlign=top;html=1;shape=mxgraph.basic.tick;strokeColor=none;" vertex="1" parent="xoPCMP8puYDpdrjku2z3-31">
          <mxGeometry x="5" y="2.6923076923076925" width="10.5" height="14.615384615384617" as="geometry" />
        </mxCell>
        <mxCell id="xoPCMP8puYDpdrjku2z3-35" value="" style="group" vertex="1" connectable="0" parent="1">
          <mxGeometry x="1143" y="1743" width="20" height="20" as="geometry" />
        </mxCell>
        <mxCell id="xoPCMP8puYDpdrjku2z3-36" value="" style="group;aspect=fixed;" vertex="1" connectable="0" parent="xoPCMP8puYDpdrjku2z3-35">
          <mxGeometry width="20" height="20" as="geometry" />
        </mxCell>
        <mxCell id="xoPCMP8puYDpdrjku2z3-37" value="" style="ellipse;whiteSpace=wrap;html=1;aspect=fixed;fillColor=#008a00;strokeColor=#005700;fontColor=#ffffff;container=0;" vertex="1" parent="xoPCMP8puYDpdrjku2z3-36">
          <mxGeometry width="20" height="20" as="geometry" />
        </mxCell>
        <mxCell id="xoPCMP8puYDpdrjku2z3-38" value="" style="verticalLabelPosition=bottom;verticalAlign=top;html=1;shape=mxgraph.basic.tick;strokeColor=none;" vertex="1" parent="xoPCMP8puYDpdrjku2z3-35">
          <mxGeometry x="5" y="2.6923076923076925" width="10.5" height="14.615384615384617" as="geometry" />
        </mxCell>
        <mxCell id="xoPCMP8puYDpdrjku2z3-44" value="" style="group" vertex="1" connectable="0" parent="1">
          <mxGeometry x="1336" y="1716" width="48.5" height="57" as="geometry" />
        </mxCell>
        <mxCell id="xoPCMP8puYDpdrjku2z3-45" value="" style="sketch=0;pointerEvents=1;shadow=0;dashed=0;html=1;strokeColor=#001DBC;fillColor=#0050ef;labelPosition=center;verticalLabelPosition=bottom;verticalAlign=top;outlineConnect=0;align=center;shape=mxgraph.office.concepts.documents;aspect=fixed;fontColor=#ffffff;" vertex="1" parent="xoPCMP8puYDpdrjku2z3-44">
          <mxGeometry width="48.420297567164965" height="56.90118605014116" as="geometry" />
        </mxCell>
        <mxCell id="xoPCMP8puYDpdrjku2z3-47" value="" style="html=1;shadow=0;dashed=0;align=center;verticalAlign=middle;shape=mxgraph.arrows2.arrow;dy=0.66;dx=21;notch=0;fillColor=#808080;fontColor=#333333;strokeColor=#666666;" vertex="1" parent="1">
          <mxGeometry x="1265" y="1723" width="50" height="35" as="geometry" />
        </mxCell>
        <mxCell id="xoPCMP8puYDpdrjku2z3-48" value="" style="sketch=0;pointerEvents=1;shadow=0;dashed=0;html=1;strokeColor=#3700CC;fillColor=#6a00ff;labelPosition=center;verticalLabelPosition=bottom;verticalAlign=top;outlineConnect=0;align=center;shape=mxgraph.office.concepts.documents;aspect=fixed;fontColor=#ffffff;" vertex="1" parent="1">
          <mxGeometry x="1396" y="1716" width="48.420297567164965" height="56.90118605014116" as="geometry" />
        </mxCell>
        <mxCell id="xoPCMP8puYDpdrjku2z3-49" value="" style="sketch=0;pointerEvents=1;shadow=0;dashed=0;html=1;strokeColor=#B20000;fillColor=#e51400;labelPosition=center;verticalLabelPosition=bottom;verticalAlign=top;outlineConnect=0;align=center;shape=mxgraph.office.concepts.documents;aspect=fixed;fontColor=#ffffff;" vertex="1" parent="1">
          <mxGeometry x="1456" y="1716" width="48.420297567164965" height="56.90118605014116" as="geometry" />
        </mxCell>
        <mxCell id="xoPCMP8puYDpdrjku2z3-51" value="&lt;div style=&quot;line-height: 70%;&quot;&gt;&lt;p class=&quot;MsoNormal&quot;&gt;&lt;span style=&quot;line-height: 70%;&quot;&gt;&lt;font&gt;确定事务中已检查的&lt;/font&gt;&lt;/span&gt;&lt;/p&gt;&lt;p class=&quot;MsoNormal&quot;&gt;&lt;span style=&quot;line-height: 70%;&quot;&gt;&lt;font&gt;元数据&lt;/font&gt;&lt;/span&gt;&lt;/p&gt;&lt;/div&gt;" style="text;html=1;align=center;verticalAlign=middle;whiteSpace=wrap;rounded=0;spacing=2;horizontal=1;fontFamily=Times New Roman;fontSize=11;" vertex="1" parent="1">
          <mxGeometry x="1340.5" y="1806" width="168.5" height="49" as="geometry" />
        </mxCell>
        <mxCell id="xoPCMP8puYDpdrjku2z3-52" value="" style="html=1;shadow=0;dashed=0;align=center;verticalAlign=middle;shape=mxgraph.arrows2.arrow;dy=0.6;dx=40;notch=0;fillColor=#76608a;fontColor=#ffffff;strokeColor=#432D57;" vertex="1" parent="1">
          <mxGeometry x="1039" y="1747" width="33" height="70" as="geometry" />
        </mxCell>
        <mxCell id="xoPCMP8puYDpdrjku2z3-53" value="&lt;div&gt;&lt;i&gt;&lt;b&gt;&lt;font style=&quot;font-size: 13px; color: rgb(102, 0, 204);&quot;&gt;提出&lt;/font&gt;&lt;font style=&quot;font-size: 13px; color: rgb(102, 0, 204);&quot;&gt;一个 BECDE 框架&lt;/font&gt;&lt;/b&gt;&lt;/i&gt;&lt;/div&gt;" style="text;html=1;align=left;verticalAlign=middle;whiteSpace=wrap;rounded=0;" vertex="1" parent="1">
          <mxGeometry x="415" y="1695" width="85" height="157.1" as="geometry" />
        </mxCell>
        <mxCell id="xoPCMP8puYDpdrjku2z3-54" value="&lt;font style=&quot;font-size: 14px;&quot;&gt;步骤2&lt;/font&gt;" style="rounded=1;whiteSpace=wrap;html=1;labelPosition=center;verticalLabelPosition=middle;align=center;verticalAlign=middle;fillColor=#FF8000;strokeColor=none;fontColor=#FFFFFF;fontSize=12;fontStyle=1;horizontal=0;" vertex="1" parent="1">
          <mxGeometry x="380" y="1980" width="30" height="230" as="geometry" />
        </mxCell>
        <mxCell id="xoPCMP8puYDpdrjku2z3-55" value="" style="rounded=1;whiteSpace=wrap;html=1;arcSize=7;fillColor=#f5f5f5;fontColor=#333333;strokeColor=none;" vertex="1" parent="1">
          <mxGeometry x="525" y="1990" width="495" height="210" as="geometry" />
        </mxCell>
        <mxCell id="xoPCMP8puYDpdrjku2z3-106" value="" style="rounded=1;whiteSpace=wrap;html=1;arcSize=7;fillColor=#f5f5f5;fontColor=#333333;strokeColor=none;" vertex="1" parent="1">
          <mxGeometry x="1085" y="1990" width="495" height="210" as="geometry" />
        </mxCell>
        <mxCell id="xoPCMP8puYDpdrjku2z3-115" value="建立本体" style="text;html=1;align=center;verticalAlign=middle;whiteSpace=wrap;rounded=0;spacing=2;horizontal=1;fontFamily=Times New Roman;fontSize=11;" vertex="1" parent="1">
          <mxGeometry x="1120.5" y="2131" width="79.5" height="49" as="geometry" />
        </mxCell>
        <mxCell id="xoPCMP8puYDpdrjku2z3-130" value="" style="html=1;shadow=0;dashed=0;align=center;verticalAlign=middle;shape=mxgraph.arrows2.arrow;dy=0.58;dx=12.65;notch=0;fillColor=#808080;fontColor=#333333;strokeColor=#666666;" vertex="1" parent="1">
          <mxGeometry x="1210" y="2060" width="30" height="22" as="geometry" />
        </mxCell>
        <mxCell id="xoPCMP8puYDpdrjku2z3-134" value="" style="html=1;shadow=0;dashed=0;align=center;verticalAlign=middle;shape=mxgraph.arrows2.arrow;dy=0.6;dx=40;notch=0;fillColor=#76608a;fontColor=#ffffff;strokeColor=#432D57;" vertex="1" parent="1">
          <mxGeometry x="1039" y="2067" width="33" height="70" as="geometry" />
        </mxCell>
        <mxCell id="xoPCMP8puYDpdrjku2z3-135" value="&lt;div&gt;&lt;i&gt;&lt;b&gt;&lt;font style=&quot;font-size: 13px; color: rgb(102, 0, 204);&quot;&gt;基于 &lt;/font&gt;&lt;font style=&quot;font-size: 13px; color: rgb(102, 0, 204);&quot;&gt;ISO 19650&amp;nbsp;&lt;/font&gt;&lt;/b&gt;&lt;/i&gt;&lt;/div&gt;&lt;div&gt;&lt;i&gt;&lt;b&gt;&lt;font style=&quot;font-size: 13px; color: rgb(102, 0, 204);&quot;&gt;和 KG &lt;/font&gt;&lt;font style=&quot;font-size: 13px; color: rgb(102, 0, 204);&quot;&gt;生成CCRs&lt;/font&gt;&lt;/b&gt;&lt;/i&gt;&lt;/div&gt;" style="text;html=1;align=left;verticalAlign=middle;whiteSpace=wrap;rounded=0;" vertex="1" parent="1">
          <mxGeometry x="416" y="2017" width="114" height="157.1" as="geometry" />
        </mxCell>
        <mxCell id="xoPCMP8puYDpdrjku2z3-136" value="&lt;font style=&quot;font-size: 14px;&quot;&gt;步骤3&lt;/font&gt;" style="rounded=1;whiteSpace=wrap;html=1;labelPosition=center;verticalLabelPosition=middle;align=center;verticalAlign=middle;fillColor=#FF8000;strokeColor=none;fontColor=#FFFFFF;fontSize=12;fontStyle=1;horizontal=0;" vertex="1" parent="1">
          <mxGeometry x="380" y="2300" width="30" height="230" as="geometry" />
        </mxCell>
        <mxCell id="xoPCMP8puYDpdrjku2z3-137" value="" style="rounded=1;whiteSpace=wrap;html=1;arcSize=7;fillColor=#f5f5f5;fontColor=#333333;strokeColor=none;" vertex="1" parent="1">
          <mxGeometry x="525" y="2310" width="495" height="210" as="geometry" />
        </mxCell>
        <mxCell id="xoPCMP8puYDpdrjku2z3-138" value="" style="whiteSpace=wrap;html=1;aspect=fixed;rounded=1;fillColor=#fff2cc;strokeColor=#d6b656;" vertex="1" parent="1">
          <mxGeometry x="560" y="2338" width="30" height="30" as="geometry" />
        </mxCell>
        <mxCell id="xoPCMP8puYDpdrjku2z3-139" style="edgeStyle=orthogonalEdgeStyle;rounded=0;orthogonalLoop=1;jettySize=auto;html=1;exitX=0;exitY=0.5;exitDx=0;exitDy=0;entryX=1;entryY=0.5;entryDx=0;entryDy=0;fillColor=#fff2cc;strokeColor=#d6b656;" edge="1" parent="1" source="xoPCMP8puYDpdrjku2z3-140" target="xoPCMP8puYDpdrjku2z3-138">
          <mxGeometry relative="1" as="geometry" />
        </mxCell>
        <mxCell id="xoPCMP8puYDpdrjku2z3-140" value="" style="whiteSpace=wrap;html=1;aspect=fixed;rounded=1;fillColor=#f5f5f5;strokeColor=#666666;fontColor=#333333;" vertex="1" parent="1">
          <mxGeometry x="620" y="2338" width="30" height="30" as="geometry" />
        </mxCell>
        <mxCell id="xoPCMP8puYDpdrjku2z3-141" value="" style="whiteSpace=wrap;html=1;aspect=fixed;rounded=1;fillColor=#ffe6cc;strokeColor=#d79b00;" vertex="1" parent="1">
          <mxGeometry x="560" y="2391" width="30" height="30" as="geometry" />
        </mxCell>
        <mxCell id="xoPCMP8puYDpdrjku2z3-142" value="" style="whiteSpace=wrap;html=1;aspect=fixed;rounded=1;fillColor=#dae8fc;strokeColor=#6c8ebf;" vertex="1" parent="1">
          <mxGeometry x="620" y="2391" width="30" height="30" as="geometry" />
        </mxCell>
        <mxCell id="xoPCMP8puYDpdrjku2z3-143" value="" style="endArrow=classic;html=1;rounded=0;exitX=0.5;exitY=1;exitDx=0;exitDy=0;entryX=0.5;entryY=0;entryDx=0;entryDy=0;fillColor=#ffe6cc;strokeColor=#d79b00;" edge="1" parent="1" source="xoPCMP8puYDpdrjku2z3-138" target="xoPCMP8puYDpdrjku2z3-141">
          <mxGeometry width="50" height="50" relative="1" as="geometry">
            <mxPoint x="690" y="2448" as="sourcePoint" />
            <mxPoint x="740" y="2398" as="targetPoint" />
          </mxGeometry>
        </mxCell>
        <mxCell id="xoPCMP8puYDpdrjku2z3-144" value="" style="endArrow=classic;html=1;rounded=0;exitX=1;exitY=0.5;exitDx=0;exitDy=0;entryX=0;entryY=0.5;entryDx=0;entryDy=0;fillColor=#dae8fc;strokeColor=#6c8ebf;" edge="1" parent="1" source="xoPCMP8puYDpdrjku2z3-141" target="xoPCMP8puYDpdrjku2z3-142">
          <mxGeometry width="50" height="50" relative="1" as="geometry">
            <mxPoint x="585" y="2378" as="sourcePoint" />
            <mxPoint x="585" y="2401" as="targetPoint" />
          </mxGeometry>
        </mxCell>
        <UserObject label="CDE" tooltip="Common Data Environment " id="xoPCMP8puYDpdrjku2z3-145">
          <mxCell style="text;html=1;align=center;verticalAlign=middle;whiteSpace=wrap;rounded=0;fontStyle=3;labelBorderColor=none;" vertex="1" parent="1">
            <mxGeometry x="577" y="2365" width="60" height="30" as="geometry" />
          </mxCell>
        </UserObject>
        <mxCell id="xoPCMP8puYDpdrjku2z3-146" value="" style="group;aspect=fixed;" vertex="1" connectable="0" parent="1">
          <mxGeometry x="700" y="2329" width="138" height="94.53" as="geometry" />
        </mxCell>
        <mxCell id="xoPCMP8puYDpdrjku2z3-147" value="" style="rounded=1;whiteSpace=wrap;html=1;fillColor=#dae8fc;strokeColor=none;" vertex="1" parent="xoPCMP8puYDpdrjku2z3-146">
          <mxGeometry width="138" height="94.53" as="geometry" />
        </mxCell>
        <mxCell id="xoPCMP8puYDpdrjku2z3-148" value="" style="group" vertex="1" connectable="0" parent="xoPCMP8puYDpdrjku2z3-146">
          <mxGeometry x="49.780821917808225" y="49.7858" width="63.01369863013695" height="37.812000000000005" as="geometry" />
        </mxCell>
        <UserObject label="" tooltip="" id="xoPCMP8puYDpdrjku2z3-149">
          <mxCell style="rounded=1;whiteSpace=wrap;html=1;fillColor=#dae8fc;strokeColor=#6c8ebf;" vertex="1" parent="xoPCMP8puYDpdrjku2z3-148">
            <mxGeometry width="63.01369863013695" height="37.812000000000005" as="geometry" />
          </mxCell>
        </UserObject>
        <UserObject label="&lt;i style=&quot;color: rgb(16, 115, 158);&quot;&gt;&lt;b&gt;KG&lt;/b&gt;&lt;/i&gt;" tooltip="Knowledge Gragh&#xa;知识图谱" id="xoPCMP8puYDpdrjku2z3-150">
          <mxCell style="text;html=1;align=center;verticalAlign=middle;whiteSpace=wrap;rounded=0;" vertex="1" parent="xoPCMP8puYDpdrjku2z3-148">
            <mxGeometry x="5.04109589041096" y="8.192600000000004" width="24.575342465753458" height="18.906000000000002" as="geometry" />
          </mxCell>
        </UserObject>
        <mxCell id="xoPCMP8puYDpdrjku2z3-151" value="" style="group;aspect=fixed;" vertex="1" connectable="0" parent="xoPCMP8puYDpdrjku2z3-146">
          <mxGeometry x="80.02739726027387" y="57.97840000000005" width="20.131439971255517" height="21.43998356938712" as="geometry" />
        </mxCell>
        <mxCell id="xoPCMP8puYDpdrjku2z3-152" value="" style="ellipse;whiteSpace=wrap;html=1;aspect=fixed;fillColor=#f0a30a;strokeColor=#BD7000;fontColor=#000000;" vertex="1" parent="xoPCMP8puYDpdrjku2z3-151">
          <mxGeometry x="3.774644994610408" width="3.77266895935533" height="3.77266895935533" as="geometry" />
        </mxCell>
        <mxCell id="xoPCMP8puYDpdrjku2z3-153" value="" style="ellipse;whiteSpace=wrap;html=1;aspect=fixed;fillColor=#0050ef;strokeColor=#001DBC;fontColor=#ffffff;" vertex="1" parent="xoPCMP8puYDpdrjku2z3-151">
          <mxGeometry x="16.356794976645112" y="8.828228528571175" width="3.77266895935533" height="3.77266895935533" as="geometry" />
        </mxCell>
        <mxCell id="xoPCMP8puYDpdrjku2z3-154" value="" style="ellipse;whiteSpace=wrap;html=1;aspect=fixed;fillColor=#d80073;strokeColor=#A50040;fontColor=#ffffff;" vertex="1" parent="xoPCMP8puYDpdrjku2z3-151">
          <mxGeometry x="12.5821499820347" width="3.77266895935533" height="3.77266895935533" as="geometry" />
        </mxCell>
        <mxCell id="xoPCMP8puYDpdrjku2z3-155" value="" style="ellipse;whiteSpace=wrap;html=1;aspect=fixed;fillColor=#0050ef;strokeColor=#001DBC;fontColor=#ffffff;" vertex="1" parent="xoPCMP8puYDpdrjku2z3-151">
          <mxGeometry y="8.828228528571175" width="3.77266895935533" height="3.77266895935533" as="geometry" />
        </mxCell>
        <mxCell id="xoPCMP8puYDpdrjku2z3-156" value="" style="ellipse;whiteSpace=wrap;html=1;aspect=fixed;fillColor=#d80073;strokeColor=#A50040;fontColor=#ffffff;" vertex="1" parent="xoPCMP8puYDpdrjku2z3-151">
          <mxGeometry x="3.774644994610408" y="17.65645705714235" width="3.77266895935533" height="3.77266895935533" as="geometry" />
        </mxCell>
        <mxCell id="xoPCMP8puYDpdrjku2z3-157" value="" style="ellipse;whiteSpace=wrap;html=1;aspect=fixed;fillColor=#f0a30a;strokeColor=#BD7000;fontColor=#000000;" vertex="1" parent="xoPCMP8puYDpdrjku2z3-151">
          <mxGeometry x="12.5821499820347" y="17.65645705714235" width="3.77266895935533" height="3.77266895935533" as="geometry" />
        </mxCell>
        <mxCell id="xoPCMP8puYDpdrjku2z3-158" value="" style="endArrow=none;html=1;rounded=0;entryX=0;entryY=1;entryDx=0;entryDy=0;exitX=0.5;exitY=0;exitDx=0;exitDy=0;strokeWidth=1;fillColor=#dae8fc;strokeColor=#6c8ebf;" edge="1" parent="xoPCMP8puYDpdrjku2z3-151" source="xoPCMP8puYDpdrjku2z3-155" target="xoPCMP8puYDpdrjku2z3-152">
          <mxGeometry width="50" height="50" relative="1" as="geometry">
            <mxPoint x="46.55395493352835" y="-8.828228528571175" as="sourcePoint" />
            <mxPoint x="59.13610491556312" y="-21.43998356938712" as="targetPoint" />
          </mxGeometry>
        </mxCell>
        <mxCell id="xoPCMP8puYDpdrjku2z3-159" value="" style="endArrow=none;html=1;rounded=0;entryX=0;entryY=1;entryDx=0;entryDy=0;exitX=1;exitY=0;exitDx=0;exitDy=0;strokeWidth=1;fillColor=#dae8fc;strokeColor=#6c8ebf;" edge="1" parent="xoPCMP8puYDpdrjku2z3-151" source="xoPCMP8puYDpdrjku2z3-155" target="xoPCMP8puYDpdrjku2z3-154">
          <mxGeometry width="50" height="50" relative="1" as="geometry">
            <mxPoint x="4.529573993532498" y="11.350579536734358" as="sourcePoint" />
            <mxPoint x="6.79436099029874" y="5.80140731877534" as="targetPoint" />
          </mxGeometry>
        </mxCell>
        <mxCell id="xoPCMP8puYDpdrjku2z3-160" value="" style="endArrow=none;html=1;rounded=0;exitX=1;exitY=1;exitDx=0;exitDy=0;strokeWidth=1;fillColor=#dae8fc;strokeColor=#6c8ebf;entryX=0;entryY=0.5;entryDx=0;entryDy=0;" edge="1" parent="xoPCMP8puYDpdrjku2z3-151" source="xoPCMP8puYDpdrjku2z3-155" target="xoPCMP8puYDpdrjku2z3-157">
          <mxGeometry width="50" height="50" relative="1" as="geometry">
            <mxPoint x="5.787788991735964" y="11.855049738367006" as="sourcePoint" />
            <mxPoint x="11.323934983831222" y="18.91763256122395" as="targetPoint" />
          </mxGeometry>
        </mxCell>
        <mxCell id="xoPCMP8puYDpdrjku2z3-161" value="" style="endArrow=none;html=1;rounded=0;entryX=0;entryY=0;entryDx=0;entryDy=0;exitX=0.5;exitY=1;exitDx=0;exitDy=0;fillColor=#dae8fc;strokeColor=#6c8ebf;strokeWidth=1;" edge="1" parent="xoPCMP8puYDpdrjku2z3-151" source="xoPCMP8puYDpdrjku2z3-155" target="xoPCMP8puYDpdrjku2z3-156">
          <mxGeometry width="50" height="50" relative="1" as="geometry">
            <mxPoint x="5.787788991735964" y="14.629635847346517" as="sourcePoint" />
            <mxPoint x="15.601865977723017" y="20.683278266938164" as="targetPoint" />
          </mxGeometry>
        </mxCell>
        <mxCell id="xoPCMP8puYDpdrjku2z3-162" value="" style="endArrow=none;html=1;rounded=0;entryX=0;entryY=0;entryDx=0;entryDy=0;exitX=1;exitY=1;exitDx=0;exitDy=0;strokeWidth=1;fillColor=#dae8fc;strokeColor=#6c8ebf;" edge="1" parent="xoPCMP8puYDpdrjku2z3-151" source="xoPCMP8puYDpdrjku2z3-152" target="xoPCMP8puYDpdrjku2z3-153">
          <mxGeometry width="50" height="50" relative="1" as="geometry">
            <mxPoint x="4.529573993532498" y="11.350579536734358" as="sourcePoint" />
            <mxPoint x="6.79436099029874" y="5.80140731877534" as="targetPoint" />
          </mxGeometry>
        </mxCell>
        <mxCell id="xoPCMP8puYDpdrjku2z3-163" value="" style="endArrow=none;html=1;rounded=0;entryX=0.5;entryY=1;entryDx=0;entryDy=0;exitX=1;exitY=0;exitDx=0;exitDy=0;strokeWidth=1;fillColor=#dae8fc;strokeColor=#6c8ebf;" edge="1" parent="xoPCMP8puYDpdrjku2z3-151" source="xoPCMP8puYDpdrjku2z3-157" target="xoPCMP8puYDpdrjku2z3-153">
          <mxGeometry width="50" height="50" relative="1" as="geometry">
            <mxPoint x="7.046003989939426" y="13.872930544897558" as="sourcePoint" />
            <mxPoint x="9.310790986705682" y="8.323758326938535" as="targetPoint" />
          </mxGeometry>
        </mxCell>
        <mxCell id="xoPCMP8puYDpdrjku2z3-164" value="" style="endArrow=none;html=1;rounded=0;entryX=0.5;entryY=0;entryDx=0;entryDy=0;exitX=1;exitY=1;exitDx=0;exitDy=0;strokeWidth=1;fillColor=#dae8fc;strokeColor=#6c8ebf;" edge="1" parent="xoPCMP8puYDpdrjku2z3-151" source="xoPCMP8puYDpdrjku2z3-154" target="xoPCMP8puYDpdrjku2z3-153">
          <mxGeometry width="50" height="50" relative="1" as="geometry">
            <mxPoint x="9.562433986346356" y="16.395281553060762" as="sourcePoint" />
            <mxPoint x="11.827220983112616" y="10.846109335101733" as="targetPoint" />
          </mxGeometry>
        </mxCell>
        <mxCell id="xoPCMP8puYDpdrjku2z3-165" value="" style="endArrow=none;html=1;rounded=0;entryX=0;entryY=1;entryDx=0;entryDy=0;exitX=1;exitY=0.5;exitDx=0;exitDy=0;strokeWidth=1;fillColor=#dae8fc;strokeColor=#6c8ebf;" edge="1" parent="xoPCMP8puYDpdrjku2z3-151" source="xoPCMP8puYDpdrjku2z3-156" target="xoPCMP8puYDpdrjku2z3-153">
          <mxGeometry width="50" height="50" relative="1" as="geometry">
            <mxPoint x="12.078863982753312" y="18.91763256122395" as="sourcePoint" />
            <mxPoint x="14.343650979519543" y="13.368460343264925" as="targetPoint" />
          </mxGeometry>
        </mxCell>
        <UserObject label="&lt;font style=&quot;font-size: 14px; color: rgb(16, 115, 158);&quot;&gt;&lt;b&gt;&lt;i&gt;&lt;font&gt;SSC&lt;/font&gt;&lt;/i&gt;&lt;/b&gt;&lt;/font&gt;" tooltip="Smarter Smart Contract " id="xoPCMP8puYDpdrjku2z3-166">
          <mxCell style="text;html=1;align=center;verticalAlign=middle;whiteSpace=wrap;rounded=0;" vertex="1" parent="xoPCMP8puYDpdrjku2z3-146">
            <mxGeometry x="7.561643835616424" y="35.78275599999986" width="37.808219178082226" height="18.906000000000002" as="geometry" />
          </mxCell>
        </UserObject>
        <mxCell id="xoPCMP8puYDpdrjku2z3-167" value="" style="group" vertex="1" connectable="0" parent="xoPCMP8puYDpdrjku2z3-146">
          <mxGeometry x="49.780821917808225" y="5.671799999999998" width="63.01369863013695" height="37.812000000000005" as="geometry" />
        </mxCell>
        <mxCell id="xoPCMP8puYDpdrjku2z3-168" value="" style="group" vertex="1" connectable="0" parent="xoPCMP8puYDpdrjku2z3-167">
          <mxGeometry width="63.01369863013695" height="37.812000000000005" as="geometry" />
        </mxCell>
        <UserObject label="" tooltip="" id="xoPCMP8puYDpdrjku2z3-169">
          <mxCell style="rounded=1;whiteSpace=wrap;html=1;fillColor=#dae8fc;strokeColor=#6c8ebf;" vertex="1" parent="xoPCMP8puYDpdrjku2z3-168">
            <mxGeometry width="63.01369863013695" height="37.812000000000005" as="geometry" />
          </mxCell>
        </UserObject>
        <UserObject label="&lt;i style=&quot;color: rgb(16, 115, 158);&quot;&gt;&lt;b&gt;SC&lt;/b&gt;&lt;/i&gt;" tooltip="Smart Contract &#xa;智能合约" id="xoPCMP8puYDpdrjku2z3-170">
          <mxCell style="text;html=1;align=center;verticalAlign=middle;whiteSpace=wrap;rounded=0;" vertex="1" parent="xoPCMP8puYDpdrjku2z3-168">
            <mxGeometry x="5.04109589041096" y="8.192600000000004" width="24.575342465753458" height="18.906000000000002" as="geometry" />
          </mxCell>
        </UserObject>
        <mxCell id="xoPCMP8puYDpdrjku2z3-171" value="" style="group" vertex="1" connectable="0" parent="xoPCMP8puYDpdrjku2z3-167">
          <mxGeometry x="30.561643835616405" y="5.671800000000001" width="20.79452054794523" height="24.43915599999998" as="geometry" />
        </mxCell>
        <mxCell id="xoPCMP8puYDpdrjku2z3-172" value="" style="sketch=0;pointerEvents=1;shadow=0;dashed=0;html=1;strokeColor=none;fillColor=#10739E;labelPosition=center;verticalLabelPosition=bottom;verticalAlign=top;outlineConnect=0;align=center;shape=mxgraph.office.concepts.documents;aspect=fixed;" vertex="1" parent="xoPCMP8puYDpdrjku2z3-171">
          <mxGeometry width="20.760547470357263" height="24.396788815165305" as="geometry" />
        </mxCell>
        <mxCell id="xoPCMP8puYDpdrjku2z3-173" value="" style="image;html=1;image=img/lib/clip_art/general/Keys_128x128.png" vertex="1" parent="xoPCMP8puYDpdrjku2z3-171">
          <mxGeometry x="5.986301369863013" y="5.3567000000000045" width="10.082191780821928" height="11.343599999999997" as="geometry" />
        </mxCell>
        <mxCell id="xoPCMP8puYDpdrjku2z3-174" value="" style="group" vertex="1" connectable="0" parent="1">
          <mxGeometry x="660.74" y="2360.26" width="30" height="35.48000000000002" as="geometry" />
        </mxCell>
        <mxCell id="xoPCMP8puYDpdrjku2z3-175" value="" style="html=1;shadow=0;dashed=0;align=center;verticalAlign=middle;shape=mxgraph.arrows2.jumpInArrow;dy=1.43;dx=3.43;arrowHead=12.57;direction=east;fillColor=#dae8fc;strokeColor=#6c8ebf;aspect=fixed;" vertex="1" parent="xoPCMP8puYDpdrjku2z3-174">
          <mxGeometry width="20" height="25.48" as="geometry" />
        </mxCell>
        <mxCell id="xoPCMP8puYDpdrjku2z3-176" value="" style="html=1;shadow=0;dashed=0;align=center;verticalAlign=middle;shape=mxgraph.arrows2.jumpInArrow;dy=1.43;dx=3.43;arrowHead=12.57;direction=west;fillColor=#dae8fc;strokeColor=#6c8ebf;aspect=fixed;" vertex="1" parent="xoPCMP8puYDpdrjku2z3-174">
          <mxGeometry x="10" y="10" width="20" height="25.48" as="geometry" />
        </mxCell>
        <mxCell id="xoPCMP8puYDpdrjku2z3-177" value="" style="group" vertex="1" connectable="0" parent="1">
          <mxGeometry x="850.74" y="2360.26" width="30" height="35.48000000000002" as="geometry" />
        </mxCell>
        <mxCell id="xoPCMP8puYDpdrjku2z3-178" value="" style="html=1;shadow=0;dashed=0;align=center;verticalAlign=middle;shape=mxgraph.arrows2.jumpInArrow;dy=1.43;dx=3.43;arrowHead=12.57;direction=east;fillColor=#dae8fc;strokeColor=#6c8ebf;aspect=fixed;" vertex="1" parent="xoPCMP8puYDpdrjku2z3-177">
          <mxGeometry width="20" height="25.48" as="geometry" />
        </mxCell>
        <mxCell id="xoPCMP8puYDpdrjku2z3-179" value="" style="html=1;shadow=0;dashed=0;align=center;verticalAlign=middle;shape=mxgraph.arrows2.jumpInArrow;dy=1.43;dx=3.43;arrowHead=12.57;direction=west;fillColor=#dae8fc;strokeColor=#6c8ebf;aspect=fixed;" vertex="1" parent="xoPCMP8puYDpdrjku2z3-177">
          <mxGeometry x="10" y="10" width="20" height="25.48" as="geometry" />
        </mxCell>
        <mxCell id="xoPCMP8puYDpdrjku2z3-180" value="&lt;font style=&quot;font-size: 13px;&quot;&gt;&lt;b&gt;&lt;i&gt;&lt;font&gt;Blockchain&lt;/font&gt;&lt;/i&gt;&lt;/b&gt;&lt;/font&gt;" style="text;html=1;align=center;verticalAlign=middle;whiteSpace=wrap;rounded=0;" vertex="1" parent="1">
          <mxGeometry x="884.58" y="2353" width="111.42" height="25.16" as="geometry" />
        </mxCell>
        <mxCell id="xoPCMP8puYDpdrjku2z3-181" value="" style="group;aspect=fixed;" vertex="1" connectable="0" parent="1">
          <mxGeometry x="901" y="2384" width="88" height="24.2" as="geometry" />
        </mxCell>
        <mxCell id="xoPCMP8puYDpdrjku2z3-182" value="" style="shape=cube;whiteSpace=wrap;html=1;boundedLbl=1;backgroundOutline=1;darkOpacity=0.05;darkOpacity2=0.1;fillColor=#d5e8d4;strokeColor=#82b366;strokeWidth=1;size=9;" vertex="1" parent="xoPCMP8puYDpdrjku2z3-181">
          <mxGeometry width="23.624161073825523" height="23.609756097560997" as="geometry" />
        </mxCell>
        <mxCell id="xoPCMP8puYDpdrjku2z3-183" value="" style="shape=cube;whiteSpace=wrap;html=1;boundedLbl=1;backgroundOutline=1;darkOpacity=0.05;darkOpacity2=0.1;fillColor=#d5e8d4;strokeColor=#82b366;strokeWidth=1;size=10;" vertex="1" parent="xoPCMP8puYDpdrjku2z3-181">
          <mxGeometry x="29.48322147651008" y="0.5902439024390244" width="23.624161073825523" height="23.609756097560997" as="geometry" />
        </mxCell>
        <mxCell id="xoPCMP8puYDpdrjku2z3-184" value="" style="shape=cube;whiteSpace=wrap;html=1;boundedLbl=1;backgroundOutline=1;darkOpacity=0.05;darkOpacity2=0.1;fillColor=#d5e8d4;strokeColor=#82b366;strokeWidth=1;size=10;" vertex="1" parent="xoPCMP8puYDpdrjku2z3-181">
          <mxGeometry x="59.37583892617438" y="0.5902439024390244" width="23.624161073825523" height="23.609756097560997" as="geometry" />
        </mxCell>
        <mxCell id="xoPCMP8puYDpdrjku2z3-185" value="" style="endArrow=none;html=1;rounded=0;strokeWidth=1;fillColor=#d5e8d4;strokeColor=#82b366;entryX=0;entryY=0;entryDx=40;entryDy=25;entryPerimeter=0;" edge="1" parent="xoPCMP8puYDpdrjku2z3-181">
          <mxGeometry width="50" height="50" relative="1" as="geometry">
            <mxPoint x="35.43624161073828" y="14.575609756097565" as="sourcePoint" />
            <mxPoint x="23.624161073825523" y="15.165853658536587" as="targetPoint" />
          </mxGeometry>
        </mxCell>
        <mxCell id="xoPCMP8puYDpdrjku2z3-186" value="" style="endArrow=none;html=1;rounded=0;strokeWidth=1;fillColor=#d5e8d4;strokeColor=#82b366;entryX=0;entryY=0;entryDx=40;entryDy=25;entryPerimeter=0;" edge="1" parent="xoPCMP8puYDpdrjku2z3-181">
          <mxGeometry width="50" height="50" relative="1" as="geometry">
            <mxPoint x="64.91946308724836" y="14.165853658536587" as="sourcePoint" />
            <mxPoint x="53.10738255033561" y="14.756097560975604" as="targetPoint" />
          </mxGeometry>
        </mxCell>
        <mxCell id="xoPCMP8puYDpdrjku2z3-187" value="&lt;p class=&quot;MsoNormal&quot;&gt;&lt;font face=&quot;Times New Roman&quot;&gt;&lt;span style=&quot;font-size: 10.5pt;&quot;&gt;将区块链、知识图谱和智能合约集成到CDE工作流程中&lt;/span&gt;&lt;span style=&quot;font-size: 10.5pt;&quot;&gt;&lt;/span&gt;&lt;/font&gt;&lt;/p&gt;" style="text;html=1;align=center;verticalAlign=middle;whiteSpace=wrap;rounded=0;" vertex="1" parent="1">
          <mxGeometry x="581.5" y="2461" width="380" height="30" as="geometry" />
        </mxCell>
        <mxCell id="xoPCMP8puYDpdrjku2z3-188" value="" style="rounded=1;whiteSpace=wrap;html=1;arcSize=7;fillColor=#f5f5f5;fontColor=#333333;strokeColor=none;" vertex="1" parent="1">
          <mxGeometry x="1085" y="2310" width="495" height="210" as="geometry" />
        </mxCell>
        <mxCell id="xoPCMP8puYDpdrjku2z3-189" value="" style="whiteSpace=wrap;html=1;aspect=fixed;rounded=1;fillColor=#fff2cc;strokeColor=#d6b656;" vertex="1" parent="1">
          <mxGeometry x="1156" y="2338" width="30" height="30" as="geometry" />
        </mxCell>
        <mxCell id="xoPCMP8puYDpdrjku2z3-190" style="edgeStyle=orthogonalEdgeStyle;rounded=0;orthogonalLoop=1;jettySize=auto;html=1;exitX=0;exitY=0.5;exitDx=0;exitDy=0;entryX=1;entryY=0.5;entryDx=0;entryDy=0;fillColor=#fff2cc;strokeColor=#d6b656;" edge="1" parent="1" source="xoPCMP8puYDpdrjku2z3-191" target="xoPCMP8puYDpdrjku2z3-189">
          <mxGeometry relative="1" as="geometry" />
        </mxCell>
        <mxCell id="xoPCMP8puYDpdrjku2z3-191" value="" style="whiteSpace=wrap;html=1;aspect=fixed;rounded=1;fillColor=#f5f5f5;strokeColor=#666666;fontColor=#333333;" vertex="1" parent="1">
          <mxGeometry x="1216" y="2338" width="30" height="30" as="geometry" />
        </mxCell>
        <mxCell id="xoPCMP8puYDpdrjku2z3-192" value="" style="whiteSpace=wrap;html=1;aspect=fixed;rounded=1;fillColor=#ffe6cc;strokeColor=#d79b00;" vertex="1" parent="1">
          <mxGeometry x="1156" y="2391" width="30" height="30" as="geometry" />
        </mxCell>
        <mxCell id="xoPCMP8puYDpdrjku2z3-193" value="" style="whiteSpace=wrap;html=1;aspect=fixed;rounded=1;fillColor=#dae8fc;strokeColor=#6c8ebf;" vertex="1" parent="1">
          <mxGeometry x="1216" y="2391" width="30" height="30" as="geometry" />
        </mxCell>
        <mxCell id="xoPCMP8puYDpdrjku2z3-194" value="" style="endArrow=classic;html=1;rounded=0;exitX=0.5;exitY=1;exitDx=0;exitDy=0;entryX=0.5;entryY=0;entryDx=0;entryDy=0;fillColor=#ffe6cc;strokeColor=#d79b00;" edge="1" parent="1" source="xoPCMP8puYDpdrjku2z3-189" target="xoPCMP8puYDpdrjku2z3-192">
          <mxGeometry width="50" height="50" relative="1" as="geometry">
            <mxPoint x="1286" y="2448" as="sourcePoint" />
            <mxPoint x="1336" y="2398" as="targetPoint" />
          </mxGeometry>
        </mxCell>
        <mxCell id="xoPCMP8puYDpdrjku2z3-195" value="" style="endArrow=classic;html=1;rounded=0;exitX=1;exitY=0.5;exitDx=0;exitDy=0;entryX=0;entryY=0.5;entryDx=0;entryDy=0;fillColor=#dae8fc;strokeColor=#6c8ebf;" edge="1" parent="1" source="xoPCMP8puYDpdrjku2z3-192" target="xoPCMP8puYDpdrjku2z3-193">
          <mxGeometry width="50" height="50" relative="1" as="geometry">
            <mxPoint x="1181" y="2378" as="sourcePoint" />
            <mxPoint x="1181" y="2401" as="targetPoint" />
          </mxGeometry>
        </mxCell>
        <UserObject label="CDE" tooltip="Common Data Environment " id="xoPCMP8puYDpdrjku2z3-196">
          <mxCell style="text;html=1;align=center;verticalAlign=middle;whiteSpace=wrap;rounded=0;fontStyle=3;labelBorderColor=none;" vertex="1" parent="1">
            <mxGeometry x="1173" y="2365" width="60" height="30" as="geometry" />
          </mxCell>
        </UserObject>
        <mxCell id="xoPCMP8puYDpdrjku2z3-197" value="&lt;div style=&quot;line-height: 70%;&quot;&gt;&lt;div&gt;&lt;p class=&quot;MsoNormal&quot;&gt;&lt;span style=&quot;font-size: 10.5pt; line-height: 70%;&quot;&gt;&lt;font&gt;确定需要进行合规性&lt;/font&gt;&lt;/span&gt;&lt;/p&gt;&lt;p class=&quot;MsoNormal&quot;&gt;&lt;span style=&quot;font-size: 10.5pt; line-height: 70%;&quot;&gt;&lt;font&gt;检查的活动&lt;/font&gt;&lt;/span&gt;&lt;span style=&quot;font-size: 10.5pt;&quot;&gt;&lt;/span&gt;&lt;/p&gt;&lt;/div&gt;&lt;/div&gt;" style="text;html=1;align=center;verticalAlign=middle;whiteSpace=wrap;rounded=0;spacing=2;horizontal=1;fontFamily=Times New Roman;" vertex="1" parent="1">
          <mxGeometry x="1120.5" y="2446" width="168.5" height="49" as="geometry" />
        </mxCell>
        <mxCell id="xoPCMP8puYDpdrjku2z3-198" value="" style="group" vertex="1" connectable="0" parent="1">
          <mxGeometry x="1233" y="2333" width="20" height="20" as="geometry" />
        </mxCell>
        <mxCell id="xoPCMP8puYDpdrjku2z3-199" value="" style="group;aspect=fixed;" vertex="1" connectable="0" parent="xoPCMP8puYDpdrjku2z3-198">
          <mxGeometry width="20" height="20" as="geometry" />
        </mxCell>
        <mxCell id="xoPCMP8puYDpdrjku2z3-200" value="" style="ellipse;whiteSpace=wrap;html=1;aspect=fixed;fillColor=#008a00;strokeColor=#005700;fontColor=#ffffff;container=0;" vertex="1" parent="xoPCMP8puYDpdrjku2z3-199">
          <mxGeometry width="20" height="20" as="geometry" />
        </mxCell>
        <mxCell id="xoPCMP8puYDpdrjku2z3-201" value="" style="verticalLabelPosition=bottom;verticalAlign=top;html=1;shape=mxgraph.basic.tick;strokeColor=none;" vertex="1" parent="xoPCMP8puYDpdrjku2z3-198">
          <mxGeometry x="5" y="2.6923076923076925" width="10.5" height="14.615384615384617" as="geometry" />
        </mxCell>
        <mxCell id="xoPCMP8puYDpdrjku2z3-202" value="" style="group" vertex="1" connectable="0" parent="1">
          <mxGeometry x="1143" y="2333" width="20" height="20" as="geometry" />
        </mxCell>
        <mxCell id="xoPCMP8puYDpdrjku2z3-203" value="" style="group;aspect=fixed;" vertex="1" connectable="0" parent="xoPCMP8puYDpdrjku2z3-202">
          <mxGeometry width="20" height="20" as="geometry" />
        </mxCell>
        <mxCell id="xoPCMP8puYDpdrjku2z3-204" value="" style="ellipse;whiteSpace=wrap;html=1;aspect=fixed;fillColor=#008a00;strokeColor=#005700;fontColor=#ffffff;container=0;" vertex="1" parent="xoPCMP8puYDpdrjku2z3-203">
          <mxGeometry width="20" height="20" as="geometry" />
        </mxCell>
        <mxCell id="xoPCMP8puYDpdrjku2z3-205" value="" style="verticalLabelPosition=bottom;verticalAlign=top;html=1;shape=mxgraph.basic.tick;strokeColor=none;" vertex="1" parent="xoPCMP8puYDpdrjku2z3-202">
          <mxGeometry x="5" y="2.6923076923076925" width="10.5" height="14.615384615384617" as="geometry" />
        </mxCell>
        <mxCell id="xoPCMP8puYDpdrjku2z3-206" value="" style="group" vertex="1" connectable="0" parent="1">
          <mxGeometry x="1143" y="2383" width="20" height="20" as="geometry" />
        </mxCell>
        <mxCell id="xoPCMP8puYDpdrjku2z3-207" value="" style="group;aspect=fixed;" vertex="1" connectable="0" parent="xoPCMP8puYDpdrjku2z3-206">
          <mxGeometry width="20" height="20" as="geometry" />
        </mxCell>
        <mxCell id="xoPCMP8puYDpdrjku2z3-208" value="" style="ellipse;whiteSpace=wrap;html=1;aspect=fixed;fillColor=#008a00;strokeColor=#005700;fontColor=#ffffff;container=0;" vertex="1" parent="xoPCMP8puYDpdrjku2z3-207">
          <mxGeometry width="20" height="20" as="geometry" />
        </mxCell>
        <mxCell id="xoPCMP8puYDpdrjku2z3-209" value="" style="verticalLabelPosition=bottom;verticalAlign=top;html=1;shape=mxgraph.basic.tick;strokeColor=none;" vertex="1" parent="xoPCMP8puYDpdrjku2z3-206">
          <mxGeometry x="5" y="2.6923076923076925" width="10.5" height="14.615384615384617" as="geometry" />
        </mxCell>
        <mxCell id="xoPCMP8puYDpdrjku2z3-210" value="" style="group" vertex="1" connectable="0" parent="1">
          <mxGeometry x="1336" y="2356" width="48.5" height="57" as="geometry" />
        </mxCell>
        <mxCell id="xoPCMP8puYDpdrjku2z3-211" value="" style="sketch=0;pointerEvents=1;shadow=0;dashed=0;html=1;strokeColor=#001DBC;fillColor=#0050ef;labelPosition=center;verticalLabelPosition=bottom;verticalAlign=top;outlineConnect=0;align=center;shape=mxgraph.office.concepts.documents;aspect=fixed;fontColor=#ffffff;" vertex="1" parent="xoPCMP8puYDpdrjku2z3-210">
          <mxGeometry width="48.420297567164965" height="56.90118605014116" as="geometry" />
        </mxCell>
        <mxCell id="xoPCMP8puYDpdrjku2z3-212" value="" style="html=1;shadow=0;dashed=0;align=center;verticalAlign=middle;shape=mxgraph.arrows2.arrow;dy=0.66;dx=21;notch=0;fillColor=#808080;fontColor=#333333;strokeColor=#666666;" vertex="1" parent="1">
          <mxGeometry x="1265" y="2363" width="50" height="35" as="geometry" />
        </mxCell>
        <mxCell id="xoPCMP8puYDpdrjku2z3-213" value="" style="sketch=0;pointerEvents=1;shadow=0;dashed=0;html=1;strokeColor=#3700CC;fillColor=#6a00ff;labelPosition=center;verticalLabelPosition=bottom;verticalAlign=top;outlineConnect=0;align=center;shape=mxgraph.office.concepts.documents;aspect=fixed;fontColor=#ffffff;" vertex="1" parent="1">
          <mxGeometry x="1396" y="2356" width="48.420297567164965" height="56.90118605014116" as="geometry" />
        </mxCell>
        <mxCell id="xoPCMP8puYDpdrjku2z3-214" value="" style="sketch=0;pointerEvents=1;shadow=0;dashed=0;html=1;strokeColor=#B20000;fillColor=#e51400;labelPosition=center;verticalLabelPosition=bottom;verticalAlign=top;outlineConnect=0;align=center;shape=mxgraph.office.concepts.documents;aspect=fixed;fontColor=#ffffff;" vertex="1" parent="1">
          <mxGeometry x="1456" y="2356" width="48.420297567164965" height="56.90118605014116" as="geometry" />
        </mxCell>
        <mxCell id="xoPCMP8puYDpdrjku2z3-215" value="&lt;div style=&quot;line-height: 70%;&quot;&gt;&lt;p class=&quot;MsoNormal&quot;&gt;&lt;span style=&quot;font-size: 10.5pt; line-height: 70%;&quot;&gt;&lt;font&gt;确定事务中已检查的&lt;/font&gt;&lt;/span&gt;&lt;/p&gt;&lt;p class=&quot;MsoNormal&quot;&gt;&lt;span style=&quot;font-size: 10.5pt; line-height: 70%;&quot;&gt;&lt;font&gt;元数据&lt;/font&gt;&lt;/span&gt;&lt;/p&gt;&lt;/div&gt;" style="text;html=1;align=center;verticalAlign=middle;whiteSpace=wrap;rounded=0;spacing=2;horizontal=1;fontFamily=Times New Roman;" vertex="1" parent="1">
          <mxGeometry x="1340.5" y="2446" width="168.5" height="49" as="geometry" />
        </mxCell>
        <mxCell id="xoPCMP8puYDpdrjku2z3-216" value="" style="html=1;shadow=0;dashed=0;align=center;verticalAlign=middle;shape=mxgraph.arrows2.arrow;dy=0.6;dx=40;notch=0;fillColor=#76608a;fontColor=#ffffff;strokeColor=#432D57;" vertex="1" parent="1">
          <mxGeometry x="1039" y="2387" width="33" height="70" as="geometry" />
        </mxCell>
        <mxCell id="xoPCMP8puYDpdrjku2z3-217" value="&lt;div&gt;&lt;i&gt;&lt;b&gt;&lt;font style=&quot;font-size: 13px; color: rgb(102, 0, 204);&quot;&gt;开发和评估&lt;/font&gt;&lt;/b&gt;&lt;/i&gt;&lt;/div&gt;&lt;div&gt;&lt;i&gt;&lt;b&gt;&lt;font style=&quot;font-size: 13px; color: rgb(102, 0, 204);&quot;&gt;SSC&lt;/font&gt;&lt;/b&gt;&lt;/i&gt;&lt;/div&gt;" style="text;html=1;align=left;verticalAlign=middle;whiteSpace=wrap;rounded=0;" vertex="1" parent="1">
          <mxGeometry x="415" y="2336" width="79" height="157.1" as="geometry" />
        </mxCell>
        <mxCell id="xoPCMP8puYDpdrjku2z3-218" value="" style="ellipse;whiteSpace=wrap;html=1;aspect=fixed;fillColor=#e3c800;fontColor=#000000;strokeColor=none;" vertex="1" parent="1">
          <mxGeometry x="609" y="2015" width="13" height="13" as="geometry" />
        </mxCell>
        <mxCell id="xoPCMP8puYDpdrjku2z3-219" value="" style="ellipse;whiteSpace=wrap;html=1;aspect=fixed;fillColor=#e3c800;fontColor=#000000;strokeColor=none;" vertex="1" parent="1">
          <mxGeometry x="577" y="2061" width="13" height="13" as="geometry" />
        </mxCell>
        <mxCell id="xoPCMP8puYDpdrjku2z3-221" value="" style="ellipse;whiteSpace=wrap;html=1;aspect=fixed;fillColor=#0050ef;fontColor=#ffffff;strokeColor=#001DBC;" vertex="1" parent="1">
          <mxGeometry x="600" y="2068" width="8" height="8" as="geometry" />
        </mxCell>
        <mxCell id="xoPCMP8puYDpdrjku2z3-224" value="" style="ellipse;whiteSpace=wrap;html=1;aspect=fixed;fillColor=#0050ef;fontColor=#ffffff;strokeColor=#001DBC;" vertex="1" parent="1">
          <mxGeometry x="580" y="2023" width="11" height="11" as="geometry" />
        </mxCell>
        <mxCell id="xoPCMP8puYDpdrjku2z3-225" value="" style="ellipse;whiteSpace=wrap;html=1;aspect=fixed;fillColor=#000066;fontColor=#ffffff;strokeColor=#3700CC;" vertex="1" parent="1">
          <mxGeometry x="1150" y="2060" width="20" height="20" as="geometry" />
        </mxCell>
        <mxCell id="xoPCMP8puYDpdrjku2z3-226" value="" style="ellipse;whiteSpace=wrap;html=1;aspect=fixed;fillColor=#008a00;fontColor=#ffffff;strokeColor=#005700;" vertex="1" parent="1">
          <mxGeometry x="644" y="2041" width="11" height="11" as="geometry" />
        </mxCell>
        <mxCell id="xoPCMP8puYDpdrjku2z3-227" value="" style="ellipse;whiteSpace=wrap;html=1;aspect=fixed;fillColor=#a20025;fontColor=#ffffff;strokeColor=#6F0000;" vertex="1" parent="1">
          <mxGeometry x="597" y="2090" width="11" height="11" as="geometry" />
        </mxCell>
        <mxCell id="xoPCMP8puYDpdrjku2z3-229" value="" style="ellipse;whiteSpace=wrap;html=1;aspect=fixed;fillColor=#e51400;fontColor=#ffffff;strokeColor=none;" vertex="1" parent="1">
          <mxGeometry x="600" y="2044" width="8" height="8" as="geometry" />
        </mxCell>
        <mxCell id="xoPCMP8puYDpdrjku2z3-230" value="" style="ellipse;whiteSpace=wrap;html=1;aspect=fixed;fillColor=#e3c800;fontColor=#000000;strokeColor=none;" vertex="1" parent="1">
          <mxGeometry x="624" y="2036" width="8" height="8" as="geometry" />
        </mxCell>
        <mxCell id="xoPCMP8puYDpdrjku2z3-234" value="" style="ellipse;whiteSpace=wrap;html=1;aspect=fixed;fillColor=#e3c800;fontColor=#000000;strokeColor=none;" vertex="1" parent="1">
          <mxGeometry x="649" y="2070" width="8" height="8" as="geometry" />
        </mxCell>
        <mxCell id="xoPCMP8puYDpdrjku2z3-235" value="" style="ellipse;whiteSpace=wrap;html=1;aspect=fixed;fillColor=#0050ef;fontColor=#ffffff;strokeColor=#001DBC;" vertex="1" parent="1">
          <mxGeometry x="587" y="2110" width="8" height="8" as="geometry" />
        </mxCell>
        <mxCell id="xoPCMP8puYDpdrjku2z3-236" value="" style="ellipse;whiteSpace=wrap;html=1;aspect=fixed;fillColor=#d80073;fontColor=#ffffff;strokeColor=#A50040;" vertex="1" parent="1">
          <mxGeometry x="632" y="2081" width="8" height="8" as="geometry" />
        </mxCell>
        <mxCell id="xoPCMP8puYDpdrjku2z3-237" value="" style="ellipse;whiteSpace=wrap;html=1;aspect=fixed;fillColor=#1ba1e2;fontColor=#ffffff;strokeColor=#006EAF;" vertex="1" parent="1">
          <mxGeometry x="649" y="2099" width="8" height="8" as="geometry" />
        </mxCell>
        <mxCell id="xoPCMP8puYDpdrjku2z3-238" value="" style="ellipse;whiteSpace=wrap;html=1;aspect=fixed;fillColor=#008a00;fontColor=#ffffff;strokeColor=#005700;" vertex="1" parent="1">
          <mxGeometry x="622" y="2107" width="8" height="8" as="geometry" />
        </mxCell>
        <mxCell id="xoPCMP8puYDpdrjku2z3-239" value="" style="group;aspect=fixed;" vertex="1" connectable="0" parent="1">
          <mxGeometry x="789.06" y="2019" width="37" height="43.48" as="geometry" />
        </mxCell>
        <mxCell id="xoPCMP8puYDpdrjku2z3-240" value="" style="sketch=0;pointerEvents=1;shadow=0;dashed=0;html=1;strokeColor=#001DBC;fillColor=#0050ef;labelPosition=center;verticalLabelPosition=bottom;verticalAlign=top;outlineConnect=0;align=center;shape=mxgraph.office.concepts.documents;aspect=fixed;fontColor=#ffffff;" vertex="1" parent="xoPCMP8puYDpdrjku2z3-239">
          <mxGeometry width="36.91765119363687" height="43.38383373603753" as="geometry" />
        </mxCell>
        <mxCell id="xoPCMP8puYDpdrjku2z3-241" value="" style="html=1;shadow=0;dashed=0;align=center;verticalAlign=middle;shape=mxgraph.arrows2.arrow;dy=0.66;dx=21;notch=0;fillColor=#808080;fontColor=#333333;strokeColor=#666666;aspect=fixed;" vertex="1" parent="1">
          <mxGeometry x="703.06" y="2055" width="48" height="33.6" as="geometry" />
        </mxCell>
        <mxCell id="xoPCMP8puYDpdrjku2z3-242" value="" style="sketch=0;pointerEvents=1;shadow=0;dashed=0;html=1;strokeColor=#3700CC;fillColor=#6a00ff;labelPosition=center;verticalLabelPosition=bottom;verticalAlign=top;outlineConnect=0;align=center;shape=mxgraph.office.concepts.documents;aspect=fixed;fontColor=#ffffff;" vertex="1" parent="1">
          <mxGeometry x="849.06" y="2019" width="37" height="43.48" as="geometry" />
        </mxCell>
        <mxCell id="xoPCMP8puYDpdrjku2z3-243" value="" style="sketch=0;pointerEvents=1;shadow=0;dashed=0;html=1;strokeColor=#B20000;fillColor=#e51400;labelPosition=center;verticalLabelPosition=bottom;verticalAlign=top;outlineConnect=0;align=center;shape=mxgraph.office.concepts.documents;aspect=fixed;fontColor=#ffffff;" vertex="1" parent="1">
          <mxGeometry x="909.06" y="2019" width="37" height="43.48" as="geometry" />
        </mxCell>
        <mxCell id="xoPCMP8puYDpdrjku2z3-244" value="" style="group;aspect=fixed;" vertex="1" connectable="0" parent="1">
          <mxGeometry x="790.03" y="2079" width="38.91" height="41.44" as="geometry" />
        </mxCell>
        <mxCell id="xoPCMP8puYDpdrjku2z3-245" value="" style="ellipse;whiteSpace=wrap;html=1;aspect=fixed;fillColor=#f0a30a;strokeColor=#BD7000;fontColor=#000000;" vertex="1" parent="xoPCMP8puYDpdrjku2z3-244">
          <mxGeometry x="7.295624999999997" width="7.291805723689665" height="7.291805723689665" as="geometry" />
        </mxCell>
        <mxCell id="xoPCMP8puYDpdrjku2z3-246" value="" style="ellipse;whiteSpace=wrap;html=1;aspect=fixed;fillColor=#0050ef;strokeColor=#001DBC;fontColor=#ffffff;" vertex="1" parent="xoPCMP8puYDpdrjku2z3-244">
          <mxGeometry x="31.614375000000006" y="17.06352941176472" width="7.291805723689665" height="7.291805723689665" as="geometry" />
        </mxCell>
        <mxCell id="xoPCMP8puYDpdrjku2z3-247" value="" style="ellipse;whiteSpace=wrap;html=1;aspect=fixed;fillColor=#d80073;strokeColor=#A50040;fontColor=#ffffff;" vertex="1" parent="xoPCMP8puYDpdrjku2z3-244">
          <mxGeometry x="24.31875" width="7.291805723689665" height="7.291805723689665" as="geometry" />
        </mxCell>
        <mxCell id="xoPCMP8puYDpdrjku2z3-248" value="" style="ellipse;whiteSpace=wrap;html=1;aspect=fixed;fillColor=#0050ef;strokeColor=#001DBC;fontColor=#ffffff;" vertex="1" parent="xoPCMP8puYDpdrjku2z3-244">
          <mxGeometry y="17.06352941176472" width="7.291805723689665" height="7.291805723689665" as="geometry" />
        </mxCell>
        <mxCell id="xoPCMP8puYDpdrjku2z3-249" value="" style="ellipse;whiteSpace=wrap;html=1;aspect=fixed;fillColor=#d80073;strokeColor=#A50040;fontColor=#ffffff;" vertex="1" parent="xoPCMP8puYDpdrjku2z3-244">
          <mxGeometry x="7.295624999999997" y="34.12705882352944" width="7.291805723689665" height="7.291805723689665" as="geometry" />
        </mxCell>
        <mxCell id="xoPCMP8puYDpdrjku2z3-250" value="" style="ellipse;whiteSpace=wrap;html=1;aspect=fixed;fillColor=#f0a30a;strokeColor=#BD7000;fontColor=#000000;" vertex="1" parent="xoPCMP8puYDpdrjku2z3-244">
          <mxGeometry x="24.31875" y="34.12705882352944" width="7.291805723689665" height="7.291805723689665" as="geometry" />
        </mxCell>
        <mxCell id="xoPCMP8puYDpdrjku2z3-251" value="" style="endArrow=none;html=1;rounded=0;entryX=0;entryY=1;entryDx=0;entryDy=0;exitX=0.5;exitY=0;exitDx=0;exitDy=0;strokeWidth=1;fillColor=#dae8fc;strokeColor=#6c8ebf;" edge="1" parent="xoPCMP8puYDpdrjku2z3-244" source="xoPCMP8puYDpdrjku2z3-248" target="xoPCMP8puYDpdrjku2z3-245">
          <mxGeometry width="50" height="50" relative="1" as="geometry">
            <mxPoint x="89.97937499999993" y="-17.06352941176472" as="sourcePoint" />
            <mxPoint x="114.29812500000007" y="-41.44" as="targetPoint" />
          </mxGeometry>
        </mxCell>
        <mxCell id="xoPCMP8puYDpdrjku2z3-252" value="" style="endArrow=none;html=1;rounded=0;entryX=0;entryY=1;entryDx=0;entryDy=0;exitX=1;exitY=0;exitDx=0;exitDy=0;strokeWidth=1;fillColor=#dae8fc;strokeColor=#6c8ebf;" edge="1" parent="xoPCMP8puYDpdrjku2z3-244" source="xoPCMP8puYDpdrjku2z3-248" target="xoPCMP8puYDpdrjku2z3-247">
          <mxGeometry width="50" height="50" relative="1" as="geometry">
            <mxPoint x="8.754750000000012" y="21.938823529411764" as="sourcePoint" />
            <mxPoint x="13.132125000000004" y="11.213176470588238" as="targetPoint" />
          </mxGeometry>
        </mxCell>
        <mxCell id="xoPCMP8puYDpdrjku2z3-253" value="" style="endArrow=none;html=1;rounded=0;exitX=1;exitY=1;exitDx=0;exitDy=0;strokeWidth=1;fillColor=#dae8fc;strokeColor=#6c8ebf;entryX=0;entryY=0.5;entryDx=0;entryDy=0;" edge="1" parent="xoPCMP8puYDpdrjku2z3-244" source="xoPCMP8puYDpdrjku2z3-248" target="xoPCMP8puYDpdrjku2z3-250">
          <mxGeometry width="50" height="50" relative="1" as="geometry">
            <mxPoint x="11.186625000000005" y="22.913882352941194" as="sourcePoint" />
            <mxPoint x="21.886874999999986" y="36.56470588235298" as="targetPoint" />
          </mxGeometry>
        </mxCell>
        <mxCell id="xoPCMP8puYDpdrjku2z3-254" value="" style="endArrow=none;html=1;rounded=0;entryX=0;entryY=0;entryDx=0;entryDy=0;exitX=0.5;exitY=1;exitDx=0;exitDy=0;fillColor=#dae8fc;strokeColor=#6c8ebf;strokeWidth=1;" edge="1" parent="xoPCMP8puYDpdrjku2z3-244" source="xoPCMP8puYDpdrjku2z3-248" target="xoPCMP8puYDpdrjku2z3-249">
          <mxGeometry width="50" height="50" relative="1" as="geometry">
            <mxPoint x="11.186625000000005" y="28.27670588235296" as="sourcePoint" />
            <mxPoint x="30.15524999999998" y="39.97741176470588" as="targetPoint" />
          </mxGeometry>
        </mxCell>
        <mxCell id="xoPCMP8puYDpdrjku2z3-255" value="" style="endArrow=none;html=1;rounded=0;entryX=0;entryY=0;entryDx=0;entryDy=0;exitX=1;exitY=1;exitDx=0;exitDy=0;strokeWidth=1;fillColor=#dae8fc;strokeColor=#6c8ebf;" edge="1" parent="xoPCMP8puYDpdrjku2z3-244" source="xoPCMP8puYDpdrjku2z3-245" target="xoPCMP8puYDpdrjku2z3-246">
          <mxGeometry width="50" height="50" relative="1" as="geometry">
            <mxPoint x="8.754750000000012" y="21.938823529411764" as="sourcePoint" />
            <mxPoint x="13.132125000000004" y="11.213176470588238" as="targetPoint" />
          </mxGeometry>
        </mxCell>
        <mxCell id="xoPCMP8puYDpdrjku2z3-256" value="" style="endArrow=none;html=1;rounded=0;entryX=0.5;entryY=1;entryDx=0;entryDy=0;exitX=1;exitY=0;exitDx=0;exitDy=0;strokeWidth=1;fillColor=#dae8fc;strokeColor=#6c8ebf;" edge="1" parent="xoPCMP8puYDpdrjku2z3-244" source="xoPCMP8puYDpdrjku2z3-250" target="xoPCMP8puYDpdrjku2z3-246">
          <mxGeometry width="50" height="50" relative="1" as="geometry">
            <mxPoint x="13.618499999999989" y="26.81411764705884" as="sourcePoint" />
            <mxPoint x="17.99587500000001" y="16.088470588235303" as="targetPoint" />
          </mxGeometry>
        </mxCell>
        <mxCell id="xoPCMP8puYDpdrjku2z3-257" value="" style="endArrow=none;html=1;rounded=0;entryX=0.5;entryY=0;entryDx=0;entryDy=0;exitX=1;exitY=1;exitDx=0;exitDy=0;strokeWidth=1;fillColor=#dae8fc;strokeColor=#6c8ebf;" edge="1" parent="xoPCMP8puYDpdrjku2z3-244" source="xoPCMP8puYDpdrjku2z3-247" target="xoPCMP8puYDpdrjku2z3-246">
          <mxGeometry width="50" height="50" relative="1" as="geometry">
            <mxPoint x="18.48224999999997" y="31.689411764705927" as="sourcePoint" />
            <mxPoint x="22.859624999999998" y="20.96376470588238" as="targetPoint" />
          </mxGeometry>
        </mxCell>
        <mxCell id="xoPCMP8puYDpdrjku2z3-258" value="" style="endArrow=none;html=1;rounded=0;entryX=0;entryY=1;entryDx=0;entryDy=0;exitX=1;exitY=0.5;exitDx=0;exitDy=0;strokeWidth=1;fillColor=#dae8fc;strokeColor=#6c8ebf;" edge="1" parent="xoPCMP8puYDpdrjku2z3-244" source="xoPCMP8puYDpdrjku2z3-249" target="xoPCMP8puYDpdrjku2z3-246">
          <mxGeometry width="50" height="50" relative="1" as="geometry">
            <mxPoint x="23.346" y="36.56470588235298" as="sourcePoint" />
            <mxPoint x="27.723374999999972" y="25.839058823529438" as="targetPoint" />
          </mxGeometry>
        </mxCell>
        <mxCell id="xoPCMP8puYDpdrjku2z3-260" value="" style="group;aspect=fixed;" vertex="1" connectable="0" parent="1">
          <mxGeometry x="850.03" y="2079" width="38.91" height="41.44" as="geometry" />
        </mxCell>
        <mxCell id="xoPCMP8puYDpdrjku2z3-261" value="" style="ellipse;whiteSpace=wrap;html=1;aspect=fixed;fillColor=#f0a30a;strokeColor=#BD7000;fontColor=#000000;" vertex="1" parent="xoPCMP8puYDpdrjku2z3-260">
          <mxGeometry x="7.295624999999997" width="7.291805723689665" height="7.291805723689665" as="geometry" />
        </mxCell>
        <mxCell id="xoPCMP8puYDpdrjku2z3-262" value="" style="ellipse;whiteSpace=wrap;html=1;aspect=fixed;fillColor=#0050ef;strokeColor=#001DBC;fontColor=#ffffff;" vertex="1" parent="xoPCMP8puYDpdrjku2z3-260">
          <mxGeometry x="31.614375000000006" y="17.06352941176472" width="7.291805723689665" height="7.291805723689665" as="geometry" />
        </mxCell>
        <mxCell id="xoPCMP8puYDpdrjku2z3-263" value="" style="ellipse;whiteSpace=wrap;html=1;aspect=fixed;fillColor=#d80073;strokeColor=#A50040;fontColor=#ffffff;" vertex="1" parent="xoPCMP8puYDpdrjku2z3-260">
          <mxGeometry x="24.31875" width="7.291805723689665" height="7.291805723689665" as="geometry" />
        </mxCell>
        <mxCell id="xoPCMP8puYDpdrjku2z3-264" value="" style="ellipse;whiteSpace=wrap;html=1;aspect=fixed;fillColor=#0050ef;strokeColor=#001DBC;fontColor=#ffffff;" vertex="1" parent="xoPCMP8puYDpdrjku2z3-260">
          <mxGeometry y="17.06352941176472" width="7.291805723689665" height="7.291805723689665" as="geometry" />
        </mxCell>
        <mxCell id="xoPCMP8puYDpdrjku2z3-265" value="" style="ellipse;whiteSpace=wrap;html=1;aspect=fixed;fillColor=#d80073;strokeColor=#A50040;fontColor=#ffffff;" vertex="1" parent="xoPCMP8puYDpdrjku2z3-260">
          <mxGeometry x="7.295624999999997" y="34.12705882352944" width="7.291805723689665" height="7.291805723689665" as="geometry" />
        </mxCell>
        <mxCell id="xoPCMP8puYDpdrjku2z3-266" value="" style="ellipse;whiteSpace=wrap;html=1;aspect=fixed;fillColor=#f0a30a;strokeColor=#BD7000;fontColor=#000000;" vertex="1" parent="xoPCMP8puYDpdrjku2z3-260">
          <mxGeometry x="24.31875" y="34.12705882352944" width="7.291805723689665" height="7.291805723689665" as="geometry" />
        </mxCell>
        <mxCell id="xoPCMP8puYDpdrjku2z3-267" value="" style="endArrow=none;html=1;rounded=0;entryX=0;entryY=1;entryDx=0;entryDy=0;exitX=0.5;exitY=0;exitDx=0;exitDy=0;strokeWidth=1;fillColor=#dae8fc;strokeColor=#6c8ebf;" edge="1" parent="xoPCMP8puYDpdrjku2z3-260" source="xoPCMP8puYDpdrjku2z3-264" target="xoPCMP8puYDpdrjku2z3-261">
          <mxGeometry width="50" height="50" relative="1" as="geometry">
            <mxPoint x="89.97937499999993" y="-17.06352941176472" as="sourcePoint" />
            <mxPoint x="114.29812500000007" y="-41.44" as="targetPoint" />
          </mxGeometry>
        </mxCell>
        <mxCell id="xoPCMP8puYDpdrjku2z3-268" value="" style="endArrow=none;html=1;rounded=0;entryX=0;entryY=1;entryDx=0;entryDy=0;exitX=1;exitY=0;exitDx=0;exitDy=0;strokeWidth=1;fillColor=#dae8fc;strokeColor=#6c8ebf;" edge="1" parent="xoPCMP8puYDpdrjku2z3-260" source="xoPCMP8puYDpdrjku2z3-264" target="xoPCMP8puYDpdrjku2z3-263">
          <mxGeometry width="50" height="50" relative="1" as="geometry">
            <mxPoint x="8.754750000000012" y="21.938823529411764" as="sourcePoint" />
            <mxPoint x="13.132125000000004" y="11.213176470588238" as="targetPoint" />
          </mxGeometry>
        </mxCell>
        <mxCell id="xoPCMP8puYDpdrjku2z3-269" value="" style="endArrow=none;html=1;rounded=0;exitX=1;exitY=1;exitDx=0;exitDy=0;strokeWidth=1;fillColor=#dae8fc;strokeColor=#6c8ebf;entryX=0;entryY=0.5;entryDx=0;entryDy=0;" edge="1" parent="xoPCMP8puYDpdrjku2z3-260" source="xoPCMP8puYDpdrjku2z3-264" target="xoPCMP8puYDpdrjku2z3-266">
          <mxGeometry width="50" height="50" relative="1" as="geometry">
            <mxPoint x="11.186625000000005" y="22.913882352941194" as="sourcePoint" />
            <mxPoint x="21.886874999999986" y="36.56470588235298" as="targetPoint" />
          </mxGeometry>
        </mxCell>
        <mxCell id="xoPCMP8puYDpdrjku2z3-270" value="" style="endArrow=none;html=1;rounded=0;entryX=0;entryY=0;entryDx=0;entryDy=0;exitX=0.5;exitY=1;exitDx=0;exitDy=0;fillColor=#dae8fc;strokeColor=#6c8ebf;strokeWidth=1;" edge="1" parent="xoPCMP8puYDpdrjku2z3-260" source="xoPCMP8puYDpdrjku2z3-264" target="xoPCMP8puYDpdrjku2z3-265">
          <mxGeometry width="50" height="50" relative="1" as="geometry">
            <mxPoint x="11.186625000000005" y="28.27670588235296" as="sourcePoint" />
            <mxPoint x="30.15524999999998" y="39.97741176470588" as="targetPoint" />
          </mxGeometry>
        </mxCell>
        <mxCell id="xoPCMP8puYDpdrjku2z3-271" value="" style="endArrow=none;html=1;rounded=0;entryX=0;entryY=0;entryDx=0;entryDy=0;exitX=1;exitY=1;exitDx=0;exitDy=0;strokeWidth=1;fillColor=#dae8fc;strokeColor=#6c8ebf;" edge="1" parent="xoPCMP8puYDpdrjku2z3-260" source="xoPCMP8puYDpdrjku2z3-261" target="xoPCMP8puYDpdrjku2z3-262">
          <mxGeometry width="50" height="50" relative="1" as="geometry">
            <mxPoint x="8.754750000000012" y="21.938823529411764" as="sourcePoint" />
            <mxPoint x="13.132125000000004" y="11.213176470588238" as="targetPoint" />
          </mxGeometry>
        </mxCell>
        <mxCell id="xoPCMP8puYDpdrjku2z3-272" value="" style="endArrow=none;html=1;rounded=0;entryX=0.5;entryY=1;entryDx=0;entryDy=0;exitX=1;exitY=0;exitDx=0;exitDy=0;strokeWidth=1;fillColor=#dae8fc;strokeColor=#6c8ebf;" edge="1" parent="xoPCMP8puYDpdrjku2z3-260" source="xoPCMP8puYDpdrjku2z3-266" target="xoPCMP8puYDpdrjku2z3-262">
          <mxGeometry width="50" height="50" relative="1" as="geometry">
            <mxPoint x="13.618499999999989" y="26.81411764705884" as="sourcePoint" />
            <mxPoint x="17.99587500000001" y="16.088470588235303" as="targetPoint" />
          </mxGeometry>
        </mxCell>
        <mxCell id="xoPCMP8puYDpdrjku2z3-273" value="" style="endArrow=none;html=1;rounded=0;entryX=0.5;entryY=0;entryDx=0;entryDy=0;exitX=1;exitY=1;exitDx=0;exitDy=0;strokeWidth=1;fillColor=#dae8fc;strokeColor=#6c8ebf;" edge="1" parent="xoPCMP8puYDpdrjku2z3-260" source="xoPCMP8puYDpdrjku2z3-263" target="xoPCMP8puYDpdrjku2z3-262">
          <mxGeometry width="50" height="50" relative="1" as="geometry">
            <mxPoint x="18.48224999999997" y="31.689411764705927" as="sourcePoint" />
            <mxPoint x="22.859624999999998" y="20.96376470588238" as="targetPoint" />
          </mxGeometry>
        </mxCell>
        <mxCell id="xoPCMP8puYDpdrjku2z3-274" value="" style="endArrow=none;html=1;rounded=0;entryX=0;entryY=1;entryDx=0;entryDy=0;exitX=1;exitY=0.5;exitDx=0;exitDy=0;strokeWidth=1;fillColor=#dae8fc;strokeColor=#6c8ebf;" edge="1" parent="xoPCMP8puYDpdrjku2z3-260" source="xoPCMP8puYDpdrjku2z3-265" target="xoPCMP8puYDpdrjku2z3-262">
          <mxGeometry width="50" height="50" relative="1" as="geometry">
            <mxPoint x="23.346" y="36.56470588235298" as="sourcePoint" />
            <mxPoint x="27.723374999999972" y="25.839058823529438" as="targetPoint" />
          </mxGeometry>
        </mxCell>
        <mxCell id="xoPCMP8puYDpdrjku2z3-275" value="" style="group;aspect=fixed;" vertex="1" connectable="0" parent="1">
          <mxGeometry x="911.03" y="2079" width="38.91" height="41.44" as="geometry" />
        </mxCell>
        <mxCell id="xoPCMP8puYDpdrjku2z3-276" value="" style="ellipse;whiteSpace=wrap;html=1;aspect=fixed;fillColor=#f0a30a;strokeColor=#BD7000;fontColor=#000000;" vertex="1" parent="xoPCMP8puYDpdrjku2z3-275">
          <mxGeometry x="7.295624999999997" width="7.291805723689665" height="7.291805723689665" as="geometry" />
        </mxCell>
        <mxCell id="xoPCMP8puYDpdrjku2z3-277" value="" style="ellipse;whiteSpace=wrap;html=1;aspect=fixed;fillColor=#0050ef;strokeColor=#001DBC;fontColor=#ffffff;" vertex="1" parent="xoPCMP8puYDpdrjku2z3-275">
          <mxGeometry x="31.614375000000006" y="17.06352941176472" width="7.291805723689665" height="7.291805723689665" as="geometry" />
        </mxCell>
        <mxCell id="xoPCMP8puYDpdrjku2z3-278" value="" style="ellipse;whiteSpace=wrap;html=1;aspect=fixed;fillColor=#d80073;strokeColor=#A50040;fontColor=#ffffff;" vertex="1" parent="xoPCMP8puYDpdrjku2z3-275">
          <mxGeometry x="24.31875" width="7.291805723689665" height="7.291805723689665" as="geometry" />
        </mxCell>
        <mxCell id="xoPCMP8puYDpdrjku2z3-279" value="" style="ellipse;whiteSpace=wrap;html=1;aspect=fixed;fillColor=#0050ef;strokeColor=#001DBC;fontColor=#ffffff;" vertex="1" parent="xoPCMP8puYDpdrjku2z3-275">
          <mxGeometry y="17.06352941176472" width="7.291805723689665" height="7.291805723689665" as="geometry" />
        </mxCell>
        <mxCell id="xoPCMP8puYDpdrjku2z3-280" value="" style="ellipse;whiteSpace=wrap;html=1;aspect=fixed;fillColor=#d80073;strokeColor=#A50040;fontColor=#ffffff;" vertex="1" parent="xoPCMP8puYDpdrjku2z3-275">
          <mxGeometry x="7.295624999999997" y="34.12705882352944" width="7.291805723689665" height="7.291805723689665" as="geometry" />
        </mxCell>
        <mxCell id="xoPCMP8puYDpdrjku2z3-281" value="" style="ellipse;whiteSpace=wrap;html=1;aspect=fixed;fillColor=#f0a30a;strokeColor=#BD7000;fontColor=#000000;" vertex="1" parent="xoPCMP8puYDpdrjku2z3-275">
          <mxGeometry x="24.31875" y="34.12705882352944" width="7.291805723689665" height="7.291805723689665" as="geometry" />
        </mxCell>
        <mxCell id="xoPCMP8puYDpdrjku2z3-282" value="" style="endArrow=none;html=1;rounded=0;entryX=0;entryY=1;entryDx=0;entryDy=0;exitX=0.5;exitY=0;exitDx=0;exitDy=0;strokeWidth=1;fillColor=#dae8fc;strokeColor=#6c8ebf;" edge="1" parent="xoPCMP8puYDpdrjku2z3-275" source="xoPCMP8puYDpdrjku2z3-279" target="xoPCMP8puYDpdrjku2z3-276">
          <mxGeometry width="50" height="50" relative="1" as="geometry">
            <mxPoint x="89.97937499999993" y="-17.06352941176472" as="sourcePoint" />
            <mxPoint x="114.29812500000007" y="-41.44" as="targetPoint" />
          </mxGeometry>
        </mxCell>
        <mxCell id="xoPCMP8puYDpdrjku2z3-283" value="" style="endArrow=none;html=1;rounded=0;entryX=0;entryY=1;entryDx=0;entryDy=0;exitX=1;exitY=0;exitDx=0;exitDy=0;strokeWidth=1;fillColor=#dae8fc;strokeColor=#6c8ebf;" edge="1" parent="xoPCMP8puYDpdrjku2z3-275" source="xoPCMP8puYDpdrjku2z3-279" target="xoPCMP8puYDpdrjku2z3-278">
          <mxGeometry width="50" height="50" relative="1" as="geometry">
            <mxPoint x="8.754750000000012" y="21.938823529411764" as="sourcePoint" />
            <mxPoint x="13.132125000000004" y="11.213176470588238" as="targetPoint" />
          </mxGeometry>
        </mxCell>
        <mxCell id="xoPCMP8puYDpdrjku2z3-284" value="" style="endArrow=none;html=1;rounded=0;exitX=1;exitY=1;exitDx=0;exitDy=0;strokeWidth=1;fillColor=#dae8fc;strokeColor=#6c8ebf;entryX=0;entryY=0.5;entryDx=0;entryDy=0;" edge="1" parent="xoPCMP8puYDpdrjku2z3-275" source="xoPCMP8puYDpdrjku2z3-279" target="xoPCMP8puYDpdrjku2z3-281">
          <mxGeometry width="50" height="50" relative="1" as="geometry">
            <mxPoint x="11.186625000000005" y="22.913882352941194" as="sourcePoint" />
            <mxPoint x="21.886874999999986" y="36.56470588235298" as="targetPoint" />
          </mxGeometry>
        </mxCell>
        <mxCell id="xoPCMP8puYDpdrjku2z3-285" value="" style="endArrow=none;html=1;rounded=0;entryX=0;entryY=0;entryDx=0;entryDy=0;exitX=0.5;exitY=1;exitDx=0;exitDy=0;fillColor=#dae8fc;strokeColor=#6c8ebf;strokeWidth=1;" edge="1" parent="xoPCMP8puYDpdrjku2z3-275" source="xoPCMP8puYDpdrjku2z3-279" target="xoPCMP8puYDpdrjku2z3-280">
          <mxGeometry width="50" height="50" relative="1" as="geometry">
            <mxPoint x="11.186625000000005" y="28.27670588235296" as="sourcePoint" />
            <mxPoint x="30.15524999999998" y="39.97741176470588" as="targetPoint" />
          </mxGeometry>
        </mxCell>
        <mxCell id="xoPCMP8puYDpdrjku2z3-286" value="" style="endArrow=none;html=1;rounded=0;entryX=0;entryY=0;entryDx=0;entryDy=0;exitX=1;exitY=1;exitDx=0;exitDy=0;strokeWidth=1;fillColor=#dae8fc;strokeColor=#6c8ebf;" edge="1" parent="xoPCMP8puYDpdrjku2z3-275" source="xoPCMP8puYDpdrjku2z3-276" target="xoPCMP8puYDpdrjku2z3-277">
          <mxGeometry width="50" height="50" relative="1" as="geometry">
            <mxPoint x="8.754750000000012" y="21.938823529411764" as="sourcePoint" />
            <mxPoint x="13.132125000000004" y="11.213176470588238" as="targetPoint" />
          </mxGeometry>
        </mxCell>
        <mxCell id="xoPCMP8puYDpdrjku2z3-287" value="" style="endArrow=none;html=1;rounded=0;entryX=0.5;entryY=1;entryDx=0;entryDy=0;exitX=1;exitY=0;exitDx=0;exitDy=0;strokeWidth=1;fillColor=#dae8fc;strokeColor=#6c8ebf;" edge="1" parent="xoPCMP8puYDpdrjku2z3-275" source="xoPCMP8puYDpdrjku2z3-281" target="xoPCMP8puYDpdrjku2z3-277">
          <mxGeometry width="50" height="50" relative="1" as="geometry">
            <mxPoint x="13.618499999999989" y="26.81411764705884" as="sourcePoint" />
            <mxPoint x="17.99587500000001" y="16.088470588235303" as="targetPoint" />
          </mxGeometry>
        </mxCell>
        <mxCell id="xoPCMP8puYDpdrjku2z3-288" value="" style="endArrow=none;html=1;rounded=0;entryX=0.5;entryY=0;entryDx=0;entryDy=0;exitX=1;exitY=1;exitDx=0;exitDy=0;strokeWidth=1;fillColor=#dae8fc;strokeColor=#6c8ebf;" edge="1" parent="xoPCMP8puYDpdrjku2z3-275" source="xoPCMP8puYDpdrjku2z3-278" target="xoPCMP8puYDpdrjku2z3-277">
          <mxGeometry width="50" height="50" relative="1" as="geometry">
            <mxPoint x="18.48224999999997" y="31.689411764705927" as="sourcePoint" />
            <mxPoint x="22.859624999999998" y="20.96376470588238" as="targetPoint" />
          </mxGeometry>
        </mxCell>
        <mxCell id="xoPCMP8puYDpdrjku2z3-289" value="" style="endArrow=none;html=1;rounded=0;entryX=0;entryY=1;entryDx=0;entryDy=0;exitX=1;exitY=0.5;exitDx=0;exitDy=0;strokeWidth=1;fillColor=#dae8fc;strokeColor=#6c8ebf;" edge="1" parent="xoPCMP8puYDpdrjku2z3-275" source="xoPCMP8puYDpdrjku2z3-280" target="xoPCMP8puYDpdrjku2z3-277">
          <mxGeometry width="50" height="50" relative="1" as="geometry">
            <mxPoint x="23.346" y="36.56470588235298" as="sourcePoint" />
            <mxPoint x="27.723374999999972" y="25.839058823529438" as="targetPoint" />
          </mxGeometry>
        </mxCell>
        <mxCell id="xoPCMP8puYDpdrjku2z3-291" value="&lt;div style=&quot;line-height: 70%;&quot;&gt;&lt;div&gt;&lt;p class=&quot;MsoNormal&quot;&gt;&lt;span style=&quot;line-height: 70%;&quot;&gt;&lt;font&gt;从 ISO 19650 抽取实体和关系&lt;/font&gt;&lt;/span&gt;&lt;span&gt;&lt;/span&gt;&lt;/p&gt;&lt;/div&gt;&lt;/div&gt;" style="text;html=1;align=center;verticalAlign=middle;whiteSpace=wrap;rounded=0;spacing=2;horizontal=1;fontFamily=Times New Roman;fontSize=11;" vertex="1" parent="1">
          <mxGeometry x="543" y="2137" width="168.5" height="49" as="geometry" />
        </mxCell>
        <mxCell id="xoPCMP8puYDpdrjku2z3-292" value="为分类的元数据建立知识图谱" style="text;html=1;align=center;verticalAlign=middle;whiteSpace=wrap;rounded=0;spacing=2;horizontal=1;fontFamily=Times New Roman;fontSize=11;" vertex="1" parent="1">
          <mxGeometry x="792" y="2137" width="168.5" height="49" as="geometry" />
        </mxCell>
        <mxCell id="xoPCMP8puYDpdrjku2z3-294" value="" style="ellipse;whiteSpace=wrap;html=1;aspect=fixed;fillColor=#000066;fontColor=#ffffff;strokeColor=#3700CC;" vertex="1" parent="1">
          <mxGeometry x="1165" y="2031" width="14" height="14" as="geometry" />
        </mxCell>
        <mxCell id="xoPCMP8puYDpdrjku2z3-295" value="" style="ellipse;whiteSpace=wrap;html=1;aspect=fixed;fillColor=#000066;fontColor=#ffffff;strokeColor=#3700CC;" vertex="1" parent="1">
          <mxGeometry x="1127" y="2070" width="14" height="14" as="geometry" />
        </mxCell>
        <mxCell id="xoPCMP8puYDpdrjku2z3-296" value="" style="ellipse;whiteSpace=wrap;html=1;aspect=fixed;fillColor=#000066;fontColor=#ffffff;strokeColor=#3700CC;" vertex="1" parent="1">
          <mxGeometry x="1150" y="2090" width="14" height="14" as="geometry" />
        </mxCell>
        <mxCell id="xoPCMP8puYDpdrjku2z3-297" value="" style="ellipse;whiteSpace=wrap;html=1;aspect=fixed;fillColor=#000066;fontColor=#ffffff;strokeColor=#3700CC;" vertex="1" parent="1">
          <mxGeometry x="1186" y="2070" width="14" height="14" as="geometry" />
        </mxCell>
        <mxCell id="xoPCMP8puYDpdrjku2z3-298" value="" style="ellipse;whiteSpace=wrap;html=1;aspect=fixed;fillColor=#000066;fontColor=#ffffff;strokeColor=#3700CC;" vertex="1" parent="1">
          <mxGeometry x="1127" y="2039" width="14" height="14" as="geometry" />
        </mxCell>
        <mxCell id="xoPCMP8puYDpdrjku2z3-299" value="" style="endArrow=none;html=1;rounded=0;entryX=0.65;entryY=0.203;entryDx=0;entryDy=0;entryPerimeter=0;strokeWidth=4;strokeColor=#000066;" edge="1" parent="1" source="xoPCMP8puYDpdrjku2z3-300" target="xoPCMP8puYDpdrjku2z3-225">
          <mxGeometry width="50" height="50" relative="1" as="geometry">
            <mxPoint x="1110" y="1970" as="sourcePoint" />
            <mxPoint x="1160" y="1920" as="targetPoint" />
          </mxGeometry>
        </mxCell>
        <mxCell id="xoPCMP8puYDpdrjku2z3-300" value="" style="shape=waypoint;sketch=0;fillStyle=solid;size=6;pointerEvents=1;points=[];fillColor=none;resizable=0;rotatable=0;perimeter=centerPerimeter;snapToPoint=1;strokeWidth=1;" vertex="1" parent="1">
          <mxGeometry x="1161" y="2031" width="20" height="20" as="geometry" />
        </mxCell>
        <mxCell id="xoPCMP8puYDpdrjku2z3-301" value="" style="endArrow=none;html=1;rounded=0;entryX=0;entryY=0;entryDx=0;entryDy=0;strokeWidth=4;strokeColor=#000066;" edge="1" parent="1" source="xoPCMP8puYDpdrjku2z3-302" target="xoPCMP8puYDpdrjku2z3-225">
          <mxGeometry width="50" height="50" relative="1" as="geometry">
            <mxPoint x="1120" y="1980" as="sourcePoint" />
            <mxPoint x="1173" y="2074" as="targetPoint" />
          </mxGeometry>
        </mxCell>
        <mxCell id="xoPCMP8puYDpdrjku2z3-302" value="" style="shape=waypoint;sketch=0;fillStyle=solid;size=6;pointerEvents=1;points=[];fillColor=none;resizable=0;rotatable=0;perimeter=centerPerimeter;snapToPoint=1;strokeWidth=1;" vertex="1" parent="1">
          <mxGeometry x="1126" y="2037" width="20" height="20" as="geometry" />
        </mxCell>
        <mxCell id="xoPCMP8puYDpdrjku2z3-303" value="" style="endArrow=none;html=1;rounded=0;entryX=0.15;entryY=0.627;entryDx=0;entryDy=0;entryPerimeter=0;strokeWidth=4;strokeColor=#000066;" edge="1" parent="1" source="xoPCMP8puYDpdrjku2z3-304" target="xoPCMP8puYDpdrjku2z3-225">
          <mxGeometry width="50" height="50" relative="1" as="geometry">
            <mxPoint x="1130" y="1990" as="sourcePoint" />
            <mxPoint x="1183" y="2084" as="targetPoint" />
          </mxGeometry>
        </mxCell>
        <mxCell id="xoPCMP8puYDpdrjku2z3-304" value="" style="shape=waypoint;sketch=0;fillStyle=solid;size=6;pointerEvents=1;points=[];fillColor=none;resizable=0;rotatable=0;perimeter=centerPerimeter;snapToPoint=1;strokeWidth=1;" vertex="1" parent="1">
          <mxGeometry x="1124" y="2067" width="20" height="20" as="geometry" />
        </mxCell>
        <mxCell id="xoPCMP8puYDpdrjku2z3-305" value="" style="endArrow=none;html=1;rounded=0;entryX=0.5;entryY=1;entryDx=0;entryDy=0;strokeWidth=4;strokeColor=#000066;" edge="1" parent="1" source="xoPCMP8puYDpdrjku2z3-306" target="xoPCMP8puYDpdrjku2z3-225">
          <mxGeometry width="50" height="50" relative="1" as="geometry">
            <mxPoint x="1140" y="2000" as="sourcePoint" />
            <mxPoint x="1193" y="2094" as="targetPoint" />
          </mxGeometry>
        </mxCell>
        <mxCell id="xoPCMP8puYDpdrjku2z3-306" value="" style="shape=waypoint;sketch=0;fillStyle=solid;size=6;pointerEvents=1;points=[];fillColor=none;resizable=0;rotatable=0;perimeter=centerPerimeter;snapToPoint=1;strokeWidth=1;" vertex="1" parent="1">
          <mxGeometry x="1147" y="2085" width="20" height="20" as="geometry" />
        </mxCell>
        <mxCell id="xoPCMP8puYDpdrjku2z3-307" value="" style="endArrow=none;html=1;rounded=0;entryX=0.914;entryY=0.645;entryDx=0;entryDy=0;entryPerimeter=0;strokeWidth=4;strokeColor=#000066;" edge="1" parent="1" source="xoPCMP8puYDpdrjku2z3-308" target="xoPCMP8puYDpdrjku2z3-225">
          <mxGeometry width="50" height="50" relative="1" as="geometry">
            <mxPoint x="1150" y="2010" as="sourcePoint" />
            <mxPoint x="1203" y="2104" as="targetPoint" />
          </mxGeometry>
        </mxCell>
        <mxCell id="xoPCMP8puYDpdrjku2z3-308" value="" style="shape=waypoint;sketch=0;fillStyle=solid;size=6;pointerEvents=1;points=[];fillColor=none;resizable=0;rotatable=0;perimeter=centerPerimeter;snapToPoint=1;strokeWidth=1;" vertex="1" parent="1">
          <mxGeometry x="1181" y="2068" width="20" height="20" as="geometry" />
        </mxCell>
        <mxCell id="xoPCMP8puYDpdrjku2z3-309" value="&lt;div style=&quot;line-height: 100%;&quot;&gt;&lt;div&gt;&lt;font style=&quot;font-size: 11px; color: rgb(102, 0, 204);&quot;&gt;&lt;b style=&quot;color: rgb(16, 115, 158);&quot;&gt;Rule&amp;nbsp; 1&lt;/b&gt;&lt;/font&gt;&lt;/div&gt;&lt;div&gt;&lt;font style=&quot;font-size: 11px; color: rgba(0, 0, 0, 0);&quot;&gt;&lt;b style=&quot;color: rgb(16, 115, 158);&quot;&gt;&lt;br&gt;&lt;/b&gt;&lt;/font&gt;&lt;/div&gt;&lt;div&gt;&lt;font style=&quot;font-size: 11px; color: rgba(0, 0, 0, 0);&quot;&gt;&lt;b style=&quot;color: rgb(16, 115, 158);&quot;&gt;Rule&amp;nbsp; 2&lt;/b&gt;&lt;/font&gt;&lt;/div&gt;&lt;div&gt;&lt;font style=&quot;font-size: 11px; color: rgba(0, 0, 0, 0);&quot;&gt;&lt;b style=&quot;color: rgb(16, 115, 158);&quot;&gt;&lt;br&gt;&lt;/b&gt;&lt;/font&gt;&lt;/div&gt;&lt;div&gt;&lt;font style=&quot;font-size: 11px; color: rgba(0, 0, 0, 0);&quot;&gt;&lt;b style=&quot;color: rgb(16, 115, 158);&quot;&gt;Rule&amp;nbsp; 3&lt;/b&gt;&lt;/font&gt;&lt;/div&gt;&lt;div&gt;&lt;font style=&quot;font-size: 11px; color: rgba(0, 0, 0, 0);&quot;&gt;&lt;b style=&quot;color: rgb(16, 115, 158);&quot;&gt;...&lt;br&gt;&lt;/b&gt;&lt;/font&gt;&lt;/div&gt;&lt;div&gt;&lt;font style=&quot;font-size: 11px; color: rgba(0, 0, 0, 0);&quot;&gt;&lt;span style=&quot;color: rgba(0, 0, 0, 0);&quot;&gt;&lt;span style=&quot;color: rgba(0, 0, 0, 0);&quot;&gt;&lt;span style=&quot;color: rgba(0, 0, 0, 0);&quot;&gt;&lt;b&gt;&lt;br&gt;&lt;/b&gt;&lt;/span&gt;&lt;/span&gt;&lt;/span&gt;&lt;/font&gt;&lt;/div&gt;&lt;/div&gt;" style="rounded=1;whiteSpace=wrap;html=1;dashed=1;fillColor=none;fontColor=#ffffff;strokeColor=#6600CC;strokeWidth=2;" vertex="1" parent="1">
          <mxGeometry x="1262.5" y="2021" width="54.5" height="103" as="geometry" />
        </mxCell>
        <mxCell id="xoPCMP8puYDpdrjku2z3-310" value="&lt;font style=&quot;font-size: 9px; color: rgb(102, 0, 204);&quot;&gt;&lt;b&gt;基于自然语言&lt;/b&gt;&lt;/font&gt;" style="text;html=1;align=center;verticalAlign=middle;whiteSpace=wrap;rounded=0;spacing=2;horizontal=1;fontFamily=Times New Roman;strokeColor=none;" vertex="1" parent="1">
          <mxGeometry x="1245.5" y="1992" width="89.5" height="25" as="geometry" />
        </mxCell>
        <mxCell id="xoPCMP8puYDpdrjku2z3-311" value="" style="group;" vertex="1" connectable="0" parent="1">
          <mxGeometry x="1361" y="2037.78" width="84" height="75.35" as="geometry" />
        </mxCell>
        <UserObject label="&lt;font style=&quot;font-size: 11px;&quot;&gt;&lt;b style=&quot;color: rgb(0, 102, 204);&quot;&gt;SWRL 推理&lt;/b&gt;&lt;/font&gt;" tooltip="Semantic Web Rule Language &#xa;语义网规则语言" id="xoPCMP8puYDpdrjku2z3-312">
          <mxCell style="rounded=1;whiteSpace=wrap;html=1;fillColor=#dae8fc;strokeColor=none;" vertex="1" parent="xoPCMP8puYDpdrjku2z3-311">
            <mxGeometry width="84" height="75.35" as="geometry" />
          </mxCell>
        </UserObject>
        <mxCell id="xoPCMP8puYDpdrjku2z3-339" value="&lt;div style=&quot;line-height: 100%;&quot;&gt;&lt;div&gt;&lt;font style=&quot;font-size: 11px; color: rgb(102, 0, 204);&quot;&gt;&lt;b style=&quot;color: rgb(16, 115, 158);&quot;&gt;Rule&amp;nbsp; 1&lt;/b&gt;&lt;/font&gt;&lt;/div&gt;&lt;div&gt;&lt;font style=&quot;font-size: 11px; color: rgba(0, 0, 0, 0);&quot;&gt;&lt;b style=&quot;color: rgb(16, 115, 158);&quot;&gt;&lt;br&gt;&lt;/b&gt;&lt;/font&gt;&lt;/div&gt;&lt;div&gt;&lt;font style=&quot;font-size: 11px; color: rgba(0, 0, 0, 0);&quot;&gt;&lt;b style=&quot;color: rgb(16, 115, 158);&quot;&gt;Rule&amp;nbsp; 2&lt;/b&gt;&lt;/font&gt;&lt;/div&gt;&lt;div&gt;&lt;font style=&quot;font-size: 11px; color: rgba(0, 0, 0, 0);&quot;&gt;&lt;b style=&quot;color: rgb(16, 115, 158);&quot;&gt;&lt;br&gt;&lt;/b&gt;&lt;/font&gt;&lt;/div&gt;&lt;div&gt;&lt;font style=&quot;font-size: 11px; color: rgba(0, 0, 0, 0);&quot;&gt;&lt;b style=&quot;color: rgb(16, 115, 158);&quot;&gt;Rule&amp;nbsp; 3&lt;/b&gt;&lt;/font&gt;&lt;/div&gt;&lt;div&gt;&lt;font style=&quot;font-size: 11px; color: rgba(0, 0, 0, 0);&quot;&gt;&lt;b style=&quot;color: rgb(16, 115, 158);&quot;&gt;...&lt;br&gt;&lt;/b&gt;&lt;/font&gt;&lt;/div&gt;&lt;div&gt;&lt;font style=&quot;font-size: 11px; color: rgba(0, 0, 0, 0);&quot;&gt;&lt;span style=&quot;color: rgba(0, 0, 0, 0);&quot;&gt;&lt;span style=&quot;color: rgba(0, 0, 0, 0);&quot;&gt;&lt;span style=&quot;color: rgba(0, 0, 0, 0);&quot;&gt;&lt;b&gt;&lt;br&gt;&lt;/b&gt;&lt;/span&gt;&lt;/span&gt;&lt;/span&gt;&lt;/font&gt;&lt;/div&gt;&lt;/div&gt;" style="rounded=1;whiteSpace=wrap;html=1;dashed=1;fillColor=none;fontColor=#ffffff;strokeColor=#6600CC;strokeWidth=2;" vertex="1" parent="1">
          <mxGeometry x="1491.5" y="2021" width="54.5" height="103" as="geometry" />
        </mxCell>
        <mxCell id="xoPCMP8puYDpdrjku2z3-340" value="&lt;font style=&quot;font-size: 9px; color: rgb(102, 0, 204);&quot;&gt;&lt;b&gt;机器语言&lt;/b&gt;&lt;/font&gt;" style="text;html=1;align=center;verticalAlign=middle;whiteSpace=wrap;rounded=0;spacing=2;horizontal=1;fontFamily=Times New Roman;strokeColor=none;" vertex="1" parent="1">
          <mxGeometry x="1475.5" y="1992" width="89.5" height="25" as="geometry" />
        </mxCell>
        <mxCell id="xoPCMP8puYDpdrjku2z3-342" value="生成&amp;nbsp; CCR" style="text;html=1;align=center;verticalAlign=middle;whiteSpace=wrap;rounded=0;spacing=2;horizontal=1;fontFamily=Times New Roman;fontSize=11;" vertex="1" parent="1">
          <mxGeometry x="1320.5" y="2131" width="79.5" height="49" as="geometry" />
        </mxCell>
        <mxCell id="xoPCMP8puYDpdrjku2z3-343" value="" style="html=1;shadow=0;dashed=0;align=center;verticalAlign=middle;shape=mxgraph.arrows2.arrow;dy=0.58;dx=12.65;notch=0;fillColor=#808080;fontColor=#333333;strokeColor=#666666;" vertex="1" parent="1">
          <mxGeometry x="1325" y="2060" width="30" height="22" as="geometry" />
        </mxCell>
        <mxCell id="xoPCMP8puYDpdrjku2z3-344" value="" style="html=1;shadow=0;dashed=0;align=center;verticalAlign=middle;shape=mxgraph.arrows2.arrow;dy=0.58;dx=12.65;notch=0;fillColor=#808080;fontColor=#333333;strokeColor=#666666;" vertex="1" parent="1">
          <mxGeometry x="1452" y="2060" width="30" height="22" as="geometry" />
        </mxCell>
      </root>
    </mxGraphModel>
  </diagram>
</mxfile>
